<svg viewBox="0 0 329.98699951171875 199.9865264892578" xmlns="http://www.w3.org/2000/svg"><g><g><g><g><g><line x1="50" y1="177.987" x2="45" y2="177.987" style="visibility: inherit;" fill="rgb(0, 0, 0)" stroke="rgb(204, 204, 204)" stroke-width="1px"></line><line x1="50" y1="164.2956923076923" x2="45" y2="164.2956923076923" style="visibility: inherit;" fill="rgb(0, 0, 0)" stroke="rgb(204, 204, 204)" stroke-width="1px"></line><line x1="50" y1="150.60438461538467" x2="45" y2="150.60438461538467" style="visibility: inherit;" fill="rgb(0, 0, 0)" stroke="rgb(204, 204, 204)" stroke-width="1px"></line><line x1="50" y1="136.91307692307697" x2="45" y2="136.91307692307697" style="visibility: inherit;" fill="rgb(0, 0, 0)" stroke="rgb(204, 204, 204)" stroke-width="1px"></line><line x1="50" y1="123.22176923076927" x2="45" y2="123.22176923076927" style="visibility: inherit;" fill="rgb(0, 0, 0)" stroke="rgb(204, 204, 204)" stroke-width="1px"></line><line x1="50" y1="109.53046153846154" x2="45" y2="109.53046153846154" style="visibility: inherit;" fill="rgb(0, 0, 0)" stroke="rgb(204, 204, 204)" stroke-width="1px"></line><line x1="50" y1="95.83915384615386" x2="45" y2="95.83915384615386" style="visibility: inherit;" fill="rgb(0, 0, 0)" stroke="rgb(204, 204, 204)" stroke-width="1px"></line><line x1="50" y1="82.14784615384613" x2="45" y2="82.14784615384613" style="visibility: inherit;" fill="rgb(0, 0, 0)" stroke="rgb(204, 204, 204)" stroke-width="1px"></line><line x1="50" y1="68.45653846153851" x2="45" y2="68.45653846153851" style="visibility: inherit;" fill="rgb(0, 0, 0)" stroke="rgb(204, 204, 204)" stroke-width="1px"></line><line x1="50" y1="54.76523076923081" x2="45" y2="54.76523076923081" style="visibility: inherit;" fill="rgb(0, 0, 0)" stroke="rgb(204, 204, 204)" stroke-width="1px"></line><line x1="50" y1="41.07392307692311" x2="45" y2="41.07392307692311" style="visibility: inherit;" fill="rgb(0, 0, 0)" stroke="rgb(204, 204, 204)" stroke-width="1px"></line><line x1="50" y1="27.382615384615406" x2="45" y2="27.382615384615406" style="visibility: inherit;" fill="rgb(0, 0, 0)" stroke="rgb(204, 204, 204)" stroke-width="1px"></line><line x1="50" y1="13.691307692307703" x2="45" y2="13.691307692307703" style="visibility: inherit;" fill="rgb(0, 0, 0)" stroke="rgb(204, 204, 204)" stroke-width="1px"></line><line x1="50" y1="0" x2="45" y2="0" style="visibility: inherit;" fill="rgb(0, 0, 0)" stroke="rgb(204, 204, 204)" stroke-width="1px"></line></g><g transform="translate(40, 0)"><text x="0" y="177.987" dx="0em" dy="0.3em" style="text-anchor: end; visibility: hidden; font-family: Roboto, sans-serif; font-size: 12px; font-weight: 200;" fill="rgb(50, 49, 63)" stroke="none" stroke-width="1px">0.54</text><text x="0" y="164.2956923076923" dx="0em" dy="0.3em" style="text-anchor: end; visibility: inherit; font-family: Roboto, sans-serif; font-size: 12px; font-weight: 200;" fill="rgb(50, 49, 63)" stroke="none" stroke-width="1px">0.56</text><text x="0" y="150.60438461538467" dx="0em" dy="0.3em" style="text-anchor: end; visibility: hidden; font-family: Roboto, sans-serif; font-size: 12px; font-weight: 200;" fill="rgb(50, 49, 63)" stroke="none" stroke-width="1px">0.58</text><text x="0" y="136.91307692307697" dx="0em" dy="0.3em" style="text-anchor: end; visibility: inherit; font-family: Roboto, sans-serif; font-size: 12px; font-weight: 200;" fill="rgb(50, 49, 63)" stroke="none" stroke-width="1px">0.6</text><text x="0" y="123.22176923076927" dx="0em" dy="0.3em" style="text-anchor: end; visibility: hidden; font-family: Roboto, sans-serif; font-size: 12px; font-weight: 200;" fill="rgb(50, 49, 63)" stroke="none" stroke-width="1px">0.62</text><text x="0" y="109.53046153846154" dx="0em" dy="0.3em" style="text-anchor: end; visibility: inherit; font-family: Roboto, sans-serif; font-size: 12px; font-weight: 200;" fill="rgb(50, 49, 63)" stroke="none" stroke-width="1px">0.64</text><text x="0" y="95.83915384615386" dx="0em" dy="0.3em" style="text-anchor: end; visibility: hidden; font-family: Roboto, sans-serif; font-size: 12px; font-weight: 200;" fill="rgb(50, 49, 63)" stroke="none" stroke-width="1px">0.66</text><text x="0" y="82.14784615384613" dx="0em" dy="0.3em" style="text-anchor: end; visibility: inherit; font-family: Roboto, sans-serif; font-size: 12px; font-weight: 200;" fill="rgb(50, 49, 63)" stroke="none" stroke-width="1px">0.68</text><text x="0" y="68.45653846153851" dx="0em" dy="0.3em" style="text-anchor: end; visibility: hidden; font-family: Roboto, sans-serif; font-size: 12px; font-weight: 200;" fill="rgb(50, 49, 63)" stroke="none" stroke-width="1px">0.7</text><text x="0" y="54.76523076923081" dx="0em" dy="0.3em" style="text-anchor: end; visibility: inherit; font-family: Roboto, sans-serif; font-size: 12px; font-weight: 200;" fill="rgb(50, 49, 63)" stroke="none" stroke-width="1px">0.72</text><text x="0" y="41.07392307692311" dx="0em" dy="0.3em" style="text-anchor: end; visibility: hidden; font-family: Roboto, sans-serif; font-size: 12px; font-weight: 200;" fill="rgb(50, 49, 63)" stroke="none" stroke-width="1px">0.74</text><text x="0" y="27.382615384615406" dx="0em" dy="0.3em" style="text-anchor: end; visibility: inherit; font-family: Roboto, sans-serif; font-size: 12px; font-weight: 200;" fill="rgb(50, 49, 63)" stroke="none" stroke-width="1px">0.76</text><text x="0" y="13.691307692307703" dx="0em" dy="0.3em" style="text-anchor: end; visibility: hidden; font-family: Roboto, sans-serif; font-size: 12px; font-weight: 200;" fill="rgb(50, 49, 63)" stroke="none" stroke-width="1px">0.78</text><text x="0" y="0" dx="0em" dy="0.3em" style="text-anchor: end; visibility: hidden; font-family: Roboto, sans-serif; font-size: 12px; font-weight: 200;" fill="rgb(50, 49, 63)" stroke="none" stroke-width="1px">0.8</text></g><line x1="50" y1="0" x2="50" y2="177.987" fill="rgb(0, 0, 0)" stroke="rgb(204, 204, 204)" stroke-width="1px"></line></g></g><g transform="translate(50, 0)" clip-path="url(#clip_0)"><clipPath id="clip_0"><rect width="279" height="177"></rect></clipPath><g><g><g><line x1="0" y1="0" x2="0" y2="177.987" fill="rgb(0, 0, 0)" stroke="rgb(60, 60, 60)" stroke-width="1px" opacity="0.25"></line><line x1="23.332250000000002" y1="0" x2="23.332250000000002" y2="177.987" fill="rgb(0, 0, 0)" stroke="rgb(60, 60, 60)" stroke-width="1px" opacity="0.25"></line><line x1="46.664500000000004" y1="0" x2="46.664500000000004" y2="177.987" fill="rgb(0, 0, 0)" stroke="rgb(60, 60, 60)" stroke-width="1px" opacity="0.25"></line><line x1="69.99675" y1="0" x2="69.99675" y2="177.987" fill="rgb(0, 0, 0)" stroke="rgb(60, 60, 60)" stroke-width="1px" opacity="0.25"></line><line x1="93.32900000000001" y1="0" x2="93.32900000000001" y2="177.987" fill="rgb(0, 0, 0)" stroke="rgb(60, 60, 60)" stroke-width="1px" opacity="0.25"></line><line x1="116.66125000000001" y1="0" x2="116.66125000000001" y2="177.987" fill="rgb(0, 0, 0)" stroke="rgb(60, 60, 60)" stroke-width="1px" opacity="0.25"></line><line x1="139.9935" y1="0" x2="139.9935" y2="177.987" fill="rgb(0, 0, 0)" stroke="rgb(60, 60, 60)" stroke-width="1px" opacity="0.25"></line><line x1="163.32575000000003" y1="0" x2="163.32575000000003" y2="177.987" fill="rgb(0, 0, 0)" stroke="rgb(60, 60, 60)" stroke-width="1px" opacity="0.25"></line><line x1="186.65800000000002" y1="0" x2="186.65800000000002" y2="177.987" fill="rgb(0, 0, 0)" stroke="rgb(60, 60, 60)" stroke-width="1px" opacity="0.25"></line><line x1="209.99025" y1="0" x2="209.99025" y2="177.987" fill="rgb(0, 0, 0)" stroke="rgb(60, 60, 60)" stroke-width="1px" opacity="0.25"></line><line x1="233.32250000000002" y1="0" x2="233.32250000000002" y2="177.987" fill="rgb(0, 0, 0)" stroke="rgb(60, 60, 60)" stroke-width="1px" opacity="0.25"></line><line x1="256.65475000000004" y1="0" x2="256.65475000000004" y2="177.987" fill="rgb(0, 0, 0)" stroke="rgb(60, 60, 60)" stroke-width="1px" opacity="0.25"></line><line x1="279.987" y1="0" x2="279.987" y2="177.987" fill="rgb(0, 0, 0)" stroke="rgb(60, 60, 60)" stroke-width="1px" opacity="0.25"></line></g><g><line x1="0" y1="177.987" x2="279.987" y2="177.987" fill="rgb(0, 0, 0)" stroke="rgb(60, 60, 60)" stroke-width="1px" opacity="0.25"></line><line x1="0" y1="164.2956923076923" x2="279.987" y2="164.2956923076923" fill="rgb(0, 0, 0)" stroke="rgb(60, 60, 60)" stroke-width="1px" opacity="0.25"></line><line x1="0" y1="150.60438461538467" x2="279.987" y2="150.60438461538467" fill="rgb(0, 0, 0)" stroke="rgb(60, 60, 60)" stroke-width="1px" opacity="0.25"></line><line x1="0" y1="136.91307692307697" x2="279.987" y2="136.91307692307697" fill="rgb(0, 0, 0)" stroke="rgb(60, 60, 60)" stroke-width="1px" opacity="0.25"></line><line x1="0" y1="123.22176923076927" x2="279.987" y2="123.22176923076927" fill="rgb(0, 0, 0)" stroke="rgb(60, 60, 60)" stroke-width="1px" opacity="0.25"></line><line x1="0" y1="109.53046153846154" x2="279.987" y2="109.53046153846154" fill="rgb(0, 0, 0)" stroke="rgb(60, 60, 60)" stroke-width="1px" opacity="0.25"></line><line x1="0" y1="95.83915384615386" x2="279.987" y2="95.83915384615386" fill="rgb(0, 0, 0)" stroke="rgb(60, 60, 60)" stroke-width="1px" opacity="0.25"></line><line x1="0" y1="82.14784615384613" x2="279.987" y2="82.14784615384613" fill="rgb(0, 0, 0)" stroke="rgb(60, 60, 60)" stroke-width="1px" opacity="0.25"></line><line x1="0" y1="68.45653846153851" x2="279.987" y2="68.45653846153851" fill="rgb(0, 0, 0)" stroke="rgb(60, 60, 60)" stroke-width="1px" opacity="0.25"></line><line x1="0" y1="54.76523076923081" x2="279.987" y2="54.76523076923081" fill="rgb(0, 0, 0)" stroke="rgb(60, 60, 60)" stroke-width="1px" opacity="0.25"></line><line x1="0" y1="41.07392307692311" x2="279.987" y2="41.07392307692311" fill="rgb(0, 0, 0)" stroke="rgb(60, 60, 60)" stroke-width="1px" opacity="0.25"></line><line x1="0" y1="27.382615384615406" x2="279.987" y2="27.382615384615406" fill="rgb(0, 0, 0)" stroke="rgb(60, 60, 60)" stroke-width="1px" opacity="0.25"></line><line x1="0" y1="13.691307692307703" x2="279.987" y2="13.691307692307703" fill="rgb(0, 0, 0)" stroke="rgb(60, 60, 60)" stroke-width="1px" opacity="0.25"></line><line x1="0" y1="0" x2="279.987" y2="0" fill="rgb(0, 0, 0)" stroke="rgb(60, 60, 60)" stroke-width="1px" opacity="0.25"></line></g></g></g><g><g><line x1="0" y1="547.6523076923077" x2="279.987" y2="547.6523076923077" fill="rgb(0, 0, 0)" stroke="rgb(153, 153, 153)" stroke-width="1.5px"></line></g></g><g><g><line x1="23.332250000000002" y1="0" x2="23.332250000000002" y2="177.987" fill="rgb(0, 0, 0)" stroke="rgb(153, 153, 153)" stroke-width="1.5px"></line></g></g><g><g><g><g><g><path stroke="rgb(51, 187, 238)" stroke-width="2px" d="M23.332250000000002,205.2567127183309L27.998700000000003,165.01207380239782L32.665150000000004,146.44801107521243L37.3316,135.40448186021587L41.99805,127.72591725785001L46.664500000000004,121.9444193933102L51.33095,117.17920873843708L55.997400000000006,112.75274688569401L60.663850000000004,109.34257224261765L65.33030000000001,106.27114640167129L69.99675,103.47073592373961L74.6632,101.93502300326644L79.32965,99.47336132746479L83.9961,98.07315608849895L88.66255000000001,96.46970972891039L93.32900000000001,95.27274561056727L97.99545,94.45974032479985L102.6619,93.14987354017222L107.32835000000001,92.60784281414291L111.99480000000001,91.70449907403729L116.66125000000001,91.094694105616L121.32770000000001,90.28168881984858L125.99415000000002,90.28168881984858L130.66060000000002,89.62675542753479L135.32705,88.92665280805187L139.9935,88.31688864290716L144.65995000000004,87.97813984077713L149.3264,87.45867332669407L153.99285000000003,87.3457706604096L158.6593,86.84890916154937L163.32575000000003,86.6682730561495L167.9922,86.37465267791201L172.65865000000002,87.09736031261777L177.32510000000002,86.48759614747307L181.99155000000002,86.69083726809578L186.65800000000002,86.19397576923556L191.32445,86.28431422357379L195.9909,85.35836546824531L200.65735,85.06478589328438L205.3238,85.13256013567633L209.99025,85.49387314975263L214.65670000000003,85.1551243476226L219.32315000000003,84.7486013031006L223.98960000000002,84.5001909553088L228.65605000000002,84.43245751619341L233.32250000000002,84.61309362159328L237.98895000000002,84.5001909553088L242.65540000000001,84.31951404663235L247.32185,84.27434481946324L251.98830000000004,84.40985250097057" style="fill: none;" fill="none"></path></g><g><path stroke="rgb(204, 51, 17)" stroke-width="2px" d="M27.998700000000003,184.4902115314282L32.665150000000004,155.32105079605032L37.3316,137.8214639481673L41.99805,125.62891446480387L46.664500000000004,117.10670131596237L51.33095,108.18743148276442L55.997400000000006,102.6964121441658L60.663850000000004,97.21510398539215L65.33030000000001,91.68536233732337L69.99675,88.45080499662805L74.6632,83.69579516089883L79.32965,80.67427172720434L83.9961,77.21696929968324L88.66255000000001,73.55630334170966L93.32900000000001,71.77438345037976L97.99545,68.44299993437073L102.6619,66.3317976010763L107.32835000000001,63.387759589598765L111.99480000000001,60.76329284026075L116.66125000000001,58.60369782094776L121.32770000000001,57.160730748130746L125.99415000000002,55.05923959466131L130.66060000000002,53.015852307035395L135.32705,51.25331397207887L139.9935,49.64570567827961L144.65995000000004,48.16401629599245L149.3264,46.03347320960121L153.99285000000003,45.084388996454415L158.6593,42.95384591006318L163.32575000000003,42.19845485082042L167.9922,40.19383067594128L172.65865000000002,39.099486798185595L177.32510000000002,38.150402585038805L181.99155000000002,36.71714669204679L186.65800000000002,34.83840062540314L191.32445,33.91836834517811L195.9909,33.13392535301359L200.65735,32.426967783065976L205.3238,30.867792978561862L209.99025,29.34738128680452L214.65670000000003,29.21179199874403L219.32315000000003,27.487975973257686L223.98960000000002,27.487975973257686L228.65605000000002,26.471117517718938L233.32250000000002,24.960376202509988L237.98895000000002,24.456782163014804L242.65540000000001,23.188126687728477L247.32185,22.994474337101003L251.98830000000004,21.164120956475948" style="fill: none;" fill="none"></path></g><g><path stroke="rgb(0, 119, 187)" stroke-width="2px" d="M23.332250000000002,201.07866121337963L27.998700000000003,163.79250466883184L32.665150000000004,146.33510840892794L37.3316,135.47221529933122L41.99805,127.54524034917358L46.664500000000004,121.69600904551838L51.33095,117.08887028409887L55.997400000000006,113.33990603561587L60.663850000000004,109.99750563493144L65.33030000000001,107.17449014177691L69.99675,104.50958734535256L74.6632,102.2963768206193L79.32965,99.92505359915589L83.9961,97.84730995265339L88.66255000000001,96.22125857784201L93.32900000000001,95.2953506257901L97.99545,94.16611994656235L102.6619,93.19500196406477L107.32835000000001,92.38199667829736L111.99480000000001,92.04324787616733L116.66125000000001,91.34314525668441L121.32770000000001,90.82371954587792L125.99415000000002,90.19135036551037L130.66060000000002,89.94294001771857L135.32705,89.64931963948105L139.9935,88.83631435371366L144.65995000000004,88.24911440051523L149.3264,87.8878013864389L153.99285000000003,87.52644756908602L158.6593,87.3457706604096L163.32575000000003,86.71344228331863L167.9922,86.75857070721116L172.65865000000002,86.51016035941933L177.32510000000002,85.58421160409087L181.99155000000002,86.01329886055913L186.65800000000002,85.69715507365193L191.32445,85.40353469541442L195.9909,85.01961666611527L200.65735,85.22289859001457L205.3238,84.63569863681613L209.99025,84.92927821177705L214.65670000000003,84.61309362159328L219.32315000000003,84.18400636512501L223.98960000000002,84.07110369884053L228.65605000000002,84.0484986836177L233.32250000000002,84.16144215317874L237.98895000000002,83.93559601733321L242.65540000000001,84.16144215317874L247.32185,83.41617030652671L251.98830000000004,83.41617030652671" style="fill: none;" fill="none"></path></g><g><path stroke="rgb(255, 112, 67)" stroke-width="2px" d="M27.998700000000003,181.89483751828857L32.665150000000004,154.26542922776483L37.3316,137.07578406874953L41.99805,126.19061237014259L46.664500000000004,117.02921589374546L51.33095,108.63292165641604L55.997400000000006,102.29935545980933L60.663850000000004,96.25634939569696L65.33030000000001,91.95650011016775L69.99675,87.13371603204656L74.6632,83.91854024772464L79.32965,80.32564853214303L83.9961,77.78833758157036L88.66255000000001,73.32388787833546L93.32900000000001,71.3869971425717L97.99545,67.49391572122394L102.6619,66.28336411178114L107.32835000000001,63.25217030153827L111.99480000000001,61.38309461144303L116.66125000000001,57.94517374029529L121.32770000000001,57.364135081859764L125.99415000000002,55.04956921811289L130.66060000000002,52.87059264242651L135.32705,51.611648346965154L139.9935,49.22926743754977L144.65995000000004,46.87597926433272L149.3264,46.15935131783671L153.99285000000003,44.445246472175334L158.6593,43.57364768124547L163.32575000000003,42.01447287674136L167.9922,40.12601563027275L172.65865000000002,39.806444368133214L177.32510000000002,37.32723728340409L181.99155000000002,35.58408050482093L186.65800000000002,35.438820840212045L191.32445,34.08300956616038L195.9909,33.811830990039425L200.65735,32.45601971598776L205.3238,30.954948777327203L209.99025,30.131783475692487L214.65670000000003,28.09810736789156L219.32315000000003,29.221462375292447L223.98960000000002,26.761636846936685L228.65605000000002,26.13216469920602L233.32250000000002,25.49302217492694L237.98895000000002,24.00162161281478L242.65540000000001,22.684573451509866L247.32185,22.13254592271955L251.98830000000004,20.52493762892029" style="fill: none;" fill="none"></path></g></g></g></g></g></g><g transform="translate(50, 177)" clip-path="url(#clip_1)"><clipPath id="clip_1"><rect width="279" height="21"></rect></clipPath><g><g><line x1="0" y1="0" x2="0" y2="5" style="visibility: inherit;" fill="rgb(0, 0, 0)" stroke="rgb(204, 204, 204)" stroke-width="1px"></line><line x1="23.332250000000002" y1="0" x2="23.332250000000002" y2="5" style="visibility: inherit;" fill="rgb(0, 0, 0)" stroke="rgb(204, 204, 204)" stroke-width="1px"></line><line x1="46.664500000000004" y1="0" x2="46.664500000000004" y2="5" style="visibility: inherit;" fill="rgb(0, 0, 0)" stroke="rgb(204, 204, 204)" stroke-width="1px"></line><line x1="69.99675" y1="0" x2="69.99675" y2="5" style="visibility: inherit;" fill="rgb(0, 0, 0)" stroke="rgb(204, 204, 204)" stroke-width="1px"></line><line x1="93.32900000000001" y1="0" x2="93.32900000000001" y2="5" style="visibility: inherit;" fill="rgb(0, 0, 0)" stroke="rgb(204, 204, 204)" stroke-width="1px"></line><line x1="116.66125000000001" y1="0" x2="116.66125000000001" y2="5" style="visibility: inherit;" fill="rgb(0, 0, 0)" stroke="rgb(204, 204, 204)" stroke-width="1px"></line><line x1="139.9935" y1="0" x2="139.9935" y2="5" style="visibility: inherit;" fill="rgb(0, 0, 0)" stroke="rgb(204, 204, 204)" stroke-width="1px"></line><line x1="163.32575000000003" y1="0" x2="163.32575000000003" y2="5" style="visibility: inherit;" fill="rgb(0, 0, 0)" stroke="rgb(204, 204, 204)" stroke-width="1px"></line><line x1="186.65800000000002" y1="0" x2="186.65800000000002" y2="5" style="visibility: inherit;" fill="rgb(0, 0, 0)" stroke="rgb(204, 204, 204)" stroke-width="1px"></line><line x1="209.99025" y1="0" x2="209.99025" y2="5" style="visibility: inherit;" fill="rgb(0, 0, 0)" stroke="rgb(204, 204, 204)" stroke-width="1px"></line><line x1="233.32250000000002" y1="0" x2="233.32250000000002" y2="5" style="visibility: inherit;" fill="rgb(0, 0, 0)" stroke="rgb(204, 204, 204)" stroke-width="1px"></line><line x1="256.65475000000004" y1="0" x2="256.65475000000004" y2="5" style="visibility: inherit;" fill="rgb(0, 0, 0)" stroke="rgb(204, 204, 204)" stroke-width="1px"></line><line x1="279.987" y1="0" x2="279.987" y2="5" style="visibility: inherit;" fill="rgb(0, 0, 0)" stroke="rgb(204, 204, 204)" stroke-width="1px"></line></g><g transform="translate(0, 8)"><text x="0" y="0" dx="0em" dy="0.95em" style="text-anchor: middle; visibility: hidden; font-family: Roboto, sans-serif; font-size: 12px; font-weight: 200;" fill="rgb(50, 49, 63)" stroke="none" stroke-width="1px">-5</text><text x="23.332250000000002" y="0" dx="0em" dy="0.95em" style="text-anchor: middle; visibility: inherit; font-family: Roboto, sans-serif; font-size: 12px; font-weight: 200;" fill="rgb(50, 49, 63)" stroke="none" stroke-width="1px">0</text><text x="46.664500000000004" y="0" dx="0em" dy="0.95em" style="text-anchor: middle; visibility: inherit; font-family: Roboto, sans-serif; font-size: 12px; font-weight: 200;" fill="rgb(50, 49, 63)" stroke="none" stroke-width="1px">5</text><text x="69.99675" y="0" dx="0em" dy="0.95em" style="text-anchor: middle; visibility: inherit; font-family: Roboto, sans-serif; font-size: 12px; font-weight: 200;" fill="rgb(50, 49, 63)" stroke="none" stroke-width="1px">10</text><text x="93.32900000000001" y="0" dx="0em" dy="0.95em" style="text-anchor: middle; visibility: inherit; font-family: Roboto, sans-serif; font-size: 12px; font-weight: 200;" fill="rgb(50, 49, 63)" stroke="none" stroke-width="1px">15</text><text x="116.66125000000001" y="0" dx="0em" dy="0.95em" style="text-anchor: middle; visibility: inherit; font-family: Roboto, sans-serif; font-size: 12px; font-weight: 200;" fill="rgb(50, 49, 63)" stroke="none" stroke-width="1px">20</text><text x="139.9935" y="0" dx="0em" dy="0.95em" style="text-anchor: middle; visibility: inherit; font-family: Roboto, sans-serif; font-size: 12px; font-weight: 200;" fill="rgb(50, 49, 63)" stroke="none" stroke-width="1px">25</text><text x="163.32575000000003" y="0" dx="0em" dy="0.95em" style="text-anchor: middle; visibility: inherit; font-family: Roboto, sans-serif; font-size: 12px; font-weight: 200;" fill="rgb(50, 49, 63)" stroke="none" stroke-width="1px">30</text><text x="186.65800000000002" y="0" dx="0em" dy="0.95em" style="text-anchor: middle; visibility: inherit; font-family: Roboto, sans-serif; font-size: 12px; font-weight: 200;" fill="rgb(50, 49, 63)" stroke="none" stroke-width="1px">35</text><text x="209.99025" y="0" dx="0em" dy="0.95em" style="text-anchor: middle; visibility: inherit; font-family: Roboto, sans-serif; font-size: 12px; font-weight: 200;" fill="rgb(50, 49, 63)" stroke="none" stroke-width="1px">40</text><text x="233.32250000000002" y="0" dx="0em" dy="0.95em" style="text-anchor: middle; visibility: inherit; font-family: Roboto, sans-serif; font-size: 12px; font-weight: 200;" fill="rgb(50, 49, 63)" stroke="none" stroke-width="1px">45</text><text x="256.65475000000004" y="0" dx="0em" dy="0.95em" style="text-anchor: middle; visibility: inherit; font-family: Roboto, sans-serif; font-size: 12px; font-weight: 200;" fill="rgb(50, 49, 63)" stroke="none" stroke-width="1px">50</text><text x="279.987" y="0" dx="0em" dy="0.95em" style="text-anchor: middle; visibility: hidden; font-family: Roboto, sans-serif; font-size: 12px; font-weight: 200;" fill="rgb(50, 49, 63)" stroke="none" stroke-width="1px">55</text></g><line x1="0" y1="0" x2="279.987" y2="0" fill="rgb(0, 0, 0)" stroke="rgb(204, 204, 204)" stroke-width="1px"></line></g></g></g></g></svg>