<svg viewBox="0 0 329.98699951171875 199.9865264892578" xmlns="http://www.w3.org/2000/svg"><g><g><g><g><g><line x1="40" y1="177.987" x2="35" y2="177.987" style="visibility: inherit;" fill="rgb(0, 0, 0)" stroke="rgb(204, 204, 204)" stroke-width="1px"></line><line x1="40" y1="163.15474999999998" x2="35" y2="163.15474999999998" style="visibility: inherit;" fill="rgb(0, 0, 0)" stroke="rgb(204, 204, 204)" stroke-width="1px"></line><line x1="40" y1="148.3225" x2="35" y2="148.3225" style="visibility: inherit;" fill="rgb(0, 0, 0)" stroke="rgb(204, 204, 204)" stroke-width="1px"></line><line x1="40" y1="133.49025" x2="35" y2="133.49025" style="visibility: inherit;" fill="rgb(0, 0, 0)" stroke="rgb(204, 204, 204)" stroke-width="1px"></line><line x1="40" y1="118.65799999999997" x2="35" y2="118.65799999999997" style="visibility: inherit;" fill="rgb(0, 0, 0)" stroke="rgb(204, 204, 204)" stroke-width="1px"></line><line x1="40" y1="103.82574999999999" x2="35" y2="103.82574999999999" style="visibility: inherit;" fill="rgb(0, 0, 0)" stroke="rgb(204, 204, 204)" stroke-width="1px"></line><line x1="40" y1="88.99349999999998" x2="35" y2="88.99349999999998" style="visibility: inherit;" fill="rgb(0, 0, 0)" stroke="rgb(204, 204, 204)" stroke-width="1px"></line><line x1="40" y1="74.16125" x2="35" y2="74.16125" style="visibility: inherit;" fill="rgb(0, 0, 0)" stroke="rgb(204, 204, 204)" stroke-width="1px"></line><line x1="40" y1="59.328999999999986" x2="35" y2="59.328999999999986" style="visibility: inherit;" fill="rgb(0, 0, 0)" stroke="rgb(204, 204, 204)" stroke-width="1px"></line><line x1="40" y1="44.49674999999998" x2="35" y2="44.49674999999998" style="visibility: inherit;" fill="rgb(0, 0, 0)" stroke="rgb(204, 204, 204)" stroke-width="1px"></line><line x1="40" y1="29.664499999999993" x2="35" y2="29.664499999999993" style="visibility: inherit;" fill="rgb(0, 0, 0)" stroke="rgb(204, 204, 204)" stroke-width="1px"></line><line x1="40" y1="14.832249999999986" x2="35" y2="14.832249999999986" style="visibility: inherit;" fill="rgb(0, 0, 0)" stroke="rgb(204, 204, 204)" stroke-width="1px"></line><line x1="40" y1="0" x2="35" y2="0" style="visibility: inherit;" fill="rgb(0, 0, 0)" stroke="rgb(204, 204, 204)" stroke-width="1px"></line></g><g transform="translate(30, 0)"><text x="0" y="177.987" dx="0em" dy="0.3em" style="text-anchor: end; visibility: hidden; font-family: Roboto, sans-serif; font-size: 12px; font-weight: 200;" fill="rgb(50, 49, 63)" stroke="none" stroke-width="1px">0.7</text><text x="0" y="163.15474999999998" dx="0em" dy="0.3em" style="text-anchor: end; visibility: inherit; font-family: Roboto, sans-serif; font-size: 12px; font-weight: 200;" fill="rgb(50, 49, 63)" stroke="none" stroke-width="1px">0.8</text><text x="0" y="148.3225" dx="0em" dy="0.3em" style="text-anchor: end; visibility: hidden; font-family: Roboto, sans-serif; font-size: 12px; font-weight: 200;" fill="rgb(50, 49, 63)" stroke="none" stroke-width="1px">0.9</text><text x="0" y="133.49025" dx="0em" dy="0.3em" style="text-anchor: end; visibility: inherit; font-family: Roboto, sans-serif; font-size: 12px; font-weight: 200;" fill="rgb(50, 49, 63)" stroke="none" stroke-width="1px">1</text><text x="0" y="118.65799999999997" dx="0em" dy="0.3em" style="text-anchor: end; visibility: hidden; font-family: Roboto, sans-serif; font-size: 12px; font-weight: 200;" fill="rgb(50, 49, 63)" stroke="none" stroke-width="1px">1.1</text><text x="0" y="103.82574999999999" dx="0em" dy="0.3em" style="text-anchor: end; visibility: inherit; font-family: Roboto, sans-serif; font-size: 12px; font-weight: 200;" fill="rgb(50, 49, 63)" stroke="none" stroke-width="1px">1.2</text><text x="0" y="88.99349999999998" dx="0em" dy="0.3em" style="text-anchor: end; visibility: hidden; font-family: Roboto, sans-serif; font-size: 12px; font-weight: 200;" fill="rgb(50, 49, 63)" stroke="none" stroke-width="1px">1.3</text><text x="0" y="74.16125" dx="0em" dy="0.3em" style="text-anchor: end; visibility: inherit; font-family: Roboto, sans-serif; font-size: 12px; font-weight: 200;" fill="rgb(50, 49, 63)" stroke="none" stroke-width="1px">1.4</text><text x="0" y="59.328999999999986" dx="0em" dy="0.3em" style="text-anchor: end; visibility: hidden; font-family: Roboto, sans-serif; font-size: 12px; font-weight: 200;" fill="rgb(50, 49, 63)" stroke="none" stroke-width="1px">1.5</text><text x="0" y="44.49674999999998" dx="0em" dy="0.3em" style="text-anchor: end; visibility: inherit; font-family: Roboto, sans-serif; font-size: 12px; font-weight: 200;" fill="rgb(50, 49, 63)" stroke="none" stroke-width="1px">1.6</text><text x="0" y="29.664499999999993" dx="0em" dy="0.3em" style="text-anchor: end; visibility: hidden; font-family: Roboto, sans-serif; font-size: 12px; font-weight: 200;" fill="rgb(50, 49, 63)" stroke="none" stroke-width="1px">1.7</text><text x="0" y="14.832249999999986" dx="0em" dy="0.3em" style="text-anchor: end; visibility: inherit; font-family: Roboto, sans-serif; font-size: 12px; font-weight: 200;" fill="rgb(50, 49, 63)" stroke="none" stroke-width="1px">1.8</text><text x="0" y="0" dx="0em" dy="0.3em" style="text-anchor: end; visibility: hidden; font-family: Roboto, sans-serif; font-size: 12px; font-weight: 200;" fill="rgb(50, 49, 63)" stroke="none" stroke-width="1px">1.9</text></g><line x1="40" y1="0" x2="40" y2="177.987" fill="rgb(0, 0, 0)" stroke="rgb(204, 204, 204)" stroke-width="1px"></line></g></g><g transform="translate(40, 0)" clip-path="url(#clip_0)"><clipPath id="clip_0"><rect width="289" height="177"></rect></clipPath><g><g><g><line x1="0" y1="0" x2="0" y2="177.987" fill="rgb(0, 0, 0)" stroke="rgb(60, 60, 60)" stroke-width="1px" opacity="0.25"></line><line x1="24.165583333333334" y1="0" x2="24.165583333333334" y2="177.987" fill="rgb(0, 0, 0)" stroke="rgb(60, 60, 60)" stroke-width="1px" opacity="0.25"></line><line x1="48.33116666666667" y1="0" x2="48.33116666666667" y2="177.987" fill="rgb(0, 0, 0)" stroke="rgb(60, 60, 60)" stroke-width="1px" opacity="0.25"></line><line x1="72.49675" y1="0" x2="72.49675" y2="177.987" fill="rgb(0, 0, 0)" stroke="rgb(60, 60, 60)" stroke-width="1px" opacity="0.25"></line><line x1="96.66233333333334" y1="0" x2="96.66233333333334" y2="177.987" fill="rgb(0, 0, 0)" stroke="rgb(60, 60, 60)" stroke-width="1px" opacity="0.25"></line><line x1="120.82791666666668" y1="0" x2="120.82791666666668" y2="177.987" fill="rgb(0, 0, 0)" stroke="rgb(60, 60, 60)" stroke-width="1px" opacity="0.25"></line><line x1="144.9935" y1="0" x2="144.9935" y2="177.987" fill="rgb(0, 0, 0)" stroke="rgb(60, 60, 60)" stroke-width="1px" opacity="0.25"></line><line x1="169.15908333333337" y1="0" x2="169.15908333333337" y2="177.987" fill="rgb(0, 0, 0)" stroke="rgb(60, 60, 60)" stroke-width="1px" opacity="0.25"></line><line x1="193.32466666666667" y1="0" x2="193.32466666666667" y2="177.987" fill="rgb(0, 0, 0)" stroke="rgb(60, 60, 60)" stroke-width="1px" opacity="0.25"></line><line x1="217.49025" y1="0" x2="217.49025" y2="177.987" fill="rgb(0, 0, 0)" stroke="rgb(60, 60, 60)" stroke-width="1px" opacity="0.25"></line><line x1="241.65583333333336" y1="0" x2="241.65583333333336" y2="177.987" fill="rgb(0, 0, 0)" stroke="rgb(60, 60, 60)" stroke-width="1px" opacity="0.25"></line><line x1="265.82141666666666" y1="0" x2="265.82141666666666" y2="177.987" fill="rgb(0, 0, 0)" stroke="rgb(60, 60, 60)" stroke-width="1px" opacity="0.25"></line><line x1="289.987" y1="0" x2="289.987" y2="177.987" fill="rgb(0, 0, 0)" stroke="rgb(60, 60, 60)" stroke-width="1px" opacity="0.25"></line></g><g><line x1="0" y1="177.987" x2="289.987" y2="177.987" fill="rgb(0, 0, 0)" stroke="rgb(60, 60, 60)" stroke-width="1px" opacity="0.25"></line><line x1="0" y1="163.15474999999998" x2="289.987" y2="163.15474999999998" fill="rgb(0, 0, 0)" stroke="rgb(60, 60, 60)" stroke-width="1px" opacity="0.25"></line><line x1="0" y1="148.3225" x2="289.987" y2="148.3225" fill="rgb(0, 0, 0)" stroke="rgb(60, 60, 60)" stroke-width="1px" opacity="0.25"></line><line x1="0" y1="133.49025" x2="289.987" y2="133.49025" fill="rgb(0, 0, 0)" stroke="rgb(60, 60, 60)" stroke-width="1px" opacity="0.25"></line><line x1="0" y1="118.65799999999997" x2="289.987" y2="118.65799999999997" fill="rgb(0, 0, 0)" stroke="rgb(60, 60, 60)" stroke-width="1px" opacity="0.25"></line><line x1="0" y1="103.82574999999999" x2="289.987" y2="103.82574999999999" fill="rgb(0, 0, 0)" stroke="rgb(60, 60, 60)" stroke-width="1px" opacity="0.25"></line><line x1="0" y1="88.99349999999998" x2="289.987" y2="88.99349999999998" fill="rgb(0, 0, 0)" stroke="rgb(60, 60, 60)" stroke-width="1px" opacity="0.25"></line><line x1="0" y1="74.16125" x2="289.987" y2="74.16125" fill="rgb(0, 0, 0)" stroke="rgb(60, 60, 60)" stroke-width="1px" opacity="0.25"></line><line x1="0" y1="59.328999999999986" x2="289.987" y2="59.328999999999986" fill="rgb(0, 0, 0)" stroke="rgb(60, 60, 60)" stroke-width="1px" opacity="0.25"></line><line x1="0" y1="44.49674999999998" x2="289.987" y2="44.49674999999998" fill="rgb(0, 0, 0)" stroke="rgb(60, 60, 60)" stroke-width="1px" opacity="0.25"></line><line x1="0" y1="29.664499999999993" x2="289.987" y2="29.664499999999993" fill="rgb(0, 0, 0)" stroke="rgb(60, 60, 60)" stroke-width="1px" opacity="0.25"></line><line x1="0" y1="14.832249999999986" x2="289.987" y2="14.832249999999986" fill="rgb(0, 0, 0)" stroke="rgb(60, 60, 60)" stroke-width="1px" opacity="0.25"></line><line x1="0" y1="0" x2="289.987" y2="0" fill="rgb(0, 0, 0)" stroke="rgb(60, 60, 60)" stroke-width="1px" opacity="0.25"></line></g></g></g><g><g><line x1="0" y1="281.81275" x2="289.987" y2="281.81275" fill="rgb(0, 0, 0)" stroke="rgb(153, 153, 153)" stroke-width="1.5px"></line></g></g><g><g><line x1="24.165583333333334" y1="0" x2="24.165583333333334" y2="177.987" fill="rgb(0, 0, 0)" stroke="rgb(153, 153, 153)" stroke-width="1.5px"></line></g></g><g><g><g><g><g><path stroke="rgb(51, 187, 238)" stroke-width="2px" d="M24.165583333333334,-61.929470070362086L28.998700000000003,4.931386895120124L33.83181666666667,32.023176653921595L38.66493333333334,47.044532975494846L43.49805,56.947825507462014L48.33116666666667,64.04023200029133L53.16428333333334,69.4359471257925L57.997400000000006,73.77899892055987L62.830516666666675,77.19916900628805L67.66363333333334,80.13133190417288L72.49675,82.59992333644628L77.32986666666667,84.70689436995983L82.16298333333334,86.62585886621473L86.9961,88.21918465310334L91.82921666666667,89.62139197283982L96.66233333333334,90.91830643737316L101.49545,92.05290546768902L106.32856666666667,93.05841245168446L111.16168333333334,94.00903630846739L115.99480000000001,94.82025985115766L120.82791666666668,95.6204501878619L125.66103333333335,96.37295373523234L130.49415000000002,96.93849394911526L135.32726666666667,97.51352908545732L140.16038333333336,98.05767478132246L144.9935,98.56767765545844L149.8266166666667,99.02468931430577L154.65973333333335,99.46548711115122L159.49285000000003,99.81029247963427L164.3259666666667,100.1253400185108L169.15908333333337,100.47456574195623L173.9922,100.75435652965307L178.82531666666668,101.06834318333863L183.65843333333333,101.2651727491021L188.49155000000002,101.40490901017188L193.32466666666667,101.72676389569044L198.15778333333336,101.86390098804235L202.9909,102.04934371942281L207.8240166666667,102.23192206078767L212.65713333333335,102.32605794006585L217.49025,102.48519071871041L222.3233666666667,102.56238779777287L227.15648333333334,102.65537438476085L231.98960000000002,102.77608543807268L236.82271666666668,102.87057494574785L241.65583333333336,102.84562646234035L246.48895000000002,102.98156121814249L251.3220666666667,103.06498215699195L256.15518333333335,103.14919875973463L260.98830000000004,103.14868599855899" style="fill: none;" fill="none"></path></g><g><path stroke="rgb(204, 51, 17)" stroke-width="2px" d="M28.998700000000003,-25.92069274163246L33.83181666666667,19.168307025074938L38.66493333333334,41.84209345036744L43.49805,56.237987226188174L48.33116666666667,66.52878575557469L53.16428333333334,74.82439518773555L57.997400000000006,81.3174192290902L62.830516666666675,86.56922527843713L67.66363333333334,91.40132746481895L72.49675,95.68643724673984L77.32986666666667,99.40045484894513L82.16298333333334,102.57522450858353L86.9961,105.87480731093882L91.82921666666667,108.77328710401058L96.66233333333334,111.2730331980586L101.49545,113.91734258079528L106.32856666666667,116.17584338241814L111.16168333333334,118.06547440314291L115.99480000000001,120.37905282759665L120.82791666666668,122.19581871712207L125.66103333333335,124.05461334162949L130.49415000000002,125.55866563969849L135.32726666666667,127.56702739471196L140.16038333333336,129.1518130558133L144.9935,130.53471226507423L149.8266166666667,131.75103481793403L154.65973333333335,133.24760787540671L159.49285000000003,134.63583803275228L164.3259666666667,135.89593094044923L169.15908333333337,137.1433993143737L173.9922,138.26342001402375L178.82531666666668,139.24907076352832L183.65843333333333,140.64341869214175L188.49155000000002,141.65011033126711L193.32466666666667,142.49765151032804L198.15778333333336,143.77572642201184L202.9909,144.79206327566504L207.8240166666667,145.58738238120077L212.65713333333335,146.58581679725646L217.49025,147.48629614734648L222.3233666666667,148.13872285836933L227.15648333333334,149.24751585641502L231.98960000000002,150.14032147029042L236.82271666666668,151.02973225155472L241.65583333333336,151.59326562428473L246.48895000000002,152.2873586011827L251.3220666666667,153.4779546881616L256.15518333333335,153.89307906338573L260.98830000000004,154.70004138389228" style="fill: none;" fill="none"></path></g><g><path stroke="rgb(0, 119, 187)" stroke-width="2px" d="M24.165583333333334,-60.77908153212073L28.998700000000003,5.810630859971033L33.83181666666667,32.65716164404153L38.66493333333334,47.61955043041704L43.49805,57.403740918278686L48.33116666666667,64.43511114978789L53.16428333333334,69.7678804206252L57.997400000000006,74.03502587997913L62.830516666666675,77.43809803271292L67.66363333333334,80.39215052837132L72.49675,82.86682436907289L77.32986666666667,84.9825830682516L82.16298333333334,86.78863401734827L86.9961,88.47241794818638L91.82921666666667,89.9047367259264L96.66233333333334,91.19753141963481L101.49545,92.31091274613141L106.32856666666667,93.33113067144156L111.16168333333334,94.24909694576262L115.99480000000001,95.07702943021059L120.82791666666668,95.81570610725878L125.66103333333335,96.55379929745196L130.49415000000002,97.20838314169643L135.32726666666667,97.79957909578084L140.16038333333336,98.38166911864279L144.9935,98.87057805889843L149.8266166666667,99.2693648021817L154.65973333333335,99.70438077473639L159.49285000000003,100.07411694520711L164.3259666666667,100.37387005591393L169.15908333333337,100.74392449194193L173.9922,100.97291656041145L178.82531666666668,101.23385895454882L183.65843333333333,101.53168479049205L188.49155000000002,101.72648099297284L193.32466666666667,101.9472158383727L198.15778333333336,102.14241871351004L202.9909,102.3668843384981L207.8240166666667,102.4754482563734L212.65713333333335,102.67629150444267L217.49025,102.76501686924695L222.3233666666667,102.88266903692482L227.15648333333334,103.06811176830529L231.98960000000002,103.12715002918243L236.82271666666668,103.19364984923601L241.65583333333336,103.28354218775033L246.48895000000002,103.36956229531764L251.3220666666667,103.33175941967963L256.15518333333335,103.39827692115306L260.98830000000004,103.45830534154176" style="fill: none;" fill="none"></path></g><g><path stroke="rgb(255, 112, 67)" stroke-width="2px" d="M28.998700000000003,-24.992701102256788L33.83181666666667,19.596657102346413L38.66493333333334,41.90056590580939L43.49805,56.37047410511968L48.33116666666667,66.69283396893738L53.16428333333334,74.60859345847368L57.997400000000006,81.33400440090892L62.830516666666675,86.7524578323364L67.66363333333334,91.62291101837157L72.49675,95.9146159698963L77.32986666666667,99.37211153292654L82.16298333333334,103.02650738739968L86.9961,105.7369099175334L91.82921666666667,108.86204783165454L96.66233333333334,111.37857359313963L101.49545,114.08266385638713L106.32856666666667,116.18268609189985L111.16168333333334,118.41650363141298L115.99480000000001,120.1392397301793L120.82791666666668,122.46950941497087L125.66103333333335,123.95954034709929L130.49415000000002,125.78293676906823L135.32726666666667,127.47352804654835L140.16038333333336,128.55784111881255L144.9935,130.18624684268235L149.8266166666667,132.17583092981576L154.65973333333335,132.9237903522849L159.49285000000003,134.41093037226796L164.3259666666667,135.7674135402739L169.15908333333337,137.27753056535124L173.9922,138.27140317508577L178.82531666666668,139.32706350648402L183.65843333333333,140.70072417387365L188.49155000000002,141.7209420991838L193.32466666666667,142.86027090930938L198.15778333333336,143.46721216776967L202.9909,144.49923244082927L207.8240166666667,145.6865132615864L212.65713333333335,146.45820114949345L217.49025,147.26771843516826L222.3233666666667,148.58478087761998L227.15648333333334,148.6573896282315L231.98960000000002,149.6828147316873L236.82271666666668,150.5867861621976L241.65583333333336,151.58476970204708L246.48895000000002,152.27879195326565L251.3220666666667,153.10496513643858L256.15518333333335,153.75986724624036L260.98830000000004,154.71118951910734" style="fill: none;" fill="none"></path></g></g></g></g></g></g><g transform="translate(40, 177)" clip-path="url(#clip_1)"><clipPath id="clip_1"><rect width="289" height="21"></rect></clipPath><g><g><line x1="0" y1="0" x2="0" y2="5" style="visibility: inherit;" fill="rgb(0, 0, 0)" stroke="rgb(204, 204, 204)" stroke-width="1px"></line><line x1="24.165583333333334" y1="0" x2="24.165583333333334" y2="5" style="visibility: inherit;" fill="rgb(0, 0, 0)" stroke="rgb(204, 204, 204)" stroke-width="1px"></line><line x1="48.33116666666667" y1="0" x2="48.33116666666667" y2="5" style="visibility: inherit;" fill="rgb(0, 0, 0)" stroke="rgb(204, 204, 204)" stroke-width="1px"></line><line x1="72.49675" y1="0" x2="72.49675" y2="5" style="visibility: inherit;" fill="rgb(0, 0, 0)" stroke="rgb(204, 204, 204)" stroke-width="1px"></line><line x1="96.66233333333334" y1="0" x2="96.66233333333334" y2="5" style="visibility: inherit;" fill="rgb(0, 0, 0)" stroke="rgb(204, 204, 204)" stroke-width="1px"></line><line x1="120.82791666666668" y1="0" x2="120.82791666666668" y2="5" style="visibility: inherit;" fill="rgb(0, 0, 0)" stroke="rgb(204, 204, 204)" stroke-width="1px"></line><line x1="144.9935" y1="0" x2="144.9935" y2="5" style="visibility: inherit;" fill="rgb(0, 0, 0)" stroke="rgb(204, 204, 204)" stroke-width="1px"></line><line x1="169.15908333333337" y1="0" x2="169.15908333333337" y2="5" style="visibility: inherit;" fill="rgb(0, 0, 0)" stroke="rgb(204, 204, 204)" stroke-width="1px"></line><line x1="193.32466666666667" y1="0" x2="193.32466666666667" y2="5" style="visibility: inherit;" fill="rgb(0, 0, 0)" stroke="rgb(204, 204, 204)" stroke-width="1px"></line><line x1="217.49025" y1="0" x2="217.49025" y2="5" style="visibility: inherit;" fill="rgb(0, 0, 0)" stroke="rgb(204, 204, 204)" stroke-width="1px"></line><line x1="241.65583333333336" y1="0" x2="241.65583333333336" y2="5" style="visibility: inherit;" fill="rgb(0, 0, 0)" stroke="rgb(204, 204, 204)" stroke-width="1px"></line><line x1="265.82141666666666" y1="0" x2="265.82141666666666" y2="5" style="visibility: inherit;" fill="rgb(0, 0, 0)" stroke="rgb(204, 204, 204)" stroke-width="1px"></line><line x1="289.987" y1="0" x2="289.987" y2="5" style="visibility: inherit;" fill="rgb(0, 0, 0)" stroke="rgb(204, 204, 204)" stroke-width="1px"></line></g><g transform="translate(0, 8)"><text x="0" y="0" dx="0em" dy="0.95em" style="text-anchor: middle; visibility: hidden; font-family: Roboto, sans-serif; font-size: 12px; font-weight: 200;" fill="rgb(50, 49, 63)" stroke="none" stroke-width="1px">-5</text><text x="24.165583333333334" y="0" dx="0em" dy="0.95em" style="text-anchor: middle; visibility: inherit; font-family: Roboto, sans-serif; font-size: 12px; font-weight: 200;" fill="rgb(50, 49, 63)" stroke="none" stroke-width="1px">0</text><text x="48.33116666666667" y="0" dx="0em" dy="0.95em" style="text-anchor: middle; visibility: inherit; font-family: Roboto, sans-serif; font-size: 12px; font-weight: 200;" fill="rgb(50, 49, 63)" stroke="none" stroke-width="1px">5</text><text x="72.49675" y="0" dx="0em" dy="0.95em" style="text-anchor: middle; visibility: inherit; font-family: Roboto, sans-serif; font-size: 12px; font-weight: 200;" fill="rgb(50, 49, 63)" stroke="none" stroke-width="1px">10</text><text x="96.66233333333334" y="0" dx="0em" dy="0.95em" style="text-anchor: middle; visibility: inherit; font-family: Roboto, sans-serif; font-size: 12px; font-weight: 200;" fill="rgb(50, 49, 63)" stroke="none" stroke-width="1px">15</text><text x="120.82791666666668" y="0" dx="0em" dy="0.95em" style="text-anchor: middle; visibility: inherit; font-family: Roboto, sans-serif; font-size: 12px; font-weight: 200;" fill="rgb(50, 49, 63)" stroke="none" stroke-width="1px">20</text><text x="144.9935" y="0" dx="0em" dy="0.95em" style="text-anchor: middle; visibility: inherit; font-family: Roboto, sans-serif; font-size: 12px; font-weight: 200;" fill="rgb(50, 49, 63)" stroke="none" stroke-width="1px">25</text><text x="169.15908333333337" y="0" dx="0em" dy="0.95em" style="text-anchor: middle; visibility: inherit; font-family: Roboto, sans-serif; font-size: 12px; font-weight: 200;" fill="rgb(50, 49, 63)" stroke="none" stroke-width="1px">30</text><text x="193.32466666666667" y="0" dx="0em" dy="0.95em" style="text-anchor: middle; visibility: inherit; font-family: Roboto, sans-serif; font-size: 12px; font-weight: 200;" fill="rgb(50, 49, 63)" stroke="none" stroke-width="1px">35</text><text x="217.49025" y="0" dx="0em" dy="0.95em" style="text-anchor: middle; visibility: inherit; font-family: Roboto, sans-serif; font-size: 12px; font-weight: 200;" fill="rgb(50, 49, 63)" stroke="none" stroke-width="1px">40</text><text x="241.65583333333336" y="0" dx="0em" dy="0.95em" style="text-anchor: middle; visibility: inherit; font-family: Roboto, sans-serif; font-size: 12px; font-weight: 200;" fill="rgb(50, 49, 63)" stroke="none" stroke-width="1px">45</text><text x="265.82141666666666" y="0" dx="0em" dy="0.95em" style="text-anchor: middle; visibility: inherit; font-family: Roboto, sans-serif; font-size: 12px; font-weight: 200;" fill="rgb(50, 49, 63)" stroke="none" stroke-width="1px">50</text><text x="289.987" y="0" dx="0em" dy="0.95em" style="text-anchor: middle; visibility: hidden; font-family: Roboto, sans-serif; font-size: 12px; font-weight: 200;" fill="rgb(50, 49, 63)" stroke="none" stroke-width="1px">55</text></g><line x1="0" y1="0" x2="289.987" y2="0" fill="rgb(0, 0, 0)" stroke="rgb(204, 204, 204)" stroke-width="1px"></line></g></g></g></g></svg>