<svg viewBox="0 0 329.98699951171875 199.9865264892578" xmlns="http://www.w3.org/2000/svg"><g><g><g><g><g><line x1="50" y1="155.73862500000004" x2="45" y2="155.73862500000004" style="visibility: inherit;" fill="rgb(0, 0, 0)" stroke="rgb(204, 204, 204)" stroke-width="1px"></line><line x1="50" y1="127.92815625" x2="45" y2="127.92815625" style="visibility: inherit;" fill="rgb(0, 0, 0)" stroke="rgb(204, 204, 204)" stroke-width="1px"></line><line x1="50" y1="100.11768750000003" x2="45" y2="100.11768750000003" style="visibility: inherit;" fill="rgb(0, 0, 0)" stroke="rgb(204, 204, 204)" stroke-width="1px"></line><line x1="50" y1="72.30721875000002" x2="45" y2="72.30721875000002" style="visibility: inherit;" fill="rgb(0, 0, 0)" stroke="rgb(204, 204, 204)" stroke-width="1px"></line><line x1="50" y1="44.49674999999998" x2="45" y2="44.49674999999998" style="visibility: inherit;" fill="rgb(0, 0, 0)" stroke="rgb(204, 204, 204)" stroke-width="1px"></line><line x1="50" y1="16.686281250000018" x2="45" y2="16.686281250000018" style="visibility: inherit;" fill="rgb(0, 0, 0)" stroke="rgb(204, 204, 204)" stroke-width="1px"></line></g><g transform="translate(40, 0)"><text x="0" y="155.73862500000004" dx="0em" dy="0.3em" style="text-anchor: end; visibility: inherit; font-family: Roboto, sans-serif; font-size: 12px; font-weight: 200;" fill="rgb(50, 49, 63)" stroke="none" stroke-width="1px">0.6</text><text x="0" y="127.92815625" dx="0em" dy="0.3em" style="text-anchor: end; visibility: inherit; font-family: Roboto, sans-serif; font-size: 12px; font-weight: 200;" fill="rgb(50, 49, 63)" stroke="none" stroke-width="1px">0.65</text><text x="0" y="100.11768750000003" dx="0em" dy="0.3em" style="text-anchor: end; visibility: inherit; font-family: Roboto, sans-serif; font-size: 12px; font-weight: 200;" fill="rgb(50, 49, 63)" stroke="none" stroke-width="1px">0.7</text><text x="0" y="72.30721875000002" dx="0em" dy="0.3em" style="text-anchor: end; visibility: inherit; font-family: Roboto, sans-serif; font-size: 12px; font-weight: 200;" fill="rgb(50, 49, 63)" stroke="none" stroke-width="1px">0.75</text><text x="0" y="44.49674999999998" dx="0em" dy="0.3em" style="text-anchor: end; visibility: inherit; font-family: Roboto, sans-serif; font-size: 12px; font-weight: 200;" fill="rgb(50, 49, 63)" stroke="none" stroke-width="1px">0.8</text><text x="0" y="16.686281250000018" dx="0em" dy="0.3em" style="text-anchor: end; visibility: inherit; font-family: Roboto, sans-serif; font-size: 12px; font-weight: 200;" fill="rgb(50, 49, 63)" stroke="none" stroke-width="1px">0.85</text></g><line x1="50" y1="0" x2="50" y2="177.987" fill="rgb(0, 0, 0)" stroke="rgb(204, 204, 204)" stroke-width="1px"></line></g></g><g transform="translate(50, 0)" clip-path="url(#clip_0)"><clipPath id="clip_0"><rect width="279" height="177"></rect></clipPath><g><g><g><line x1="0" y1="0" x2="0" y2="177.987" fill="rgb(0, 0, 0)" stroke="rgb(60, 60, 60)" stroke-width="1px" opacity="0.25"></line><line x1="23.332250000000002" y1="0" x2="23.332250000000002" y2="177.987" fill="rgb(0, 0, 0)" stroke="rgb(60, 60, 60)" stroke-width="1px" opacity="0.25"></line><line x1="46.664500000000004" y1="0" x2="46.664500000000004" y2="177.987" fill="rgb(0, 0, 0)" stroke="rgb(60, 60, 60)" stroke-width="1px" opacity="0.25"></line><line x1="69.99675" y1="0" x2="69.99675" y2="177.987" fill="rgb(0, 0, 0)" stroke="rgb(60, 60, 60)" stroke-width="1px" opacity="0.25"></line><line x1="93.32900000000001" y1="0" x2="93.32900000000001" y2="177.987" fill="rgb(0, 0, 0)" stroke="rgb(60, 60, 60)" stroke-width="1px" opacity="0.25"></line><line x1="116.66125000000001" y1="0" x2="116.66125000000001" y2="177.987" fill="rgb(0, 0, 0)" stroke="rgb(60, 60, 60)" stroke-width="1px" opacity="0.25"></line><line x1="139.9935" y1="0" x2="139.9935" y2="177.987" fill="rgb(0, 0, 0)" stroke="rgb(60, 60, 60)" stroke-width="1px" opacity="0.25"></line><line x1="163.32575000000003" y1="0" x2="163.32575000000003" y2="177.987" fill="rgb(0, 0, 0)" stroke="rgb(60, 60, 60)" stroke-width="1px" opacity="0.25"></line><line x1="186.65800000000002" y1="0" x2="186.65800000000002" y2="177.987" fill="rgb(0, 0, 0)" stroke="rgb(60, 60, 60)" stroke-width="1px" opacity="0.25"></line><line x1="209.99025" y1="0" x2="209.99025" y2="177.987" fill="rgb(0, 0, 0)" stroke="rgb(60, 60, 60)" stroke-width="1px" opacity="0.25"></line><line x1="233.32250000000002" y1="0" x2="233.32250000000002" y2="177.987" fill="rgb(0, 0, 0)" stroke="rgb(60, 60, 60)" stroke-width="1px" opacity="0.25"></line><line x1="256.65475000000004" y1="0" x2="256.65475000000004" y2="177.987" fill="rgb(0, 0, 0)" stroke="rgb(60, 60, 60)" stroke-width="1px" opacity="0.25"></line><line x1="279.987" y1="0" x2="279.987" y2="177.987" fill="rgb(0, 0, 0)" stroke="rgb(60, 60, 60)" stroke-width="1px" opacity="0.25"></line></g><g><line x1="0" y1="155.73862500000004" x2="279.987" y2="155.73862500000004" fill="rgb(0, 0, 0)" stroke="rgb(60, 60, 60)" stroke-width="1px" opacity="0.25"></line><line x1="0" y1="127.92815625" x2="279.987" y2="127.92815625" fill="rgb(0, 0, 0)" stroke="rgb(60, 60, 60)" stroke-width="1px" opacity="0.25"></line><line x1="0" y1="100.11768750000003" x2="279.987" y2="100.11768750000003" fill="rgb(0, 0, 0)" stroke="rgb(60, 60, 60)" stroke-width="1px" opacity="0.25"></line><line x1="0" y1="72.30721875000002" x2="279.987" y2="72.30721875000002" fill="rgb(0, 0, 0)" stroke="rgb(60, 60, 60)" stroke-width="1px" opacity="0.25"></line><line x1="0" y1="44.49674999999998" x2="279.987" y2="44.49674999999998" fill="rgb(0, 0, 0)" stroke="rgb(60, 60, 60)" stroke-width="1px" opacity="0.25"></line><line x1="0" y1="16.686281250000018" x2="279.987" y2="16.686281250000018" fill="rgb(0, 0, 0)" stroke="rgb(60, 60, 60)" stroke-width="1px" opacity="0.25"></line></g></g></g><g><g><line x1="0" y1="489.46425000000005" x2="279.987" y2="489.46425000000005" fill="rgb(0, 0, 0)" stroke="rgb(153, 153, 153)" stroke-width="1.5px"></line></g></g><g><g><line x1="23.332250000000002" y1="0" x2="23.332250000000002" y2="177.987" fill="rgb(0, 0, 0)" stroke="rgb(153, 153, 153)" stroke-width="1.5px"></line></g></g><g><g><g><g><g><path stroke="rgb(255, 112, 67)" stroke-width="2px" d="M23.332250000000002,191.2385487468839L27.998700000000003,140.37706047910453L32.665150000000004,125.23905762060733L37.3316,114.52514492440226L41.99805,108.52663483339549L46.664500000000004,103.77977035175266L51.33095,99.60757411698998L55.997400000000006,95.82110910712929L60.663850000000004,91.86931177078934L65.33030000000001,89.40537276211383L69.99675,87.37437436933817L74.6632,84.89465469344707L79.32965,84.0444878235385L83.9961,81.3364789156169L88.66255000000001,79.95888634248824L93.32900000000001,79.02209156620505L97.99545,78.11682497169079L102.6619,75.8181519841701L107.32835000000001,74.92863290420921L111.99480000000001,73.26761822178217L116.66125000000001,74.47991162109376L121.32770000000001,73.04718617069723L125.99415000000002,72.07107233702394L130.66060000000002,70.44155268370362L135.32705,68.60734849385175L139.9935,67.90673328320683L144.65995000000004,68.26885981260988L149.3264,68.84349490682783L153.99285000000003,67.80439101494106L158.6593,66.38741307909788L163.32575000000003,65.6316981438473L167.9922,66.07252909335496L172.65865000000002,63.04177901874485L177.32510000000002,63.69515168572964L181.99155000000002,64.12026827334614L186.65800000000002,62.44350607636573L191.32445,63.12051659151169L195.9909,61.95543258319797L200.65735,62.38051601815226L205.3238,61.68779114111515L209.99025,62.41990138086678L214.65670000000003,60.25506569071861L219.32315000000003,61.01867095957698L223.98960000000002,58.948320356749015L228.65605000000002,58.13747254423054L233.32250000000002,58.90893499403449L237.98895000000002,59.33405158165099L242.65540000000001,58.90893499403449L247.32185,59.99528142958136L251.98830000000004,58.75938333477082" style="fill: none;" fill="none"></path></g><g><path stroke="rgb(204, 51, 17)" stroke-width="2px" d="M23.332250000000002,185.18888409807536L27.998700000000003,126.09635231289269L32.665150000000004,107.0388428110555L37.3316,94.92131270188095L41.99805,86.54923775940391L46.664500000000004,80.17573790605368L51.33095,74.10124191324415L55.997400000000006,68.63261082246156L60.663850000000004,64.06888164690884L65.33030000000001,62.282748817272505L69.99675,58.875682873830215L74.6632,55.80693984831871L79.32965,53.10019074156137L83.9961,50.95995432677867L88.66255000000001,48.76461818739028L93.32900000000001,47.537140868783L97.99545,45.900493393085895L102.6619,43.870423274852335L107.32835000000001,42.021300387002526L111.99480000000001,42.25738049465418L116.66125000000001,40.187958166368304L121.32770000000001,40.0227252978757L125.99415000000002,38.606377262614664L130.66060000000002,37.087753264412285L135.32705,36.757287527427074L139.9935,35.844528431251646L144.65995000000004,34.04264808706194L149.3264,33.72789671196789L153.99285000000003,34.05839560161531L158.6593,32.146348960876466L163.32575000000003,32.767961377456785L167.9922,32.48467187880725L172.65865000000002,31.170632959149778L177.32510000000002,30.84016722216457L181.99155000000002,29.667756475500763L186.65800000000002,29.282191013909877L191.32445,29.51823796889931L195.9909,28.086175571747123L200.65735,28.503202909782527L205.3238,27.503915365219115L209.99025,27.448815640613436L214.65670000000003,26.221338322006165L219.32315000000003,25.788563469417394L223.98960000000002,26.850841072194278L228.65605000000002,25.85937755591422L233.32250000000002,24.041749697171152L237.98895000000002,24.98600382245332L242.65540000000001,24.600438360862434L247.32185,24.63190023730695L251.98830000000004,23.774240865737198" style="fill: none;" fill="none"></path></g><g><path stroke="rgb(238, 51, 119)" stroke-width="2px" d="M27.998700000000003,193.07315076868238L32.665150000000004,169.9633250586614L37.3316,155.80001046936215L41.99805,146.18467754106226L46.664500000000004,139.25252217668296L51.33095,132.50920437629523L55.997400000000006,127.16648709661516L60.663850000000004,122.8624095715508L65.33030000000001,118.93600717446955L69.99675,115.82794509156795L74.6632,112.7828399142176L79.32965,109.78494412786515L83.9961,106.3228116124794L88.66255000000001,104.06451856753976L93.32900000000001,102.38066170084478L97.99545,100.13029214217515L102.6619,97.13236320316048L107.32835000000001,95.88913836999984L111.99480000000001,93.59941660127791L116.66125000000001,92.5135674556643L121.32770000000001,89.91695149279387L125.99415000000002,89.4841766402051L130.66060000000002,87.46196370291712L135.32705,85.80171153172107L139.9935,84.14145936052503L144.65995000000004,82.74085883981736L149.3264,81.18291578422489L153.99285000000003,80.15999039150032L158.6593,79.50691609847547L163.32575000000003,78.24794375076146L167.9922,77.90958768016847L172.65865000000002,75.83230817093703L177.32510000000002,75.22644326891007L181.99155000000002,73.81009523364904L186.65800000000002,73.31439662817122L191.32445,72.25215217805656L195.9909,71.44166904482248L200.65735,70.78073757085205L205.3238,69.69488842523845L209.99025,68.18412160798164L214.65670000000003,68.47526828757675L219.32315000000003,67.0667774332613L223.98960000000002,66.39009844473752L228.65605000000002,65.43802029117198L233.32250000000002,64.0846291614622L237.98895000000002,64.06102446596326L242.65540000000001,63.94300098846855L247.32185,62.85715184285493L251.98830000000004,61.96014026123287" style="fill: none;" fill="none"></path></g></g></g></g></g></g><g transform="translate(50, 177)" clip-path="url(#clip_1)"><clipPath id="clip_1"><rect width="279" height="21"></rect></clipPath><g><g><line x1="0" y1="0" x2="0" y2="5" style="visibility: inherit;" fill="rgb(0, 0, 0)" stroke="rgb(204, 204, 204)" stroke-width="1px"></line><line x1="23.332250000000002" y1="0" x2="23.332250000000002" y2="5" style="visibility: inherit;" fill="rgb(0, 0, 0)" stroke="rgb(204, 204, 204)" stroke-width="1px"></line><line x1="46.664500000000004" y1="0" x2="46.664500000000004" y2="5" style="visibility: inherit;" fill="rgb(0, 0, 0)" stroke="rgb(204, 204, 204)" stroke-width="1px"></line><line x1="69.99675" y1="0" x2="69.99675" y2="5" style="visibility: inherit;" fill="rgb(0, 0, 0)" stroke="rgb(204, 204, 204)" stroke-width="1px"></line><line x1="93.32900000000001" y1="0" x2="93.32900000000001" y2="5" style="visibility: inherit;" fill="rgb(0, 0, 0)" stroke="rgb(204, 204, 204)" stroke-width="1px"></line><line x1="116.66125000000001" y1="0" x2="116.66125000000001" y2="5" style="visibility: inherit;" fill="rgb(0, 0, 0)" stroke="rgb(204, 204, 204)" stroke-width="1px"></line><line x1="139.9935" y1="0" x2="139.9935" y2="5" style="visibility: inherit;" fill="rgb(0, 0, 0)" stroke="rgb(204, 204, 204)" stroke-width="1px"></line><line x1="163.32575000000003" y1="0" x2="163.32575000000003" y2="5" style="visibility: inherit;" fill="rgb(0, 0, 0)" stroke="rgb(204, 204, 204)" stroke-width="1px"></line><line x1="186.65800000000002" y1="0" x2="186.65800000000002" y2="5" style="visibility: inherit;" fill="rgb(0, 0, 0)" stroke="rgb(204, 204, 204)" stroke-width="1px"></line><line x1="209.99025" y1="0" x2="209.99025" y2="5" style="visibility: inherit;" fill="rgb(0, 0, 0)" stroke="rgb(204, 204, 204)" stroke-width="1px"></line><line x1="233.32250000000002" y1="0" x2="233.32250000000002" y2="5" style="visibility: inherit;" fill="rgb(0, 0, 0)" stroke="rgb(204, 204, 204)" stroke-width="1px"></line><line x1="256.65475000000004" y1="0" x2="256.65475000000004" y2="5" style="visibility: inherit;" fill="rgb(0, 0, 0)" stroke="rgb(204, 204, 204)" stroke-width="1px"></line><line x1="279.987" y1="0" x2="279.987" y2="5" style="visibility: inherit;" fill="rgb(0, 0, 0)" stroke="rgb(204, 204, 204)" stroke-width="1px"></line></g><g transform="translate(0, 8)"><text x="0" y="0" dx="0em" dy="0.95em" style="text-anchor: middle; visibility: hidden; font-family: Roboto, sans-serif; font-size: 12px; font-weight: 200;" fill="rgb(50, 49, 63)" stroke="none" stroke-width="1px">-5</text><text x="23.332250000000002" y="0" dx="0em" dy="0.95em" style="text-anchor: middle; visibility: inherit; font-family: Roboto, sans-serif; font-size: 12px; font-weight: 200;" fill="rgb(50, 49, 63)" stroke="none" stroke-width="1px">0</text><text x="46.664500000000004" y="0" dx="0em" dy="0.95em" style="text-anchor: middle; visibility: inherit; font-family: Roboto, sans-serif; font-size: 12px; font-weight: 200;" fill="rgb(50, 49, 63)" stroke="none" stroke-width="1px">5</text><text x="69.99675" y="0" dx="0em" dy="0.95em" style="text-anchor: middle; visibility: inherit; font-family: Roboto, sans-serif; font-size: 12px; font-weight: 200;" fill="rgb(50, 49, 63)" stroke="none" stroke-width="1px">10</text><text x="93.32900000000001" y="0" dx="0em" dy="0.95em" style="text-anchor: middle; visibility: inherit; font-family: Roboto, sans-serif; font-size: 12px; font-weight: 200;" fill="rgb(50, 49, 63)" stroke="none" stroke-width="1px">15</text><text x="116.66125000000001" y="0" dx="0em" dy="0.95em" style="text-anchor: middle; visibility: inherit; font-family: Roboto, sans-serif; font-size: 12px; font-weight: 200;" fill="rgb(50, 49, 63)" stroke="none" stroke-width="1px">20</text><text x="139.9935" y="0" dx="0em" dy="0.95em" style="text-anchor: middle; visibility: inherit; font-family: Roboto, sans-serif; font-size: 12px; font-weight: 200;" fill="rgb(50, 49, 63)" stroke="none" stroke-width="1px">25</text><text x="163.32575000000003" y="0" dx="0em" dy="0.95em" style="text-anchor: middle; visibility: inherit; font-family: Roboto, sans-serif; font-size: 12px; font-weight: 200;" fill="rgb(50, 49, 63)" stroke="none" stroke-width="1px">30</text><text x="186.65800000000002" y="0" dx="0em" dy="0.95em" style="text-anchor: middle; visibility: inherit; font-family: Roboto, sans-serif; font-size: 12px; font-weight: 200;" fill="rgb(50, 49, 63)" stroke="none" stroke-width="1px">35</text><text x="209.99025" y="0" dx="0em" dy="0.95em" style="text-anchor: middle; visibility: inherit; font-family: Roboto, sans-serif; font-size: 12px; font-weight: 200;" fill="rgb(50, 49, 63)" stroke="none" stroke-width="1px">40</text><text x="233.32250000000002" y="0" dx="0em" dy="0.95em" style="text-anchor: middle; visibility: inherit; font-family: Roboto, sans-serif; font-size: 12px; font-weight: 200;" fill="rgb(50, 49, 63)" stroke="none" stroke-width="1px">45</text><text x="256.65475000000004" y="0" dx="0em" dy="0.95em" style="text-anchor: middle; visibility: inherit; font-family: Roboto, sans-serif; font-size: 12px; font-weight: 200;" fill="rgb(50, 49, 63)" stroke="none" stroke-width="1px">50</text><text x="279.987" y="0" dx="0em" dy="0.95em" style="text-anchor: middle; visibility: hidden; font-family: Roboto, sans-serif; font-size: 12px; font-weight: 200;" fill="rgb(50, 49, 63)" stroke="none" stroke-width="1px">55</text></g><line x1="0" y1="0" x2="279.987" y2="0" fill="rgb(0, 0, 0)" stroke="rgb(204, 204, 204)" stroke-width="1px"></line></g></g></g></g></svg>