<svg viewBox="0 0 329.98699951171875 199.9865264892578" xmlns="http://www.w3.org/2000/svg"><g><g><g><g><g><line x1="40" y1="177.987" x2="35" y2="177.987" style="visibility: inherit;" fill="rgb(0, 0, 0)" stroke="rgb(204, 204, 204)" stroke-width="1px"></line><line x1="40" y1="164.2956923076923" x2="35" y2="164.2956923076923" style="visibility: inherit;" fill="rgb(0, 0, 0)" stroke="rgb(204, 204, 204)" stroke-width="1px"></line><line x1="40" y1="150.60438461538462" x2="35" y2="150.60438461538462" style="visibility: inherit;" fill="rgb(0, 0, 0)" stroke="rgb(204, 204, 204)" stroke-width="1px"></line><line x1="40" y1="136.91307692307691" x2="35" y2="136.91307692307691" style="visibility: inherit;" fill="rgb(0, 0, 0)" stroke="rgb(204, 204, 204)" stroke-width="1px"></line><line x1="40" y1="123.22176923076923" x2="35" y2="123.22176923076923" style="visibility: inherit;" fill="rgb(0, 0, 0)" stroke="rgb(204, 204, 204)" stroke-width="1px"></line><line x1="40" y1="109.53046153846154" x2="35" y2="109.53046153846154" style="visibility: inherit;" fill="rgb(0, 0, 0)" stroke="rgb(204, 204, 204)" stroke-width="1px"></line><line x1="40" y1="95.83915384615383" x2="35" y2="95.83915384615383" style="visibility: inherit;" fill="rgb(0, 0, 0)" stroke="rgb(204, 204, 204)" stroke-width="1px"></line><line x1="40" y1="82.14784615384616" x2="35" y2="82.14784615384616" style="visibility: inherit;" fill="rgb(0, 0, 0)" stroke="rgb(204, 204, 204)" stroke-width="1px"></line><line x1="40" y1="68.45653846153846" x2="35" y2="68.45653846153846" style="visibility: inherit;" fill="rgb(0, 0, 0)" stroke="rgb(204, 204, 204)" stroke-width="1px"></line><line x1="40" y1="54.76523076923075" x2="35" y2="54.76523076923075" style="visibility: inherit;" fill="rgb(0, 0, 0)" stroke="rgb(204, 204, 204)" stroke-width="1px"></line><line x1="40" y1="41.07392307692309" x2="35" y2="41.07392307692309" style="visibility: inherit;" fill="rgb(0, 0, 0)" stroke="rgb(204, 204, 204)" stroke-width="1px"></line><line x1="40" y1="27.382615384615384" x2="35" y2="27.382615384615384" style="visibility: inherit;" fill="rgb(0, 0, 0)" stroke="rgb(204, 204, 204)" stroke-width="1px"></line><line x1="40" y1="13.691307692307703" x2="35" y2="13.691307692307703" style="visibility: inherit;" fill="rgb(0, 0, 0)" stroke="rgb(204, 204, 204)" stroke-width="1px"></line><line x1="40" y1="0" x2="35" y2="0" style="visibility: inherit;" fill="rgb(0, 0, 0)" stroke="rgb(204, 204, 204)" stroke-width="1px"></line></g><g transform="translate(30, 0)"><text x="0" y="177.987" dx="0em" dy="0.3em" style="text-anchor: end; visibility: hidden; font-family: Roboto, sans-serif; font-size: 12px; font-weight: 200;" fill="rgb(50, 49, 63)" stroke="none" stroke-width="1px">0.7</text><text x="0" y="164.2956923076923" dx="0em" dy="0.3em" style="text-anchor: end; visibility: inherit; font-family: Roboto, sans-serif; font-size: 12px; font-weight: 200;" fill="rgb(50, 49, 63)" stroke="none" stroke-width="1px">0.8</text><text x="0" y="150.60438461538462" dx="0em" dy="0.3em" style="text-anchor: end; visibility: hidden; font-family: Roboto, sans-serif; font-size: 12px; font-weight: 200;" fill="rgb(50, 49, 63)" stroke="none" stroke-width="1px">0.9</text><text x="0" y="136.91307692307691" dx="0em" dy="0.3em" style="text-anchor: end; visibility: inherit; font-family: Roboto, sans-serif; font-size: 12px; font-weight: 200;" fill="rgb(50, 49, 63)" stroke="none" stroke-width="1px">1</text><text x="0" y="123.22176923076923" dx="0em" dy="0.3em" style="text-anchor: end; visibility: hidden; font-family: Roboto, sans-serif; font-size: 12px; font-weight: 200;" fill="rgb(50, 49, 63)" stroke="none" stroke-width="1px">1.1</text><text x="0" y="109.53046153846154" dx="0em" dy="0.3em" style="text-anchor: end; visibility: inherit; font-family: Roboto, sans-serif; font-size: 12px; font-weight: 200;" fill="rgb(50, 49, 63)" stroke="none" stroke-width="1px">1.2</text><text x="0" y="95.83915384615383" dx="0em" dy="0.3em" style="text-anchor: end; visibility: hidden; font-family: Roboto, sans-serif; font-size: 12px; font-weight: 200;" fill="rgb(50, 49, 63)" stroke="none" stroke-width="1px">1.3</text><text x="0" y="82.14784615384616" dx="0em" dy="0.3em" style="text-anchor: end; visibility: inherit; font-family: Roboto, sans-serif; font-size: 12px; font-weight: 200;" fill="rgb(50, 49, 63)" stroke="none" stroke-width="1px">1.4</text><text x="0" y="68.45653846153846" dx="0em" dy="0.3em" style="text-anchor: end; visibility: hidden; font-family: Roboto, sans-serif; font-size: 12px; font-weight: 200;" fill="rgb(50, 49, 63)" stroke="none" stroke-width="1px">1.5</text><text x="0" y="54.76523076923075" dx="0em" dy="0.3em" style="text-anchor: end; visibility: inherit; font-family: Roboto, sans-serif; font-size: 12px; font-weight: 200;" fill="rgb(50, 49, 63)" stroke="none" stroke-width="1px">1.6</text><text x="0" y="41.07392307692309" dx="0em" dy="0.3em" style="text-anchor: end; visibility: hidden; font-family: Roboto, sans-serif; font-size: 12px; font-weight: 200;" fill="rgb(50, 49, 63)" stroke="none" stroke-width="1px">1.7</text><text x="0" y="27.382615384615384" dx="0em" dy="0.3em" style="text-anchor: end; visibility: inherit; font-family: Roboto, sans-serif; font-size: 12px; font-weight: 200;" fill="rgb(50, 49, 63)" stroke="none" stroke-width="1px">1.8</text><text x="0" y="13.691307692307703" dx="0em" dy="0.3em" style="text-anchor: end; visibility: hidden; font-family: Roboto, sans-serif; font-size: 12px; font-weight: 200;" fill="rgb(50, 49, 63)" stroke="none" stroke-width="1px">1.9</text><text x="0" y="0" dx="0em" dy="0.3em" style="text-anchor: end; visibility: hidden; font-family: Roboto, sans-serif; font-size: 12px; font-weight: 200;" fill="rgb(50, 49, 63)" stroke="none" stroke-width="1px">2</text></g><line x1="40" y1="0" x2="40" y2="177.987" fill="rgb(0, 0, 0)" stroke="rgb(204, 204, 204)" stroke-width="1px"></line></g></g><g transform="translate(40, 0)" clip-path="url(#clip_0)"><clipPath id="clip_0"><rect width="289" height="177"></rect></clipPath><g><g><g><line x1="0" y1="0" x2="0" y2="177.987" fill="rgb(0, 0, 0)" stroke="rgb(60, 60, 60)" stroke-width="1px" opacity="0.25"></line><line x1="24.165583333333334" y1="0" x2="24.165583333333334" y2="177.987" fill="rgb(0, 0, 0)" stroke="rgb(60, 60, 60)" stroke-width="1px" opacity="0.25"></line><line x1="48.33116666666667" y1="0" x2="48.33116666666667" y2="177.987" fill="rgb(0, 0, 0)" stroke="rgb(60, 60, 60)" stroke-width="1px" opacity="0.25"></line><line x1="72.49675" y1="0" x2="72.49675" y2="177.987" fill="rgb(0, 0, 0)" stroke="rgb(60, 60, 60)" stroke-width="1px" opacity="0.25"></line><line x1="96.66233333333334" y1="0" x2="96.66233333333334" y2="177.987" fill="rgb(0, 0, 0)" stroke="rgb(60, 60, 60)" stroke-width="1px" opacity="0.25"></line><line x1="120.82791666666668" y1="0" x2="120.82791666666668" y2="177.987" fill="rgb(0, 0, 0)" stroke="rgb(60, 60, 60)" stroke-width="1px" opacity="0.25"></line><line x1="144.9935" y1="0" x2="144.9935" y2="177.987" fill="rgb(0, 0, 0)" stroke="rgb(60, 60, 60)" stroke-width="1px" opacity="0.25"></line><line x1="169.15908333333337" y1="0" x2="169.15908333333337" y2="177.987" fill="rgb(0, 0, 0)" stroke="rgb(60, 60, 60)" stroke-width="1px" opacity="0.25"></line><line x1="193.32466666666667" y1="0" x2="193.32466666666667" y2="177.987" fill="rgb(0, 0, 0)" stroke="rgb(60, 60, 60)" stroke-width="1px" opacity="0.25"></line><line x1="217.49025" y1="0" x2="217.49025" y2="177.987" fill="rgb(0, 0, 0)" stroke="rgb(60, 60, 60)" stroke-width="1px" opacity="0.25"></line><line x1="241.65583333333336" y1="0" x2="241.65583333333336" y2="177.987" fill="rgb(0, 0, 0)" stroke="rgb(60, 60, 60)" stroke-width="1px" opacity="0.25"></line><line x1="265.82141666666666" y1="0" x2="265.82141666666666" y2="177.987" fill="rgb(0, 0, 0)" stroke="rgb(60, 60, 60)" stroke-width="1px" opacity="0.25"></line><line x1="289.987" y1="0" x2="289.987" y2="177.987" fill="rgb(0, 0, 0)" stroke="rgb(60, 60, 60)" stroke-width="1px" opacity="0.25"></line></g><g><line x1="0" y1="177.987" x2="289.987" y2="177.987" fill="rgb(0, 0, 0)" stroke="rgb(60, 60, 60)" stroke-width="1px" opacity="0.25"></line><line x1="0" y1="164.2956923076923" x2="289.987" y2="164.2956923076923" fill="rgb(0, 0, 0)" stroke="rgb(60, 60, 60)" stroke-width="1px" opacity="0.25"></line><line x1="0" y1="150.60438461538462" x2="289.987" y2="150.60438461538462" fill="rgb(0, 0, 0)" stroke="rgb(60, 60, 60)" stroke-width="1px" opacity="0.25"></line><line x1="0" y1="136.91307692307691" x2="289.987" y2="136.91307692307691" fill="rgb(0, 0, 0)" stroke="rgb(60, 60, 60)" stroke-width="1px" opacity="0.25"></line><line x1="0" y1="123.22176923076923" x2="289.987" y2="123.22176923076923" fill="rgb(0, 0, 0)" stroke="rgb(60, 60, 60)" stroke-width="1px" opacity="0.25"></line><line x1="0" y1="109.53046153846154" x2="289.987" y2="109.53046153846154" fill="rgb(0, 0, 0)" stroke="rgb(60, 60, 60)" stroke-width="1px" opacity="0.25"></line><line x1="0" y1="95.83915384615383" x2="289.987" y2="95.83915384615383" fill="rgb(0, 0, 0)" stroke="rgb(60, 60, 60)" stroke-width="1px" opacity="0.25"></line><line x1="0" y1="82.14784615384616" x2="289.987" y2="82.14784615384616" fill="rgb(0, 0, 0)" stroke="rgb(60, 60, 60)" stroke-width="1px" opacity="0.25"></line><line x1="0" y1="68.45653846153846" x2="289.987" y2="68.45653846153846" fill="rgb(0, 0, 0)" stroke="rgb(60, 60, 60)" stroke-width="1px" opacity="0.25"></line><line x1="0" y1="54.76523076923075" x2="289.987" y2="54.76523076923075" fill="rgb(0, 0, 0)" stroke="rgb(60, 60, 60)" stroke-width="1px" opacity="0.25"></line><line x1="0" y1="41.07392307692309" x2="289.987" y2="41.07392307692309" fill="rgb(0, 0, 0)" stroke="rgb(60, 60, 60)" stroke-width="1px" opacity="0.25"></line><line x1="0" y1="27.382615384615384" x2="289.987" y2="27.382615384615384" fill="rgb(0, 0, 0)" stroke="rgb(60, 60, 60)" stroke-width="1px" opacity="0.25"></line><line x1="0" y1="13.691307692307703" x2="289.987" y2="13.691307692307703" fill="rgb(0, 0, 0)" stroke="rgb(60, 60, 60)" stroke-width="1px" opacity="0.25"></line><line x1="0" y1="0" x2="289.987" y2="0" fill="rgb(0, 0, 0)" stroke="rgb(60, 60, 60)" stroke-width="1px" opacity="0.25"></line></g></g></g><g><g><line x1="0" y1="273.82615384615383" x2="289.987" y2="273.82615384615383" fill="rgb(0, 0, 0)" stroke="rgb(153, 153, 153)" stroke-width="1.5px"></line></g></g><g><g><line x1="24.165583333333334" y1="0" x2="24.165583333333334" y2="177.987" fill="rgb(0, 0, 0)" stroke="rgb(153, 153, 153)" stroke-width="1.5px"></line></g></g><g><g><g><g><g><path stroke="rgb(0, 119, 187)" stroke-width="2px" d="M28.998700000000003,-11.668007041674402L33.83181666666667,20.733417890255275L38.66493333333334,38.86126910888232L43.49805,50.61597495262439L48.33116666666667,58.9949277974092L53.16428333333334,65.28594433720295L57.997400000000006,70.26200184345245L62.830516666666675,74.34933134326567L67.66363333333334,77.74416395434966L72.49675,80.59221633801093L77.32986666666667,83.1173679121641L82.16298333333334,85.28198173449589L86.9961,87.21551844092515L91.82921666666667,88.92052415591019L96.66233333333334,90.4175800521557L101.49545,91.81520652404198L106.32856666666667,93.02347314999655L111.16168333333334,94.15620475035446L115.99480000000001,95.19308129338117L120.82791666666668,96.15363938790101L125.66103333333335,97.02536058866059L130.49415000000002,97.86683840082243L135.32726666666667,98.61169405405337L140.16038333333336,99.29524686455726L144.9935,99.92960724482168L149.8266166666667,100.54031804598294L154.65973333333335,101.10244030539805L159.49285000000003,101.63915028416191L164.3259666666667,102.12750021952847L169.15908333333337,102.53071819864785L173.9922,103.03483452008321L178.82531666666668,103.40826610730245L183.65843333333333,103.80271954261337L188.49155000000002,104.16462828452771L193.32466666666667,104.49910090327262L198.15778333333336,104.75550869327324L202.9909,105.08488906310156L207.8240166666667,105.3126855955674L212.65713333333335,105.63615765094757L217.49025,105.84701266297927L222.3233666666667,106.10328988249485L227.15648333333334,106.31022777997529L231.98960000000002,106.50913559262568L236.82271666666668,106.71538799505966L241.65583333333336,106.92054686968143L246.48895000000002,107.06706327520882L251.3220666666667,107.21656648058156L256.15518333333335,107.40331491681245L260.98830000000004,107.48082482099532" style="fill: none;" fill="none"></path></g><g><path stroke="rgb(255, 112, 67)" stroke-width="2px" d="M28.998700000000003,-47.11381340283613L33.83181666666667,4.2548187895004475L38.66493333333334,30.150993658304213L43.49805,46.28689419975648L48.33116666666667,57.70175771355629L53.16428333333334,66.34882072806359L57.997400000000006,72.98348246317643L62.830516666666675,78.78854830026626L67.66363333333334,83.75941562973536L72.49675,88.16940111939724L77.32986666666667,92.3000800202443L82.16298333333334,95.16760372748742L86.9961,98.55004846380308L91.82921666666667,101.25359196314444L96.66233333333334,103.97628035985505L101.49545,106.53789374195611L106.32856666666667,108.18024194543177L111.16168333333334,110.26530569975192L115.99480000000001,112.64118256688117L120.82791666666668,114.01954989222378L125.66103333333335,116.03753305985376L130.49415000000002,117.71374798288713L135.32726666666667,118.78987727797947L140.16038333333336,120.71900723053858L144.9935,122.08335455004985L149.8266166666667,123.55243571987519L154.65973333333335,125.26080362485006L159.49285000000003,126.31997507819761L164.3259666666667,127.69008382036134L169.15908333333337,128.49699309660838L173.9922,130.13894958862892L178.82531666666668,130.79175304990548L183.65843333333333,131.78359909690343L188.49155000000002,132.948124610369L193.32466666666667,134.00829166366503L198.15778333333336,134.9260879243337L202.9909,136.1519815657689L207.8240166666667,136.89608643871085L212.65713333333335,137.62555925667286L217.49025,138.22883570084204L222.3233666666667,139.51033604759434L227.15648333333334,140.20475885097795L231.98960000000002,140.97292133578887L236.82271666666668,141.97007180874164L241.65583333333336,142.6497319866602L246.48895000000002,142.94947285638403L251.3220666666667,144.1964699524641L256.15518333333335,145.19189852714538L260.98830000000004,145.41834039082894" style="fill: none;" fill="none"></path></g><g><path stroke="rgb(51, 187, 238)" stroke-width="2px" d="M24.165583333333334,-42.24859391707639L28.998700000000003,18.81687166819205L33.83181666666667,43.54160078782302L38.66493333333334,57.417571052863046L43.49805,66.47061034798622L48.33116666666667,72.96355414289692L53.16428333333334,77.92564060724698L57.997400000000006,81.83007350013806L62.830516666666675,85.06518576539479L67.66363333333334,87.76370230106207L72.49675,89.9854896745315L77.32986666666667,91.94626664840256L82.16298333333334,93.62145332886621L86.9961,95.15554227893169L91.82921666666667,96.48631666247661L96.66233333333334,97.68020421376596L101.49545,98.76410245271829L106.32856666666667,99.63002958820417L111.16168333333334,100.53950198045143L115.99480000000001,101.31698393363217L120.82791666666668,101.9731006209667L125.66103333333335,102.69677121299962L130.49415000000002,103.23566824738795L135.32726666666667,103.80458017202524L140.16038333333336,104.28514484222119L144.9935,104.69172501133039L149.8266166666667,105.10181426222508L154.65973333333335,105.4583369716314L159.49285000000003,105.82194312985126L164.3259666666667,106.1594025484415L169.15908333333337,106.44079826501698L173.9922,106.75767651090254L178.82531666666668,106.94520837004369L183.65843333333333,107.24708733146007L188.49155000000002,107.47338230334793L193.32466666666667,107.64362989453167L198.15778333333336,107.78356881187513L202.9909,107.98967432251344L207.8240166666667,108.13086998077539L212.65713333333335,108.28923565782033L217.49025,108.40506799936294L222.3233666666667,108.49754454539372L227.15648333333334,108.60609758239525L231.98960000000002,108.67990254906505L236.82271666666668,108.78641542223781L241.65583333333336,108.8142758994836L246.48895000000002,108.85558513668865L251.3220666666667,108.97820714345346L256.15518333333335,108.99208025748914L260.98830000000004,109.04634861533458" style="fill: none;" fill="none"></path></g><g><path stroke="rgb(204, 51, 17)" stroke-width="2px" d="M28.998700000000003,-9.505596596277659L33.83181666666667,31.59412394422752L38.66493333333334,52.3538681085293L43.49805,65.51592792529327L48.33116666666667,75.08491649205868L53.16428333333334,82.24068503297292L57.997400000000006,88.5916334254008L62.830516666666675,93.81704791545867L67.66363333333334,98.2751975927903L72.49675,101.96962418180244L77.32986666666667,105.50145787431643L82.16298333333334,108.84876282884524L86.9961,111.26534504468624L91.82921666666667,114.09825125208268L96.66233333333334,116.32870524149673L101.49545,118.57397898096303L106.32856666666667,120.99121404922924L111.16168333333334,122.92359194260376L115.99480000000001,124.49125382863556L120.82791666666668,126.4839226434781L125.66103333333335,128.1199218571186L130.49415000000002,129.64837995501665L135.32726666666667,131.5464341321358L140.16038333333336,132.72700349395092L144.9935,134.22022388219833L149.8266166666667,135.5233173229144L154.65973333333335,136.58904994313534L159.49285000000003,137.8306038821202L164.3259666666667,139.38093253626272L169.15908333333337,139.99475254709904L173.9922,141.4415877705354L178.82531666666668,142.47455535966614L183.65843333333333,143.27403027892112L188.49155000000002,144.47223481687215L193.32466666666667,145.14768409664813L198.15778333333336,146.46050503849983L202.9909,147.01846536370422L207.8240166666667,148.0380494781182L212.65713333333335,149.05427956319772L217.49025,149.7559327071905L222.3233666666667,150.64704362497878L227.15648333333334,151.16499225717322L231.98960000000002,152.5256672817927L236.82271666666668,152.5680292435334L241.65583333333336,153.2309437567454L246.48895000000002,154.4891535932284L251.3220666666667,154.85644836765067L256.15518333333335,155.51083499605838L260.98830000000004,156.10763187990736" style="fill: none;" fill="none"></path></g></g></g></g></g></g><g transform="translate(40, 177)" clip-path="url(#clip_1)"><clipPath id="clip_1"><rect width="289" height="21"></rect></clipPath><g><g><line x1="0" y1="0" x2="0" y2="5" style="visibility: inherit;" fill="rgb(0, 0, 0)" stroke="rgb(204, 204, 204)" stroke-width="1px"></line><line x1="24.165583333333334" y1="0" x2="24.165583333333334" y2="5" style="visibility: inherit;" fill="rgb(0, 0, 0)" stroke="rgb(204, 204, 204)" stroke-width="1px"></line><line x1="48.33116666666667" y1="0" x2="48.33116666666667" y2="5" style="visibility: inherit;" fill="rgb(0, 0, 0)" stroke="rgb(204, 204, 204)" stroke-width="1px"></line><line x1="72.49675" y1="0" x2="72.49675" y2="5" style="visibility: inherit;" fill="rgb(0, 0, 0)" stroke="rgb(204, 204, 204)" stroke-width="1px"></line><line x1="96.66233333333334" y1="0" x2="96.66233333333334" y2="5" style="visibility: inherit;" fill="rgb(0, 0, 0)" stroke="rgb(204, 204, 204)" stroke-width="1px"></line><line x1="120.82791666666668" y1="0" x2="120.82791666666668" y2="5" style="visibility: inherit;" fill="rgb(0, 0, 0)" stroke="rgb(204, 204, 204)" stroke-width="1px"></line><line x1="144.9935" y1="0" x2="144.9935" y2="5" style="visibility: inherit;" fill="rgb(0, 0, 0)" stroke="rgb(204, 204, 204)" stroke-width="1px"></line><line x1="169.15908333333337" y1="0" x2="169.15908333333337" y2="5" style="visibility: inherit;" fill="rgb(0, 0, 0)" stroke="rgb(204, 204, 204)" stroke-width="1px"></line><line x1="193.32466666666667" y1="0" x2="193.32466666666667" y2="5" style="visibility: inherit;" fill="rgb(0, 0, 0)" stroke="rgb(204, 204, 204)" stroke-width="1px"></line><line x1="217.49025" y1="0" x2="217.49025" y2="5" style="visibility: inherit;" fill="rgb(0, 0, 0)" stroke="rgb(204, 204, 204)" stroke-width="1px"></line><line x1="241.65583333333336" y1="0" x2="241.65583333333336" y2="5" style="visibility: inherit;" fill="rgb(0, 0, 0)" stroke="rgb(204, 204, 204)" stroke-width="1px"></line><line x1="265.82141666666666" y1="0" x2="265.82141666666666" y2="5" style="visibility: inherit;" fill="rgb(0, 0, 0)" stroke="rgb(204, 204, 204)" stroke-width="1px"></line><line x1="289.987" y1="0" x2="289.987" y2="5" style="visibility: inherit;" fill="rgb(0, 0, 0)" stroke="rgb(204, 204, 204)" stroke-width="1px"></line></g><g transform="translate(0, 8)"><text x="0" y="0" dx="0em" dy="0.95em" style="text-anchor: middle; visibility: hidden; font-family: Roboto, sans-serif; font-size: 12px; font-weight: 200;" fill="rgb(50, 49, 63)" stroke="none" stroke-width="1px">-5</text><text x="24.165583333333334" y="0" dx="0em" dy="0.95em" style="text-anchor: middle; visibility: inherit; font-family: Roboto, sans-serif; font-size: 12px; font-weight: 200;" fill="rgb(50, 49, 63)" stroke="none" stroke-width="1px">0</text><text x="48.33116666666667" y="0" dx="0em" dy="0.95em" style="text-anchor: middle; visibility: inherit; font-family: Roboto, sans-serif; font-size: 12px; font-weight: 200;" fill="rgb(50, 49, 63)" stroke="none" stroke-width="1px">5</text><text x="72.49675" y="0" dx="0em" dy="0.95em" style="text-anchor: middle; visibility: inherit; font-family: Roboto, sans-serif; font-size: 12px; font-weight: 200;" fill="rgb(50, 49, 63)" stroke="none" stroke-width="1px">10</text><text x="96.66233333333334" y="0" dx="0em" dy="0.95em" style="text-anchor: middle; visibility: inherit; font-family: Roboto, sans-serif; font-size: 12px; font-weight: 200;" fill="rgb(50, 49, 63)" stroke="none" stroke-width="1px">15</text><text x="120.82791666666668" y="0" dx="0em" dy="0.95em" style="text-anchor: middle; visibility: inherit; font-family: Roboto, sans-serif; font-size: 12px; font-weight: 200;" fill="rgb(50, 49, 63)" stroke="none" stroke-width="1px">20</text><text x="144.9935" y="0" dx="0em" dy="0.95em" style="text-anchor: middle; visibility: inherit; font-family: Roboto, sans-serif; font-size: 12px; font-weight: 200;" fill="rgb(50, 49, 63)" stroke="none" stroke-width="1px">25</text><text x="169.15908333333337" y="0" dx="0em" dy="0.95em" style="text-anchor: middle; visibility: inherit; font-family: Roboto, sans-serif; font-size: 12px; font-weight: 200;" fill="rgb(50, 49, 63)" stroke="none" stroke-width="1px">30</text><text x="193.32466666666667" y="0" dx="0em" dy="0.95em" style="text-anchor: middle; visibility: inherit; font-family: Roboto, sans-serif; font-size: 12px; font-weight: 200;" fill="rgb(50, 49, 63)" stroke="none" stroke-width="1px">35</text><text x="217.49025" y="0" dx="0em" dy="0.95em" style="text-anchor: middle; visibility: inherit; font-family: Roboto, sans-serif; font-size: 12px; font-weight: 200;" fill="rgb(50, 49, 63)" stroke="none" stroke-width="1px">40</text><text x="241.65583333333336" y="0" dx="0em" dy="0.95em" style="text-anchor: middle; visibility: inherit; font-family: Roboto, sans-serif; font-size: 12px; font-weight: 200;" fill="rgb(50, 49, 63)" stroke="none" stroke-width="1px">45</text><text x="265.82141666666666" y="0" dx="0em" dy="0.95em" style="text-anchor: middle; visibility: inherit; font-family: Roboto, sans-serif; font-size: 12px; font-weight: 200;" fill="rgb(50, 49, 63)" stroke="none" stroke-width="1px">50</text><text x="289.987" y="0" dx="0em" dy="0.95em" style="text-anchor: middle; visibility: hidden; font-family: Roboto, sans-serif; font-size: 12px; font-weight: 200;" fill="rgb(50, 49, 63)" stroke="none" stroke-width="1px">55</text></g><line x1="0" y1="0" x2="289.987" y2="0" fill="rgb(0, 0, 0)" stroke="rgb(204, 204, 204)" stroke-width="1px"></line></g></g></g></g></svg>