<svg viewBox="0 0 329.98699951171875 199.9865264892578" xmlns="http://www.w3.org/2000/svg"><g><g><g><g><g><line x1="50" y1="177.987" x2="45" y2="177.987" style="visibility: inherit;" fill="rgb(0, 0, 0)" stroke="rgb(204, 204, 204)" stroke-width="1px"></line><line x1="50" y1="165.27364285714285" x2="45" y2="165.27364285714285" style="visibility: inherit;" fill="rgb(0, 0, 0)" stroke="rgb(204, 204, 204)" stroke-width="1px"></line><line x1="50" y1="152.56028571428567" x2="45" y2="152.56028571428567" style="visibility: inherit;" fill="rgb(0, 0, 0)" stroke="rgb(204, 204, 204)" stroke-width="1px"></line><line x1="50" y1="139.8469285714286" x2="45" y2="139.8469285714286" style="visibility: inherit;" fill="rgb(0, 0, 0)" stroke="rgb(204, 204, 204)" stroke-width="1px"></line><line x1="50" y1="127.13357142857144" x2="45" y2="127.13357142857144" style="visibility: inherit;" fill="rgb(0, 0, 0)" stroke="rgb(204, 204, 204)" stroke-width="1px"></line><line x1="50" y1="114.42021428571431" x2="45" y2="114.42021428571431" style="visibility: inherit;" fill="rgb(0, 0, 0)" stroke="rgb(204, 204, 204)" stroke-width="1px"></line><line x1="50" y1="101.70685714285716" x2="45" y2="101.70685714285716" style="visibility: inherit;" fill="rgb(0, 0, 0)" stroke="rgb(204, 204, 204)" stroke-width="1px"></line><line x1="50" y1="88.9935" x2="45" y2="88.9935" style="visibility: inherit;" fill="rgb(0, 0, 0)" stroke="rgb(204, 204, 204)" stroke-width="1px"></line><line x1="50" y1="76.28014285714283" x2="45" y2="76.28014285714283" style="visibility: inherit;" fill="rgb(0, 0, 0)" stroke="rgb(204, 204, 204)" stroke-width="1px"></line><line x1="50" y1="63.566785714285764" x2="45" y2="63.566785714285764" style="visibility: inherit;" fill="rgb(0, 0, 0)" stroke="rgb(204, 204, 204)" stroke-width="1px"></line><line x1="50" y1="50.85342857142861" x2="45" y2="50.85342857142861" style="visibility: inherit;" fill="rgb(0, 0, 0)" stroke="rgb(204, 204, 204)" stroke-width="1px"></line><line x1="50" y1="38.14007142857145" x2="45" y2="38.14007142857145" style="visibility: inherit;" fill="rgb(0, 0, 0)" stroke="rgb(204, 204, 204)" stroke-width="1px"></line><line x1="50" y1="25.426714285714315" x2="45" y2="25.426714285714315" style="visibility: inherit;" fill="rgb(0, 0, 0)" stroke="rgb(204, 204, 204)" stroke-width="1px"></line><line x1="50" y1="12.713357142857157" x2="45" y2="12.713357142857157" style="visibility: inherit;" fill="rgb(0, 0, 0)" stroke="rgb(204, 204, 204)" stroke-width="1px"></line><line x1="50" y1="0" x2="45" y2="0" style="visibility: inherit;" fill="rgb(0, 0, 0)" stroke="rgb(204, 204, 204)" stroke-width="1px"></line></g><g transform="translate(40, 0)"><text x="0" y="177.987" dx="0em" dy="0.3em" style="text-anchor: end; visibility: hidden; font-family: Roboto, sans-serif; font-size: 12px; font-weight: 200;" fill="rgb(50, 49, 63)" stroke="none" stroke-width="1px">0.52</text><text x="0" y="165.27364285714285" dx="0em" dy="0.3em" style="text-anchor: end; visibility: inherit; font-family: Roboto, sans-serif; font-size: 12px; font-weight: 200;" fill="rgb(50, 49, 63)" stroke="none" stroke-width="1px">0.54</text><text x="0" y="152.56028571428567" dx="0em" dy="0.3em" style="text-anchor: end; visibility: hidden; font-family: Roboto, sans-serif; font-size: 12px; font-weight: 200;" fill="rgb(50, 49, 63)" stroke="none" stroke-width="1px">0.56</text><text x="0" y="139.8469285714286" dx="0em" dy="0.3em" style="text-anchor: end; visibility: inherit; font-family: Roboto, sans-serif; font-size: 12px; font-weight: 200;" fill="rgb(50, 49, 63)" stroke="none" stroke-width="1px">0.58</text><text x="0" y="127.13357142857144" dx="0em" dy="0.3em" style="text-anchor: end; visibility: hidden; font-family: Roboto, sans-serif; font-size: 12px; font-weight: 200;" fill="rgb(50, 49, 63)" stroke="none" stroke-width="1px">0.6</text><text x="0" y="114.42021428571431" dx="0em" dy="0.3em" style="text-anchor: end; visibility: inherit; font-family: Roboto, sans-serif; font-size: 12px; font-weight: 200;" fill="rgb(50, 49, 63)" stroke="none" stroke-width="1px">0.62</text><text x="0" y="101.70685714285716" dx="0em" dy="0.3em" style="text-anchor: end; visibility: hidden; font-family: Roboto, sans-serif; font-size: 12px; font-weight: 200;" fill="rgb(50, 49, 63)" stroke="none" stroke-width="1px">0.64</text><text x="0" y="88.9935" dx="0em" dy="0.3em" style="text-anchor: end; visibility: inherit; font-family: Roboto, sans-serif; font-size: 12px; font-weight: 200;" fill="rgb(50, 49, 63)" stroke="none" stroke-width="1px">0.66</text><text x="0" y="76.28014285714283" dx="0em" dy="0.3em" style="text-anchor: end; visibility: hidden; font-family: Roboto, sans-serif; font-size: 12px; font-weight: 200;" fill="rgb(50, 49, 63)" stroke="none" stroke-width="1px">0.68</text><text x="0" y="63.566785714285764" dx="0em" dy="0.3em" style="text-anchor: end; visibility: inherit; font-family: Roboto, sans-serif; font-size: 12px; font-weight: 200;" fill="rgb(50, 49, 63)" stroke="none" stroke-width="1px">0.7</text><text x="0" y="50.85342857142861" dx="0em" dy="0.3em" style="text-anchor: end; visibility: hidden; font-family: Roboto, sans-serif; font-size: 12px; font-weight: 200;" fill="rgb(50, 49, 63)" stroke="none" stroke-width="1px">0.72</text><text x="0" y="38.14007142857145" dx="0em" dy="0.3em" style="text-anchor: end; visibility: inherit; font-family: Roboto, sans-serif; font-size: 12px; font-weight: 200;" fill="rgb(50, 49, 63)" stroke="none" stroke-width="1px">0.74</text><text x="0" y="25.426714285714315" dx="0em" dy="0.3em" style="text-anchor: end; visibility: hidden; font-family: Roboto, sans-serif; font-size: 12px; font-weight: 200;" fill="rgb(50, 49, 63)" stroke="none" stroke-width="1px">0.76</text><text x="0" y="12.713357142857157" dx="0em" dy="0.3em" style="text-anchor: end; visibility: inherit; font-family: Roboto, sans-serif; font-size: 12px; font-weight: 200;" fill="rgb(50, 49, 63)" stroke="none" stroke-width="1px">0.78</text><text x="0" y="0" dx="0em" dy="0.3em" style="text-anchor: end; visibility: hidden; font-family: Roboto, sans-serif; font-size: 12px; font-weight: 200;" fill="rgb(50, 49, 63)" stroke="none" stroke-width="1px">0.8</text></g><line x1="50" y1="0" x2="50" y2="177.987" fill="rgb(0, 0, 0)" stroke="rgb(204, 204, 204)" stroke-width="1px"></line></g></g><g transform="translate(50, 0)" clip-path="url(#clip_0)"><clipPath id="clip_0"><rect width="279" height="177"></rect></clipPath><g><g><g><line x1="0" y1="0" x2="0" y2="177.987" fill="rgb(0, 0, 0)" stroke="rgb(60, 60, 60)" stroke-width="1px" opacity="0.25"></line><line x1="23.332250000000002" y1="0" x2="23.332250000000002" y2="177.987" fill="rgb(0, 0, 0)" stroke="rgb(60, 60, 60)" stroke-width="1px" opacity="0.25"></line><line x1="46.664500000000004" y1="0" x2="46.664500000000004" y2="177.987" fill="rgb(0, 0, 0)" stroke="rgb(60, 60, 60)" stroke-width="1px" opacity="0.25"></line><line x1="69.99675" y1="0" x2="69.99675" y2="177.987" fill="rgb(0, 0, 0)" stroke="rgb(60, 60, 60)" stroke-width="1px" opacity="0.25"></line><line x1="93.32900000000001" y1="0" x2="93.32900000000001" y2="177.987" fill="rgb(0, 0, 0)" stroke="rgb(60, 60, 60)" stroke-width="1px" opacity="0.25"></line><line x1="116.66125000000001" y1="0" x2="116.66125000000001" y2="177.987" fill="rgb(0, 0, 0)" stroke="rgb(60, 60, 60)" stroke-width="1px" opacity="0.25"></line><line x1="139.9935" y1="0" x2="139.9935" y2="177.987" fill="rgb(0, 0, 0)" stroke="rgb(60, 60, 60)" stroke-width="1px" opacity="0.25"></line><line x1="163.32575000000003" y1="0" x2="163.32575000000003" y2="177.987" fill="rgb(0, 0, 0)" stroke="rgb(60, 60, 60)" stroke-width="1px" opacity="0.25"></line><line x1="186.65800000000002" y1="0" x2="186.65800000000002" y2="177.987" fill="rgb(0, 0, 0)" stroke="rgb(60, 60, 60)" stroke-width="1px" opacity="0.25"></line><line x1="209.99025" y1="0" x2="209.99025" y2="177.987" fill="rgb(0, 0, 0)" stroke="rgb(60, 60, 60)" stroke-width="1px" opacity="0.25"></line><line x1="233.32250000000002" y1="0" x2="233.32250000000002" y2="177.987" fill="rgb(0, 0, 0)" stroke="rgb(60, 60, 60)" stroke-width="1px" opacity="0.25"></line><line x1="256.65475000000004" y1="0" x2="256.65475000000004" y2="177.987" fill="rgb(0, 0, 0)" stroke="rgb(60, 60, 60)" stroke-width="1px" opacity="0.25"></line><line x1="279.987" y1="0" x2="279.987" y2="177.987" fill="rgb(0, 0, 0)" stroke="rgb(60, 60, 60)" stroke-width="1px" opacity="0.25"></line></g><g><line x1="0" y1="177.987" x2="279.987" y2="177.987" fill="rgb(0, 0, 0)" stroke="rgb(60, 60, 60)" stroke-width="1px" opacity="0.25"></line><line x1="0" y1="165.27364285714285" x2="279.987" y2="165.27364285714285" fill="rgb(0, 0, 0)" stroke="rgb(60, 60, 60)" stroke-width="1px" opacity="0.25"></line><line x1="0" y1="152.56028571428567" x2="279.987" y2="152.56028571428567" fill="rgb(0, 0, 0)" stroke="rgb(60, 60, 60)" stroke-width="1px" opacity="0.25"></line><line x1="0" y1="139.8469285714286" x2="279.987" y2="139.8469285714286" fill="rgb(0, 0, 0)" stroke="rgb(60, 60, 60)" stroke-width="1px" opacity="0.25"></line><line x1="0" y1="127.13357142857144" x2="279.987" y2="127.13357142857144" fill="rgb(0, 0, 0)" stroke="rgb(60, 60, 60)" stroke-width="1px" opacity="0.25"></line><line x1="0" y1="114.42021428571431" x2="279.987" y2="114.42021428571431" fill="rgb(0, 0, 0)" stroke="rgb(60, 60, 60)" stroke-width="1px" opacity="0.25"></line><line x1="0" y1="101.70685714285716" x2="279.987" y2="101.70685714285716" fill="rgb(0, 0, 0)" stroke="rgb(60, 60, 60)" stroke-width="1px" opacity="0.25"></line><line x1="0" y1="88.9935" x2="279.987" y2="88.9935" fill="rgb(0, 0, 0)" stroke="rgb(60, 60, 60)" stroke-width="1px" opacity="0.25"></line><line x1="0" y1="76.28014285714283" x2="279.987" y2="76.28014285714283" fill="rgb(0, 0, 0)" stroke="rgb(60, 60, 60)" stroke-width="1px" opacity="0.25"></line><line x1="0" y1="63.566785714285764" x2="279.987" y2="63.566785714285764" fill="rgb(0, 0, 0)" stroke="rgb(60, 60, 60)" stroke-width="1px" opacity="0.25"></line><line x1="0" y1="50.85342857142861" x2="279.987" y2="50.85342857142861" fill="rgb(0, 0, 0)" stroke="rgb(60, 60, 60)" stroke-width="1px" opacity="0.25"></line><line x1="0" y1="38.14007142857145" x2="279.987" y2="38.14007142857145" fill="rgb(0, 0, 0)" stroke="rgb(60, 60, 60)" stroke-width="1px" opacity="0.25"></line><line x1="0" y1="25.426714285714315" x2="279.987" y2="25.426714285714315" fill="rgb(0, 0, 0)" stroke="rgb(60, 60, 60)" stroke-width="1px" opacity="0.25"></line><line x1="0" y1="12.713357142857157" x2="279.987" y2="12.713357142857157" fill="rgb(0, 0, 0)" stroke="rgb(60, 60, 60)" stroke-width="1px" opacity="0.25"></line><line x1="0" y1="0" x2="279.987" y2="0" fill="rgb(0, 0, 0)" stroke="rgb(60, 60, 60)" stroke-width="1px" opacity="0.25"></line></g></g></g><g><g><line x1="0" y1="508.53428571428566" x2="279.987" y2="508.53428571428566" fill="rgb(0, 0, 0)" stroke="rgb(153, 153, 153)" stroke-width="1.5px"></line></g></g><g><g><line x1="23.332250000000002" y1="0" x2="23.332250000000002" y2="177.987" fill="rgb(0, 0, 0)" stroke="rgb(153, 153, 153)" stroke-width="1.5px"></line></g></g><g><g><g><g><g><path stroke="rgb(0, 119, 187)" stroke-width="2px" d="M23.332250000000002,214.3933523895698L27.998700000000003,170.3382193413377L32.665150000000004,150.64640942548002L37.3316,138.70565404734444L41.99805,130.72419797939915L46.664500000000004,123.79013870498966L51.33095,119.24428355046682L55.997400000000006,114.63557094837938L60.663850000000004,110.9695306159769L65.33030000000001,108.09957095312222L69.99675,105.92089165845088L74.6632,103.84697477638723L79.32965,101.54261847534352L83.9961,99.65723604721683L88.66255000000001,98.08606507939952L93.32900000000001,96.24258761631594L97.99545,94.67145453725544L102.6619,93.6030673724413L107.32835000000001,92.6813096965211L111.99480000000001,91.17299617626838L116.66125000000001,90.29314346539125L121.32770000000001,89.68563513853722L125.99415000000002,88.59629549120156L130.66060000000002,87.71648066908122L135.32705,86.81567547568254L139.9935,86.68996058055335L144.65995000000004,86.01963269489153L149.3264,85.11882750149285L153.99285000000003,84.59509121596815L158.6593,84.4275092445527L163.32575000000003,83.71527639384782L167.9922,83.56860901619707L172.65865000000002,83.08681558447226L177.32510000000002,82.81447120044915L181.99155000000002,82.20696287359512L186.65800000000002,82.06029549594437L191.32445,81.85080855948587L195.9909,81.32711016271799L200.65735,81.20143315634559L205.3238,81.49469213413342L209.99025,81.13857570878099L214.65670000000003,81.13857570878099L219.32315000000003,80.53106738192697L223.98960000000002,80.90813628980094L228.65605000000002,80.09114102648839L233.32250000000002,80.38440000427623L237.98895000000002,80.00733109640225L242.65540000000001,79.98637861388072L247.32185,80.07018854396685L251.98830000000004,79.79784415994374" style="fill: none;" fill="none"></path></g><g><path stroke="rgb(255, 112, 67)" stroke-width="2px" d="M27.998700000000003,191.9868698806848L32.665150000000004,160.26465978805507L37.3316,143.54886016539166L41.99805,131.38539467466728L46.664500000000004,122.81158578259604L51.33095,114.9395145555905L55.997400000000006,110.2702178313477L60.663850000000004,104.17948650624072L65.33030000000001,99.45623619228603L69.99675,95.05689686038666L74.6632,91.2153179176365L79.32965,89.13708171729533L83.9961,84.86368461306607L88.66255000000001,82.70448013940029L93.32900000000001,79.17779465458224L97.99545,76.55077770045827L102.6619,74.34659927244698L107.32835000000001,71.52161356393782L111.99480000000001,69.02955636160715L116.66125000000001,69.01155920211761L121.32770000000001,65.23295137320248L125.99415000000002,63.991412589720326L130.66060000000002,63.217724175453206L135.32705,59.57407609833141L139.9935,58.89931522812165L144.65995000000004,57.69377076361863L149.3264,55.7414767909476L153.99285000000003,54.32000430132665L158.6593,53.10548020145725L163.32575000000003,52.39472501226835L167.9922,49.686739784819764L172.65865000000002,49.101964712057814L177.32510000000002,47.644497903457726L181.99155000000002,46.744829372763654L186.65800000000002,45.764192568744946L191.32445,44.76555860523669L195.9909,42.93026511362623L200.65735,42.588394860838164L205.3238,41.84164535267015L209.99025,40.78004027532683L214.65670000000003,39.00771789755143L219.32315000000003,38.58487937143873L223.98960000000002,38.18901764018197L228.65605000000002,36.80353946954014L233.32250000000002,35.714919708584056L237.98895000000002,35.921868098335636L242.65540000000001,33.85261153336085L247.32185,32.539122000677274L251.98830000000004,32.05327447197269" style="fill: none;" fill="none"></path></g><g><path stroke="rgb(51, 187, 238)" stroke-width="2px" d="M23.332250000000002,188.7081284204977L27.998700000000003,154.0223734356676L32.665150000000004,137.83288653399265L37.3316,127.57814294559616L41.99805,119.6302184274367L46.664500000000004,113.59059903528009L51.33095,108.62050347064225L55.997400000000006,105.34907454052143L60.663850000000004,101.46945528592383L65.33030000000001,99.22556944076507L69.99675,96.45745475624291L74.6632,95.09433095212495L79.32965,93.54248325028591L83.9961,91.92774021212546L88.66255000000001,90.8582163846067L93.32900000000001,89.76774007456646L97.99545,88.7821019546475L102.6619,87.6287303082858L107.32835000000001,86.45436829064576L111.99480000000001,85.69939692224776L116.66125000000001,85.11223485780616L121.32770000000001,84.62987309472902L125.99415000000002,83.58133963848864L130.66060000000002,83.20385395428966L135.32705,82.46991084592685L139.9935,82.34408228452718L144.65995000000004,81.94560622904984L149.3264,81.16972026688714L153.99285000000003,81.064844188009L158.6593,80.98095848040923L163.32575000000003,80.51962497736727L167.9922,79.99532036049028L172.65865000000002,80.16309177568982L177.32510000000002,79.74370112644776L181.99155000000002,79.47105363237007L186.65800000000002,79.49204400364845L191.32445,79.61787256504809L195.9909,79.24038688084912L200.65735,79.26133936337064L205.3238,79.15650117324932L209.99025,78.7161201527289L214.65670000000003,78.88389156792847L219.32315000000003,78.75806300652881L223.98960000000002,78.10796771700895L228.65605000000002,78.48545340120795L233.32250000000002,78.08697734573059L237.98895000000002,78.25474876093014L242.65540000000001,77.89825344800951L247.32185,78.38057732232981L251.98830000000004,78.38057732232981" style="fill: none;" fill="none"></path></g><g><path stroke="rgb(204, 51, 17)" stroke-width="2px" d="M23.332250000000002,283.5757785183191L27.998700000000003,171.1954524643932L32.665150000000004,144.57738835803102L37.3316,128.1749287542701L41.99805,116.65542057446073L46.664500000000004,108.55309937225923L51.33095,100.98133443181007L55.997400000000006,94.82141823674952L60.663850000000004,90.15428117164545L65.33030000000001,85.67594378177611L69.99675,81.11671389609577L74.6632,78.76965696611576L79.32965,74.22838635116817L83.9961,71.30579920509034L88.66255000000001,68.09544695096358L93.32900000000001,66.39587098628284L97.99545,62.744872490337926L102.6619,61.30604695009335L107.32835000000001,57.987787516542866L111.99480000000001,56.63890988498928L116.66125000000001,54.822409216761606L121.32770000000001,53.03288534338988L125.99415000000002,50.20020821724622L130.66060000000002,48.18585246090381L135.32705,46.711070490436924L139.9935,45.63196080744268L144.65995000000004,44.06726881704162L149.3264,43.365834262030496L153.99285000000003,42.23277098932438L158.6593,39.741812560941504L163.32575000000003,38.79762474098377L167.9922,37.32284277051689L172.65865000000002,36.38759669716872L177.32510000000002,35.09267265532701L181.99155000000002,33.8696614739299L186.65800000000002,32.62869102180006L191.32445,31.756416062286956L195.9909,30.416518066099744L200.65735,29.490289516874746L205.3238,29.166567978603528L209.99025,28.770895691130864L214.65670000000003,26.252960467892063L219.32315000000003,26.612638436385588L223.98960000000002,24.10372073726998L228.65605000000002,24.00479319321261L233.32250000000002,23.08754427935399L237.98895000000002,22.50303442788978L242.65540000000001,22.11637966454031L247.32185,21.01029318669014L251.98830000000004,20.461739765448257" style="fill: none;" fill="none"></path></g></g></g></g></g></g><g transform="translate(50, 177)" clip-path="url(#clip_1)"><clipPath id="clip_1"><rect width="279" height="21"></rect></clipPath><g><g><line x1="0" y1="0" x2="0" y2="5" style="visibility: inherit;" fill="rgb(0, 0, 0)" stroke="rgb(204, 204, 204)" stroke-width="1px"></line><line x1="23.332250000000002" y1="0" x2="23.332250000000002" y2="5" style="visibility: inherit;" fill="rgb(0, 0, 0)" stroke="rgb(204, 204, 204)" stroke-width="1px"></line><line x1="46.664500000000004" y1="0" x2="46.664500000000004" y2="5" style="visibility: inherit;" fill="rgb(0, 0, 0)" stroke="rgb(204, 204, 204)" stroke-width="1px"></line><line x1="69.99675" y1="0" x2="69.99675" y2="5" style="visibility: inherit;" fill="rgb(0, 0, 0)" stroke="rgb(204, 204, 204)" stroke-width="1px"></line><line x1="93.32900000000001" y1="0" x2="93.32900000000001" y2="5" style="visibility: inherit;" fill="rgb(0, 0, 0)" stroke="rgb(204, 204, 204)" stroke-width="1px"></line><line x1="116.66125000000001" y1="0" x2="116.66125000000001" y2="5" style="visibility: inherit;" fill="rgb(0, 0, 0)" stroke="rgb(204, 204, 204)" stroke-width="1px"></line><line x1="139.9935" y1="0" x2="139.9935" y2="5" style="visibility: inherit;" fill="rgb(0, 0, 0)" stroke="rgb(204, 204, 204)" stroke-width="1px"></line><line x1="163.32575000000003" y1="0" x2="163.32575000000003" y2="5" style="visibility: inherit;" fill="rgb(0, 0, 0)" stroke="rgb(204, 204, 204)" stroke-width="1px"></line><line x1="186.65800000000002" y1="0" x2="186.65800000000002" y2="5" style="visibility: inherit;" fill="rgb(0, 0, 0)" stroke="rgb(204, 204, 204)" stroke-width="1px"></line><line x1="209.99025" y1="0" x2="209.99025" y2="5" style="visibility: inherit;" fill="rgb(0, 0, 0)" stroke="rgb(204, 204, 204)" stroke-width="1px"></line><line x1="233.32250000000002" y1="0" x2="233.32250000000002" y2="5" style="visibility: inherit;" fill="rgb(0, 0, 0)" stroke="rgb(204, 204, 204)" stroke-width="1px"></line><line x1="256.65475000000004" y1="0" x2="256.65475000000004" y2="5" style="visibility: inherit;" fill="rgb(0, 0, 0)" stroke="rgb(204, 204, 204)" stroke-width="1px"></line><line x1="279.987" y1="0" x2="279.987" y2="5" style="visibility: inherit;" fill="rgb(0, 0, 0)" stroke="rgb(204, 204, 204)" stroke-width="1px"></line></g><g transform="translate(0, 8)"><text x="0" y="0" dx="0em" dy="0.95em" style="text-anchor: middle; visibility: hidden; font-family: Roboto, sans-serif; font-size: 12px; font-weight: 200;" fill="rgb(50, 49, 63)" stroke="none" stroke-width="1px">-5</text><text x="23.332250000000002" y="0" dx="0em" dy="0.95em" style="text-anchor: middle; visibility: inherit; font-family: Roboto, sans-serif; font-size: 12px; font-weight: 200;" fill="rgb(50, 49, 63)" stroke="none" stroke-width="1px">0</text><text x="46.664500000000004" y="0" dx="0em" dy="0.95em" style="text-anchor: middle; visibility: inherit; font-family: Roboto, sans-serif; font-size: 12px; font-weight: 200;" fill="rgb(50, 49, 63)" stroke="none" stroke-width="1px">5</text><text x="69.99675" y="0" dx="0em" dy="0.95em" style="text-anchor: middle; visibility: inherit; font-family: Roboto, sans-serif; font-size: 12px; font-weight: 200;" fill="rgb(50, 49, 63)" stroke="none" stroke-width="1px">10</text><text x="93.32900000000001" y="0" dx="0em" dy="0.95em" style="text-anchor: middle; visibility: inherit; font-family: Roboto, sans-serif; font-size: 12px; font-weight: 200;" fill="rgb(50, 49, 63)" stroke="none" stroke-width="1px">15</text><text x="116.66125000000001" y="0" dx="0em" dy="0.95em" style="text-anchor: middle; visibility: inherit; font-family: Roboto, sans-serif; font-size: 12px; font-weight: 200;" fill="rgb(50, 49, 63)" stroke="none" stroke-width="1px">20</text><text x="139.9935" y="0" dx="0em" dy="0.95em" style="text-anchor: middle; visibility: inherit; font-family: Roboto, sans-serif; font-size: 12px; font-weight: 200;" fill="rgb(50, 49, 63)" stroke="none" stroke-width="1px">25</text><text x="163.32575000000003" y="0" dx="0em" dy="0.95em" style="text-anchor: middle; visibility: inherit; font-family: Roboto, sans-serif; font-size: 12px; font-weight: 200;" fill="rgb(50, 49, 63)" stroke="none" stroke-width="1px">30</text><text x="186.65800000000002" y="0" dx="0em" dy="0.95em" style="text-anchor: middle; visibility: inherit; font-family: Roboto, sans-serif; font-size: 12px; font-weight: 200;" fill="rgb(50, 49, 63)" stroke="none" stroke-width="1px">35</text><text x="209.99025" y="0" dx="0em" dy="0.95em" style="text-anchor: middle; visibility: inherit; font-family: Roboto, sans-serif; font-size: 12px; font-weight: 200;" fill="rgb(50, 49, 63)" stroke="none" stroke-width="1px">40</text><text x="233.32250000000002" y="0" dx="0em" dy="0.95em" style="text-anchor: middle; visibility: inherit; font-family: Roboto, sans-serif; font-size: 12px; font-weight: 200;" fill="rgb(50, 49, 63)" stroke="none" stroke-width="1px">45</text><text x="256.65475000000004" y="0" dx="0em" dy="0.95em" style="text-anchor: middle; visibility: inherit; font-family: Roboto, sans-serif; font-size: 12px; font-weight: 200;" fill="rgb(50, 49, 63)" stroke="none" stroke-width="1px">50</text><text x="279.987" y="0" dx="0em" dy="0.95em" style="text-anchor: middle; visibility: hidden; font-family: Roboto, sans-serif; font-size: 12px; font-weight: 200;" fill="rgb(50, 49, 63)" stroke="none" stroke-width="1px">55</text></g><line x1="0" y1="0" x2="279.987" y2="0" fill="rgb(0, 0, 0)" stroke="rgb(204, 204, 204)" stroke-width="1px"></line></g></g></g></g></svg>