<svg viewBox="0 0 329.98699951171875 199.9865264892578" xmlns="http://www.w3.org/2000/svg"><g><g><g><g><g><line x1="50" y1="177.987" x2="45" y2="177.987" style="visibility: inherit;" fill="rgb(0, 0, 0)" stroke="rgb(204, 204, 204)" stroke-width="1px"></line><line x1="50" y1="161.8063636363636" x2="45" y2="161.8063636363636" style="visibility: inherit;" fill="rgb(0, 0, 0)" stroke="rgb(204, 204, 204)" stroke-width="1px"></line><line x1="50" y1="145.62572727272726" x2="45" y2="145.62572727272726" style="visibility: inherit;" fill="rgb(0, 0, 0)" stroke="rgb(204, 204, 204)" stroke-width="1px"></line><line x1="50" y1="129.4450909090909" x2="45" y2="129.4450909090909" style="visibility: inherit;" fill="rgb(0, 0, 0)" stroke="rgb(204, 204, 204)" stroke-width="1px"></line><line x1="50" y1="113.26445454545454" x2="45" y2="113.26445454545454" style="visibility: inherit;" fill="rgb(0, 0, 0)" stroke="rgb(204, 204, 204)" stroke-width="1px"></line><line x1="50" y1="97.08381818181817" x2="45" y2="97.08381818181817" style="visibility: inherit;" fill="rgb(0, 0, 0)" stroke="rgb(204, 204, 204)" stroke-width="1px"></line><line x1="50" y1="80.90318181818182" x2="45" y2="80.90318181818182" style="visibility: inherit;" fill="rgb(0, 0, 0)" stroke="rgb(204, 204, 204)" stroke-width="1px"></line><line x1="50" y1="64.72254545454545" x2="45" y2="64.72254545454545" style="visibility: inherit;" fill="rgb(0, 0, 0)" stroke="rgb(204, 204, 204)" stroke-width="1px"></line><line x1="50" y1="48.54190909090909" x2="45" y2="48.54190909090909" style="visibility: inherit;" fill="rgb(0, 0, 0)" stroke="rgb(204, 204, 204)" stroke-width="1px"></line><line x1="50" y1="32.36127272727272" x2="45" y2="32.36127272727272" style="visibility: inherit;" fill="rgb(0, 0, 0)" stroke="rgb(204, 204, 204)" stroke-width="1px"></line><line x1="50" y1="16.180636363636367" x2="45" y2="16.180636363636367" style="visibility: inherit;" fill="rgb(0, 0, 0)" stroke="rgb(204, 204, 204)" stroke-width="1px"></line><line x1="50" y1="0" x2="45" y2="0" style="visibility: inherit;" fill="rgb(0, 0, 0)" stroke="rgb(204, 204, 204)" stroke-width="1px"></line></g><g transform="translate(40, 0)"><text x="0" y="177.987" dx="0em" dy="0.3em" style="text-anchor: end; visibility: hidden; font-family: Roboto, sans-serif; font-size: 12px; font-weight: 200;" fill="rgb(50, 49, 63)" stroke="none" stroke-width="1px">-0.5</text><text x="0" y="161.8063636363636" dx="0em" dy="0.3em" style="text-anchor: end; visibility: inherit; font-family: Roboto, sans-serif; font-size: 12px; font-weight: 200;" fill="rgb(50, 49, 63)" stroke="none" stroke-width="1px">0</text><text x="0" y="145.62572727272726" dx="0em" dy="0.3em" style="text-anchor: end; visibility: hidden; font-family: Roboto, sans-serif; font-size: 12px; font-weight: 200;" fill="rgb(50, 49, 63)" stroke="none" stroke-width="1px">0.5</text><text x="0" y="129.4450909090909" dx="0em" dy="0.3em" style="text-anchor: end; visibility: inherit; font-family: Roboto, sans-serif; font-size: 12px; font-weight: 200;" fill="rgb(50, 49, 63)" stroke="none" stroke-width="1px">1</text><text x="0" y="113.26445454545454" dx="0em" dy="0.3em" style="text-anchor: end; visibility: hidden; font-family: Roboto, sans-serif; font-size: 12px; font-weight: 200;" fill="rgb(50, 49, 63)" stroke="none" stroke-width="1px">1.5</text><text x="0" y="97.08381818181817" dx="0em" dy="0.3em" style="text-anchor: end; visibility: inherit; font-family: Roboto, sans-serif; font-size: 12px; font-weight: 200;" fill="rgb(50, 49, 63)" stroke="none" stroke-width="1px">2</text><text x="0" y="80.90318181818182" dx="0em" dy="0.3em" style="text-anchor: end; visibility: hidden; font-family: Roboto, sans-serif; font-size: 12px; font-weight: 200;" fill="rgb(50, 49, 63)" stroke="none" stroke-width="1px">2.5</text><text x="0" y="64.72254545454545" dx="0em" dy="0.3em" style="text-anchor: end; visibility: inherit; font-family: Roboto, sans-serif; font-size: 12px; font-weight: 200;" fill="rgb(50, 49, 63)" stroke="none" stroke-width="1px">3</text><text x="0" y="48.54190909090909" dx="0em" dy="0.3em" style="text-anchor: end; visibility: hidden; font-family: Roboto, sans-serif; font-size: 12px; font-weight: 200;" fill="rgb(50, 49, 63)" stroke="none" stroke-width="1px">3.5</text><text x="0" y="32.36127272727272" dx="0em" dy="0.3em" style="text-anchor: end; visibility: inherit; font-family: Roboto, sans-serif; font-size: 12px; font-weight: 200;" fill="rgb(50, 49, 63)" stroke="none" stroke-width="1px">4</text><text x="0" y="16.180636363636367" dx="0em" dy="0.3em" style="text-anchor: end; visibility: hidden; font-family: Roboto, sans-serif; font-size: 12px; font-weight: 200;" fill="rgb(50, 49, 63)" stroke="none" stroke-width="1px">4.5</text><text x="0" y="0" dx="0em" dy="0.3em" style="text-anchor: end; visibility: hidden; font-family: Roboto, sans-serif; font-size: 12px; font-weight: 200;" fill="rgb(50, 49, 63)" stroke="none" stroke-width="1px">5</text></g><line x1="50" y1="0" x2="50" y2="177.987" fill="rgb(0, 0, 0)" stroke="rgb(204, 204, 204)" stroke-width="1px"></line></g></g><g transform="translate(50, 0)" clip-path="url(#clip_0)"><clipPath id="clip_0"><rect width="279" height="177"></rect></clipPath><g><g><g><line x1="0" y1="0" x2="0" y2="177.987" fill="rgb(0, 0, 0)" stroke="rgb(60, 60, 60)" stroke-width="1px" opacity="0.25"></line><line x1="23.332250000000002" y1="0" x2="23.332250000000002" y2="177.987" fill="rgb(0, 0, 0)" stroke="rgb(60, 60, 60)" stroke-width="1px" opacity="0.25"></line><line x1="46.664500000000004" y1="0" x2="46.664500000000004" y2="177.987" fill="rgb(0, 0, 0)" stroke="rgb(60, 60, 60)" stroke-width="1px" opacity="0.25"></line><line x1="69.99675" y1="0" x2="69.99675" y2="177.987" fill="rgb(0, 0, 0)" stroke="rgb(60, 60, 60)" stroke-width="1px" opacity="0.25"></line><line x1="93.32900000000001" y1="0" x2="93.32900000000001" y2="177.987" fill="rgb(0, 0, 0)" stroke="rgb(60, 60, 60)" stroke-width="1px" opacity="0.25"></line><line x1="116.66125000000001" y1="0" x2="116.66125000000001" y2="177.987" fill="rgb(0, 0, 0)" stroke="rgb(60, 60, 60)" stroke-width="1px" opacity="0.25"></line><line x1="139.9935" y1="0" x2="139.9935" y2="177.987" fill="rgb(0, 0, 0)" stroke="rgb(60, 60, 60)" stroke-width="1px" opacity="0.25"></line><line x1="163.32575000000003" y1="0" x2="163.32575000000003" y2="177.987" fill="rgb(0, 0, 0)" stroke="rgb(60, 60, 60)" stroke-width="1px" opacity="0.25"></line><line x1="186.65800000000002" y1="0" x2="186.65800000000002" y2="177.987" fill="rgb(0, 0, 0)" stroke="rgb(60, 60, 60)" stroke-width="1px" opacity="0.25"></line><line x1="209.99025" y1="0" x2="209.99025" y2="177.987" fill="rgb(0, 0, 0)" stroke="rgb(60, 60, 60)" stroke-width="1px" opacity="0.25"></line><line x1="233.32250000000002" y1="0" x2="233.32250000000002" y2="177.987" fill="rgb(0, 0, 0)" stroke="rgb(60, 60, 60)" stroke-width="1px" opacity="0.25"></line><line x1="256.65475000000004" y1="0" x2="256.65475000000004" y2="177.987" fill="rgb(0, 0, 0)" stroke="rgb(60, 60, 60)" stroke-width="1px" opacity="0.25"></line><line x1="279.987" y1="0" x2="279.987" y2="177.987" fill="rgb(0, 0, 0)" stroke="rgb(60, 60, 60)" stroke-width="1px" opacity="0.25"></line></g><g><line x1="0" y1="177.987" x2="279.987" y2="177.987" fill="rgb(0, 0, 0)" stroke="rgb(60, 60, 60)" stroke-width="1px" opacity="0.25"></line><line x1="0" y1="161.8063636363636" x2="279.987" y2="161.8063636363636" fill="rgb(0, 0, 0)" stroke="rgb(60, 60, 60)" stroke-width="1px" opacity="0.25"></line><line x1="0" y1="145.62572727272726" x2="279.987" y2="145.62572727272726" fill="rgb(0, 0, 0)" stroke="rgb(60, 60, 60)" stroke-width="1px" opacity="0.25"></line><line x1="0" y1="129.4450909090909" x2="279.987" y2="129.4450909090909" fill="rgb(0, 0, 0)" stroke="rgb(60, 60, 60)" stroke-width="1px" opacity="0.25"></line><line x1="0" y1="113.26445454545454" x2="279.987" y2="113.26445454545454" fill="rgb(0, 0, 0)" stroke="rgb(60, 60, 60)" stroke-width="1px" opacity="0.25"></line><line x1="0" y1="97.08381818181817" x2="279.987" y2="97.08381818181817" fill="rgb(0, 0, 0)" stroke="rgb(60, 60, 60)" stroke-width="1px" opacity="0.25"></line><line x1="0" y1="80.90318181818182" x2="279.987" y2="80.90318181818182" fill="rgb(0, 0, 0)" stroke="rgb(60, 60, 60)" stroke-width="1px" opacity="0.25"></line><line x1="0" y1="64.72254545454545" x2="279.987" y2="64.72254545454545" fill="rgb(0, 0, 0)" stroke="rgb(60, 60, 60)" stroke-width="1px" opacity="0.25"></line><line x1="0" y1="48.54190909090909" x2="279.987" y2="48.54190909090909" fill="rgb(0, 0, 0)" stroke="rgb(60, 60, 60)" stroke-width="1px" opacity="0.25"></line><line x1="0" y1="32.36127272727272" x2="279.987" y2="32.36127272727272" fill="rgb(0, 0, 0)" stroke="rgb(60, 60, 60)" stroke-width="1px" opacity="0.25"></line><line x1="0" y1="16.180636363636367" x2="279.987" y2="16.180636363636367" fill="rgb(0, 0, 0)" stroke="rgb(60, 60, 60)" stroke-width="1px" opacity="0.25"></line><line x1="0" y1="0" x2="279.987" y2="0" fill="rgb(0, 0, 0)" stroke="rgb(60, 60, 60)" stroke-width="1px" opacity="0.25"></line></g></g></g><g><g><line x1="0" y1="161.8063636363636" x2="279.987" y2="161.8063636363636" fill="rgb(0, 0, 0)" stroke="rgb(153, 153, 153)" stroke-width="1.5px"></line></g></g><g><g><line x1="23.332250000000002" y1="0" x2="23.332250000000002" y2="177.987" fill="rgb(0, 0, 0)" stroke="rgb(153, 153, 153)" stroke-width="1.5px"></line></g></g><g><g><g><g><g><path stroke="rgb(0, 153, 136)" stroke-width="2px" d="M23.332250000000002,98.37074135821516L27.998700000000003,97.3777798238234L32.665150000000004,90.12899435312097L37.3316,87.47127248824727L41.99805,85.79746570040962L46.664500000000004,83.71643330981513L51.33095,81.71611306454918L55.997400000000006,78.2009876461029L60.663850000000004,76.73790737706963L65.33030000000001,76.46297994427248L69.99675,72.8766710583947L74.6632,70.96575835925881L79.32965,69.17568627002021L83.9961,67.7999997941364L88.66255000000001,65.06297001015055L93.32900000000001,63.975219348387284L97.99545,60.16516784685309L102.6619,60.371851428638806L107.32835000000001,56.554223277958954L111.99480000000001,54.85233968132193L116.66125000000001,55.243787027965894L121.32770000000001,53.96130413831364L125.99415000000002,53.23341344885392L130.66060000000002,51.2147225298448L135.32705,48.23463044643402L139.9935,48.69912070291693L144.65995000000004,47.33702898853476L149.3264,44.68218501585181L153.99285000000003,44.521786890506746L158.6593,42.274577443599696L163.32575000000003,40.89381414985657L167.9922,40.192117680202834L172.65865000000002,39.31187616179207L177.32510000000002,38.35916268266332L181.99155000000002,36.947498696630646L186.65800000000002,35.682213720365006L191.32445,34.05895907631787L195.9909,30.850788250142884L200.65735,30.18802433811534L205.3238,29.440250731294796L209.99025,28.86396246450598L214.65670000000003,27.36731964579495L219.32315000000003,28.327193135521618L223.98960000000002,25.927324238517077L228.65605000000002,26.375210677320315L233.32250000000002,25.191154786803512L237.98895000000002,25.123489600441662L242.65540000000001,23.90466753777591L247.32185,22.38921426018802L251.98830000000004,21.603634562925855" style="fill: none;" fill="none"></path></g><g><path stroke="rgb(238, 51, 119)" stroke-width="2px" d="M23.332250000000002,96.71836445123498L27.998700000000003,110.31076114335926L32.665150000000004,114.65989663247629L37.3316,117.14106405498765L41.99805,118.62104904731837L46.664500000000004,119.44702339488809L51.33095,120.83870801945166L55.997400000000006,121.4203354320743L60.663850000000004,121.97805242137476L65.33030000000001,122.94407904520901L69.99675,122.97925799814136L74.6632,123.65621076737752L79.32965,123.7921622401584L83.9961,124.27362280193242L88.66255000000001,124.3940506310463L93.32900000000001,124.84228812640364L97.99545,124.82565344660932L102.6619,125.05262115324625L107.32835000000001,125.12696027190034L111.99480000000001,125.62719271490789L116.66125000000001,125.27350130776925L121.32770000000001,125.44339724889667L125.99415000000002,125.60728279319676L130.66060000000002,125.60907665361056L135.32705,125.8712503175302L139.9935,125.47306731436468L144.65995000000004,126.13333139510587L149.3264,125.98580662933263L153.99285000000003,126.11262291617827L158.6593,126.49719958454911L163.32575000000003,126.49343826432661L167.9922,126.15099609797652L172.65865000000002,126.28731791613318L177.32510000000002,126.57128409075736L181.99155000000002,126.02590808955105L186.65800000000002,126.51041628514638L191.32445,126.82455403460153L195.9909,126.3549059472084L200.65735,126.76182292881879L205.3238,126.7539029386477L209.99025,126.55396272891218L214.65670000000003,126.73366896473279L219.32315000000003,127.0723883885037L223.98960000000002,127.17215017409758L228.65605000000002,126.55087265968322L233.32250000000002,126.37478886456923L237.98895000000002,126.3621122509783L242.65540000000001,126.75288834662871L247.32185,126.02318450793354L251.98830000000004,126.80881049836763" style="fill: none;" fill="none"></path></g><g><path stroke="rgb(51, 187, 238)" stroke-width="2px" d="M23.332250000000002,114.17810816073417L27.998700000000003,118.33531987439504L32.665150000000004,119.97525934917276L37.3316,120.79817448962817L41.99805,121.27764444500748L46.664500000000004,121.50790282461858L51.33095,121.67217800311609L55.997400000000006,121.63894336340643L60.663850000000004,121.66807719963248L65.33030000000001,121.48104506934772L69.99675,121.4099696193175L74.6632,121.19148513644392L79.32965,121.07109974273769L83.9961,120.82949953599409L88.66255000000001,120.65456921241498L93.32900000000001,120.42675279762528L97.99545,120.20708783886649L102.6619,120.16101455946402L107.32835000000001,119.86343433451653L111.99480000000001,119.61627123160795L116.66125000000001,119.39803750341589L121.32770000000001,119.22389802152459L125.99415000000002,118.92208582910625L130.66060000000002,118.63887191852656L135.32705,118.50787381514635L139.9935,118.16345261569457L144.65995000000004,118.02606605458259L149.3264,117.87612632833829L153.99285000000003,117.55548824598573L158.6593,117.2282726754492L163.32575000000003,117.14356002850965L167.9922,116.91195914691146L172.65865000000002,116.75322371799295L177.32510000000002,116.4977664217732L181.99155000000002,116.32885421055013L186.65800000000002,115.99446319835836L191.32445,115.82793508549169L195.9909,115.68493161951413L200.65735,115.41429016288843L205.3238,115.26716274684127L209.99025,114.87661040152202L214.65670000000003,114.8325122974569L219.32315000000003,114.62112224318766L223.98960000000002,114.39423940736596L228.65605000000002,114.28249154799636L233.32250000000002,113.9194489201199L237.98895000000002,113.84995129570095L242.65540000000001,113.58376941464162L247.32185,113.41956367590211L251.98830000000004,113.29742299942536" style="fill: none;" fill="none"></path></g><g><path stroke="rgb(204, 51, 17)" stroke-width="2px" d="M23.332250000000002,98.6444844573628L27.998700000000003,117.83342859272523L32.665150000000004,122.48212719765576L37.3316,125.490681866299L41.99805,127.55463207643683L46.664500000000004,129.284461317886L51.33095,130.61382954633237L55.997400000000006,131.79315581777962L60.663850000000004,132.81036340099033L65.33030000000001,133.71994900378314L69.99675,134.42774652772601L74.6632,135.1566575958512L79.32965,135.72669628442418L83.9961,136.3575757742578L88.66255000000001,136.81772411698643L93.32900000000001,137.1689349816604L97.99545,137.7331272283901L102.6619,138.20748950379544L107.32835000000001,138.55702416986767L111.99480000000001,138.91584447468412L116.66125000000001,139.13402998082205L121.32770000000001,139.47032094194674L125.99415000000002,139.89943935728073L130.66060000000002,140.12714775466918L135.32705,140.29213276180354L139.9935,140.70201057753778L144.65995000000004,140.801589119326L149.3264,140.9789806965481L153.99285000000003,141.20782906329632L158.6593,141.40722725714338L163.32575000000003,141.47920542402701L167.9922,141.7757594836625L172.65865000000002,141.98056626310134L177.32510000000002,142.16266624168915L181.99155000000002,142.30950046764718L186.65800000000002,142.39759058725832L191.32445,142.59379648112167L195.9909,142.69999108873714L200.65735,142.74217574169418L205.3238,142.92285992077262L209.99025,142.96456042430617L214.65670000000003,143.08993197840994L219.32315000000003,143.23050312397694L223.98960000000002,143.3924732882868L228.65605000000002,143.47286331029372L233.32250000000002,143.6885489851453L237.98895000000002,143.65118075095523L242.65540000000001,143.84830672161146L247.32185,143.88183840917455L251.98830000000004,144.05904481370882" style="fill: none;" fill="none"></path></g><g><path stroke="rgb(0, 119, 187)" stroke-width="2px" d="M23.332250000000002,76.35057240720228L27.998700000000003,94.3369665298462L32.665150000000004,102.01246702870456L37.3316,106.30477764922921L41.99805,109.0870127156431L46.664500000000004,111.05962263972108L51.33095,112.55886944935537L55.997400000000006,113.7463240302476L60.663850000000004,114.70068477474561L65.33030000000001,115.49932686203177L69.99675,116.19416422670538L74.6632,116.77714957237244L79.32965,117.28746235357633L83.9961,117.73941101821985L88.66255000000001,118.14252038643575L93.32900000000001,118.5047104483951L97.99545,118.83311806810984L102.6619,119.11930245722422L107.32835000000001,119.37509152117642L111.99480000000001,119.6217685457793L116.66125000000001,119.86034812305189L121.32770000000001,120.06606726375493L125.99415000000002,120.26221143338896L130.66060000000002,120.43625832893632L135.32705,120.59075793261961L139.9935,120.75888701768355L144.65995000000004,120.89430997675116L149.3264,121.02573629197208L153.99285000000003,121.14741789449343L158.6593,121.27390627137096L163.32575000000003,121.37134568283773L167.9922,121.47722588266024L172.65865000000002,121.5777977987636L177.32510000000002,121.66511443662642L181.99155000000002,121.73776385450363L186.65800000000002,121.82491846626455L191.32445,121.8925952259194L195.9909,121.95482482233913L200.65735,122.0382103983489L205.3238,122.09922094124015L209.99025,122.14681803755326L214.65670000000003,122.20659023809432L219.32315000000003,122.26019387347047L223.98960000000002,122.30926849352231L228.65605000000002,122.35853600179067L233.32250000000002,122.386682250348L237.98895000000002,122.43916327630392L242.65540000000001,122.47108627614108L247.32185,122.50578686629643L251.98830000000004,122.54342707287182" style="fill: none;" fill="none"></path></g><g><path stroke="rgb(255, 112, 67)" stroke-width="2px" d="M23.332250000000002,50.296605481234465L27.998700000000003,85.83684575869819L32.665150000000004,97.98949394046177L37.3316,104.1382301967144L41.99805,107.99752220216664L46.664500000000004,110.72998439318482L51.33095,112.76498979754881L55.997400000000006,114.31283286445792L60.663850000000004,115.75363840224527L65.33030000000001,117.0256397462108L69.99675,117.88648442556642L74.6632,118.81499429128385L79.32965,119.66899529671669L83.9961,120.36553007769584L88.66255000000001,121.04075842627611L93.32900000000001,121.68584991990437L97.99545,122.22227590786328L102.6619,122.75280723192476L107.32835000000001,123.25849455369601L111.99480000000001,123.73986252912609L116.66125000000001,124.16491871861977L121.32770000000001,124.53501719745722L125.99415000000002,124.98142611252179L130.66060000000002,125.31626462537591L135.32705,125.65977153468131L139.9935,126.03136682607912L144.65995000000004,126.34435496176371L149.3264,126.64884444262765L153.99285000000003,126.9161990840435L158.6593,127.25641917813905L163.32575000000003,127.5426575759541L167.9922,127.79286059715531L172.65865000000002,128.0364166904146L177.32510000000002,128.3062210121805L181.99155000000002,128.56069072073157L186.65800000000002,128.77260543094982L191.32445,128.99342386124349L195.9909,129.17175287519802L200.65735,129.446958067027L205.3238,129.67116554328527L209.99025,129.8276981887709L214.65670000000003,130.06770128108153L219.32315000000003,130.2758874620741L223.98960000000002,130.429974284974L228.65605000000002,130.57032168020987L233.32250000000002,130.72387420274995L237.98895000000002,130.96987611859495L242.65540000000001,131.1981207452254L247.32185,131.31271563467112L251.98830000000004,131.47477645644275" style="fill: none;" fill="none"></path></g></g></g></g></g></g><g transform="translate(50, 177)" clip-path="url(#clip_1)"><clipPath id="clip_1"><rect width="279" height="21"></rect></clipPath><g><g><line x1="0" y1="0" x2="0" y2="5" style="visibility: inherit;" fill="rgb(0, 0, 0)" stroke="rgb(204, 204, 204)" stroke-width="1px"></line><line x1="23.332250000000002" y1="0" x2="23.332250000000002" y2="5" style="visibility: inherit;" fill="rgb(0, 0, 0)" stroke="rgb(204, 204, 204)" stroke-width="1px"></line><line x1="46.664500000000004" y1="0" x2="46.664500000000004" y2="5" style="visibility: inherit;" fill="rgb(0, 0, 0)" stroke="rgb(204, 204, 204)" stroke-width="1px"></line><line x1="69.99675" y1="0" x2="69.99675" y2="5" style="visibility: inherit;" fill="rgb(0, 0, 0)" stroke="rgb(204, 204, 204)" stroke-width="1px"></line><line x1="93.32900000000001" y1="0" x2="93.32900000000001" y2="5" style="visibility: inherit;" fill="rgb(0, 0, 0)" stroke="rgb(204, 204, 204)" stroke-width="1px"></line><line x1="116.66125000000001" y1="0" x2="116.66125000000001" y2="5" style="visibility: inherit;" fill="rgb(0, 0, 0)" stroke="rgb(204, 204, 204)" stroke-width="1px"></line><line x1="139.9935" y1="0" x2="139.9935" y2="5" style="visibility: inherit;" fill="rgb(0, 0, 0)" stroke="rgb(204, 204, 204)" stroke-width="1px"></line><line x1="163.32575000000003" y1="0" x2="163.32575000000003" y2="5" style="visibility: inherit;" fill="rgb(0, 0, 0)" stroke="rgb(204, 204, 204)" stroke-width="1px"></line><line x1="186.65800000000002" y1="0" x2="186.65800000000002" y2="5" style="visibility: inherit;" fill="rgb(0, 0, 0)" stroke="rgb(204, 204, 204)" stroke-width="1px"></line><line x1="209.99025" y1="0" x2="209.99025" y2="5" style="visibility: inherit;" fill="rgb(0, 0, 0)" stroke="rgb(204, 204, 204)" stroke-width="1px"></line><line x1="233.32250000000002" y1="0" x2="233.32250000000002" y2="5" style="visibility: inherit;" fill="rgb(0, 0, 0)" stroke="rgb(204, 204, 204)" stroke-width="1px"></line><line x1="256.65475000000004" y1="0" x2="256.65475000000004" y2="5" style="visibility: inherit;" fill="rgb(0, 0, 0)" stroke="rgb(204, 204, 204)" stroke-width="1px"></line><line x1="279.987" y1="0" x2="279.987" y2="5" style="visibility: inherit;" fill="rgb(0, 0, 0)" stroke="rgb(204, 204, 204)" stroke-width="1px"></line></g><g transform="translate(0, 8)"><text x="0" y="0" dx="0em" dy="0.95em" style="text-anchor: middle; visibility: hidden; font-family: Roboto, sans-serif; font-size: 12px; font-weight: 200;" fill="rgb(50, 49, 63)" stroke="none" stroke-width="1px">-5</text><text x="23.332250000000002" y="0" dx="0em" dy="0.95em" style="text-anchor: middle; visibility: inherit; font-family: Roboto, sans-serif; font-size: 12px; font-weight: 200;" fill="rgb(50, 49, 63)" stroke="none" stroke-width="1px">0</text><text x="46.664500000000004" y="0" dx="0em" dy="0.95em" style="text-anchor: middle; visibility: inherit; font-family: Roboto, sans-serif; font-size: 12px; font-weight: 200;" fill="rgb(50, 49, 63)" stroke="none" stroke-width="1px">5</text><text x="69.99675" y="0" dx="0em" dy="0.95em" style="text-anchor: middle; visibility: inherit; font-family: Roboto, sans-serif; font-size: 12px; font-weight: 200;" fill="rgb(50, 49, 63)" stroke="none" stroke-width="1px">10</text><text x="93.32900000000001" y="0" dx="0em" dy="0.95em" style="text-anchor: middle; visibility: inherit; font-family: Roboto, sans-serif; font-size: 12px; font-weight: 200;" fill="rgb(50, 49, 63)" stroke="none" stroke-width="1px">15</text><text x="116.66125000000001" y="0" dx="0em" dy="0.95em" style="text-anchor: middle; visibility: inherit; font-family: Roboto, sans-serif; font-size: 12px; font-weight: 200;" fill="rgb(50, 49, 63)" stroke="none" stroke-width="1px">20</text><text x="139.9935" y="0" dx="0em" dy="0.95em" style="text-anchor: middle; visibility: inherit; font-family: Roboto, sans-serif; font-size: 12px; font-weight: 200;" fill="rgb(50, 49, 63)" stroke="none" stroke-width="1px">25</text><text x="163.32575000000003" y="0" dx="0em" dy="0.95em" style="text-anchor: middle; visibility: inherit; font-family: Roboto, sans-serif; font-size: 12px; font-weight: 200;" fill="rgb(50, 49, 63)" stroke="none" stroke-width="1px">30</text><text x="186.65800000000002" y="0" dx="0em" dy="0.95em" style="text-anchor: middle; visibility: inherit; font-family: Roboto, sans-serif; font-size: 12px; font-weight: 200;" fill="rgb(50, 49, 63)" stroke="none" stroke-width="1px">35</text><text x="209.99025" y="0" dx="0em" dy="0.95em" style="text-anchor: middle; visibility: inherit; font-family: Roboto, sans-serif; font-size: 12px; font-weight: 200;" fill="rgb(50, 49, 63)" stroke="none" stroke-width="1px">40</text><text x="233.32250000000002" y="0" dx="0em" dy="0.95em" style="text-anchor: middle; visibility: inherit; font-family: Roboto, sans-serif; font-size: 12px; font-weight: 200;" fill="rgb(50, 49, 63)" stroke="none" stroke-width="1px">45</text><text x="256.65475000000004" y="0" dx="0em" dy="0.95em" style="text-anchor: middle; visibility: inherit; font-family: Roboto, sans-serif; font-size: 12px; font-weight: 200;" fill="rgb(50, 49, 63)" stroke="none" stroke-width="1px">50</text><text x="279.987" y="0" dx="0em" dy="0.95em" style="text-anchor: middle; visibility: hidden; font-family: Roboto, sans-serif; font-size: 12px; font-weight: 200;" fill="rgb(50, 49, 63)" stroke="none" stroke-width="1px">55</text></g><line x1="0" y1="0" x2="279.987" y2="0" fill="rgb(0, 0, 0)" stroke="rgb(204, 204, 204)" stroke-width="1px"></line></g></g></g></g></svg>