<svg viewBox="0 0 329.98699951171875 199.9865264892578" xmlns="http://www.w3.org/2000/svg"><g><g><g><g><g><line x1="50" y1="177.987" x2="45" y2="177.987" style="visibility: inherit;" fill="rgb(0, 0, 0)" stroke="rgb(204, 204, 204)" stroke-width="1px"></line><line x1="50" y1="155.73862499999998" x2="45" y2="155.73862499999998" style="visibility: inherit;" fill="rgb(0, 0, 0)" stroke="rgb(204, 204, 204)" stroke-width="1px"></line><line x1="50" y1="133.49025" x2="45" y2="133.49025" style="visibility: inherit;" fill="rgb(0, 0, 0)" stroke="rgb(204, 204, 204)" stroke-width="1px"></line><line x1="50" y1="111.241875" x2="45" y2="111.241875" style="visibility: inherit;" fill="rgb(0, 0, 0)" stroke="rgb(204, 204, 204)" stroke-width="1px"></line><line x1="50" y1="88.99350000000001" x2="45" y2="88.99350000000001" style="visibility: inherit;" fill="rgb(0, 0, 0)" stroke="rgb(204, 204, 204)" stroke-width="1px"></line><line x1="50" y1="66.745125" x2="45" y2="66.745125" style="visibility: inherit;" fill="rgb(0, 0, 0)" stroke="rgb(204, 204, 204)" stroke-width="1px"></line><line x1="50" y1="44.49674999999998" x2="45" y2="44.49674999999998" style="visibility: inherit;" fill="rgb(0, 0, 0)" stroke="rgb(204, 204, 204)" stroke-width="1px"></line><line x1="50" y1="22.24837500000002" x2="45" y2="22.24837500000002" style="visibility: inherit;" fill="rgb(0, 0, 0)" stroke="rgb(204, 204, 204)" stroke-width="1px"></line><line x1="50" y1="0" x2="45" y2="0" style="visibility: inherit;" fill="rgb(0, 0, 0)" stroke="rgb(204, 204, 204)" stroke-width="1px"></line></g><g transform="translate(40, 0)"><text x="0" y="177.987" dx="0em" dy="0.3em" style="text-anchor: end; visibility: hidden; font-family: Roboto, sans-serif; font-size: 12px; font-weight: 200;" fill="rgb(50, 49, 63)" stroke="none" stroke-width="1px">0.5</text><text x="0" y="155.73862499999998" dx="0em" dy="0.3em" style="text-anchor: end; visibility: inherit; font-family: Roboto, sans-serif; font-size: 12px; font-weight: 200;" fill="rgb(50, 49, 63)" stroke="none" stroke-width="1px">0.55</text><text x="0" y="133.49025" dx="0em" dy="0.3em" style="text-anchor: end; visibility: hidden; font-family: Roboto, sans-serif; font-size: 12px; font-weight: 200;" fill="rgb(50, 49, 63)" stroke="none" stroke-width="1px">0.6</text><text x="0" y="111.241875" dx="0em" dy="0.3em" style="text-anchor: end; visibility: inherit; font-family: Roboto, sans-serif; font-size: 12px; font-weight: 200;" fill="rgb(50, 49, 63)" stroke="none" stroke-width="1px">0.65</text><text x="0" y="88.99350000000001" dx="0em" dy="0.3em" style="text-anchor: end; visibility: hidden; font-family: Roboto, sans-serif; font-size: 12px; font-weight: 200;" fill="rgb(50, 49, 63)" stroke="none" stroke-width="1px">0.7</text><text x="0" y="66.745125" dx="0em" dy="0.3em" style="text-anchor: end; visibility: inherit; font-family: Roboto, sans-serif; font-size: 12px; font-weight: 200;" fill="rgb(50, 49, 63)" stroke="none" stroke-width="1px">0.75</text><text x="0" y="44.49674999999998" dx="0em" dy="0.3em" style="text-anchor: end; visibility: hidden; font-family: Roboto, sans-serif; font-size: 12px; font-weight: 200;" fill="rgb(50, 49, 63)" stroke="none" stroke-width="1px">0.8</text><text x="0" y="22.24837500000002" dx="0em" dy="0.3em" style="text-anchor: end; visibility: inherit; font-family: Roboto, sans-serif; font-size: 12px; font-weight: 200;" fill="rgb(50, 49, 63)" stroke="none" stroke-width="1px">0.85</text><text x="0" y="0" dx="0em" dy="0.3em" style="text-anchor: end; visibility: hidden; font-family: Roboto, sans-serif; font-size: 12px; font-weight: 200;" fill="rgb(50, 49, 63)" stroke="none" stroke-width="1px">0.9</text></g><line x1="50" y1="0" x2="50" y2="177.987" fill="rgb(0, 0, 0)" stroke="rgb(204, 204, 204)" stroke-width="1px"></line></g></g><g transform="translate(50, 0)" clip-path="url(#clip_0)"><clipPath id="clip_0"><rect width="279" height="177"></rect></clipPath><g><g><g><line x1="0" y1="0" x2="0" y2="177.987" fill="rgb(0, 0, 0)" stroke="rgb(60, 60, 60)" stroke-width="1px" opacity="0.25"></line><line x1="23.332250000000002" y1="0" x2="23.332250000000002" y2="177.987" fill="rgb(0, 0, 0)" stroke="rgb(60, 60, 60)" stroke-width="1px" opacity="0.25"></line><line x1="46.664500000000004" y1="0" x2="46.664500000000004" y2="177.987" fill="rgb(0, 0, 0)" stroke="rgb(60, 60, 60)" stroke-width="1px" opacity="0.25"></line><line x1="69.99675" y1="0" x2="69.99675" y2="177.987" fill="rgb(0, 0, 0)" stroke="rgb(60, 60, 60)" stroke-width="1px" opacity="0.25"></line><line x1="93.32900000000001" y1="0" x2="93.32900000000001" y2="177.987" fill="rgb(0, 0, 0)" stroke="rgb(60, 60, 60)" stroke-width="1px" opacity="0.25"></line><line x1="116.66125000000001" y1="0" x2="116.66125000000001" y2="177.987" fill="rgb(0, 0, 0)" stroke="rgb(60, 60, 60)" stroke-width="1px" opacity="0.25"></line><line x1="139.9935" y1="0" x2="139.9935" y2="177.987" fill="rgb(0, 0, 0)" stroke="rgb(60, 60, 60)" stroke-width="1px" opacity="0.25"></line><line x1="163.32575000000003" y1="0" x2="163.32575000000003" y2="177.987" fill="rgb(0, 0, 0)" stroke="rgb(60, 60, 60)" stroke-width="1px" opacity="0.25"></line><line x1="186.65800000000002" y1="0" x2="186.65800000000002" y2="177.987" fill="rgb(0, 0, 0)" stroke="rgb(60, 60, 60)" stroke-width="1px" opacity="0.25"></line><line x1="209.99025" y1="0" x2="209.99025" y2="177.987" fill="rgb(0, 0, 0)" stroke="rgb(60, 60, 60)" stroke-width="1px" opacity="0.25"></line><line x1="233.32250000000002" y1="0" x2="233.32250000000002" y2="177.987" fill="rgb(0, 0, 0)" stroke="rgb(60, 60, 60)" stroke-width="1px" opacity="0.25"></line><line x1="256.65475000000004" y1="0" x2="256.65475000000004" y2="177.987" fill="rgb(0, 0, 0)" stroke="rgb(60, 60, 60)" stroke-width="1px" opacity="0.25"></line><line x1="279.987" y1="0" x2="279.987" y2="177.987" fill="rgb(0, 0, 0)" stroke="rgb(60, 60, 60)" stroke-width="1px" opacity="0.25"></line></g><g><line x1="0" y1="177.987" x2="279.987" y2="177.987" fill="rgb(0, 0, 0)" stroke="rgb(60, 60, 60)" stroke-width="1px" opacity="0.25"></line><line x1="0" y1="155.73862499999998" x2="279.987" y2="155.73862499999998" fill="rgb(0, 0, 0)" stroke="rgb(60, 60, 60)" stroke-width="1px" opacity="0.25"></line><line x1="0" y1="133.49025" x2="279.987" y2="133.49025" fill="rgb(0, 0, 0)" stroke="rgb(60, 60, 60)" stroke-width="1px" opacity="0.25"></line><line x1="0" y1="111.241875" x2="279.987" y2="111.241875" fill="rgb(0, 0, 0)" stroke="rgb(60, 60, 60)" stroke-width="1px" opacity="0.25"></line><line x1="0" y1="88.99350000000001" x2="279.987" y2="88.99350000000001" fill="rgb(0, 0, 0)" stroke="rgb(60, 60, 60)" stroke-width="1px" opacity="0.25"></line><line x1="0" y1="66.745125" x2="279.987" y2="66.745125" fill="rgb(0, 0, 0)" stroke="rgb(60, 60, 60)" stroke-width="1px" opacity="0.25"></line><line x1="0" y1="44.49674999999998" x2="279.987" y2="44.49674999999998" fill="rgb(0, 0, 0)" stroke="rgb(60, 60, 60)" stroke-width="1px" opacity="0.25"></line><line x1="0" y1="22.24837500000002" x2="279.987" y2="22.24837500000002" fill="rgb(0, 0, 0)" stroke="rgb(60, 60, 60)" stroke-width="1px" opacity="0.25"></line><line x1="0" y1="0" x2="279.987" y2="0" fill="rgb(0, 0, 0)" stroke="rgb(60, 60, 60)" stroke-width="1px" opacity="0.25"></line></g></g></g><g><g><line x1="0" y1="400.47075" x2="279.987" y2="400.47075" fill="rgb(0, 0, 0)" stroke="rgb(153, 153, 153)" stroke-width="1.5px"></line></g></g><g><g><line x1="23.332250000000002" y1="0" x2="23.332250000000002" y2="177.987" fill="rgb(0, 0, 0)" stroke="rgb(153, 153, 153)" stroke-width="1.5px"></line></g></g><g><g><g><g><g><path stroke="rgb(0, 153, 136)" stroke-width="2px" d="M23.332250000000002,145.21272900786997L27.998700000000003,135.78371404123305L32.665150000000004,142.1479377796948L37.3316,139.88965799582004L41.99805,136.15032944110035L46.664500000000004,134.55192024600507L51.33095,133.7014085884094L55.997400000000006,133.6574083751142L60.663850000000004,133.86271618169545L65.33030000000001,131.2378475200832L69.99675,131.88305137109757L74.6632,131.78041072887183L79.32965,131.76574399110675L83.9961,131.1058734023273L88.66255000000001,131.9857185354531L93.32900000000001,129.59546463382244L97.99545,133.18817885515094L102.6619,132.13235939097405L107.32835000000001,134.6399206725955L111.99480000000001,133.81871596840023L116.66125000000001,133.05620473739503L121.32770000000001,132.894897144109L125.99415000000002,132.4109743642509L130.66060000000002,132.4109743642509L135.32705,134.74256131482124L139.9935,133.07084495303033L144.65995000000004,133.5401009951234L149.3264,134.46394634154439L153.99285000000003,133.58410120841862L158.6593,135.27048430797458L163.32575000000003,134.83056174141169L167.9922,134.61058719706534L172.65865000000002,133.67207511287927L177.32510000000002,134.4492796037793L181.99155000000002,133.3934601396024L186.65800000000002,133.7014085884094L191.32445,135.72504709017275L195.9909,136.70755938765407L200.65735,135.54909928125142L205.3238,135.21181735691428L209.99025,136.03299553897978L214.65670000000003,135.76904730346797L219.32315000000003,134.65458741036056L223.98960000000002,136.70755938765407L228.65605000000002,135.6957401367724L233.32250000000002,134.40527939048408L237.98895000000002,133.55476773288845L242.65540000000001,134.66925414812565L247.32185,134.80122826588155L251.98830000000004,135.85704773005844" style="fill: none;" fill="none"></path></g><g><path stroke="rgb(238, 51, 119)" stroke-width="2px" d="M23.332250000000002,162.16097994250057L27.998700000000003,121.28287219789624L32.665150000000004,109.29211123850942L37.3316,100.77137312811612L41.99805,95.88440549594164L46.664500000000004,92.4143826469481L51.33095,86.72761366930604L55.997400000000006,85.53735352930427L60.663850000000004,83.09384319108725L65.33030000000001,80.05838543844223L69.99675,79.73720244687796L74.6632,77.22444282782078L79.32965,76.26089385312795L83.9961,73.8929715847671L88.66255000000001,73.18132979866861L93.32900000000001,71.70139495727419L97.99545,72.4130102212429L102.6619,69.92544662547111L107.32835000000001,69.04377146539092L111.99480000000001,67.64568391647934L116.66125000000001,66.90887262922526L121.32770000000001,66.60657339406013L125.99415000000002,65.98311768946051L130.66060000000002,65.31555568304658L135.32705,65.16440606546402L139.9935,65.80677204859256L144.65995000000004,63.85450459805131L149.3264,63.40105574530363L153.99285000000003,62.92874965828657L158.6593,62.03447648656368L163.32575000000003,60.8568143582046L167.9922,62.00299471852183L172.65865000000002,60.73086076390743L177.32510000000002,59.666554218202826L181.99155000000002,60.59230915796756L186.65800000000002,58.74079927843809L191.32445,58.81007508140802L195.9909,58.608559939384456L200.65735,57.81504433867335L205.3238,58.111031306952235L209.99025,57.75205428045988L214.65670000000003,57.6512967094481L219.32315000000003,56.99635923680663L223.98960000000002,55.623467711180446L228.65605000000002,57.25455217015743L233.32250000000002,57.13488432061672L237.98895000000002,56.769621549367905L242.65540000000001,56.064292030155656L247.32185,56.82001359593868L251.98830000000004,54.70399851617217" style="fill: none;" fill="none"></path></g><g><path stroke="rgb(51, 187, 238)" stroke-width="2px" d="M23.332250000000002,126.94126249668001L27.998700000000003,114.52076346856356L32.665150000000004,109.12438528981805L37.3316,106.71946465042234L41.99805,104.82780026641488L46.664500000000004,104.05059577551484L51.33095,103.2733912846148L55.997400000000006,103.2000841179192L60.663850000000004,102.34957246032357L65.33030000000001,103.09744347569347L69.99675,102.80416176465154L74.6632,103.9479551332891L79.32965,103.71331385117769L83.9961,103.55203278002142L88.66255000000001,103.93328839552402L93.32900000000001,104.35854422432183L97.99545,104.49051834207773L102.6619,104.02126229998468L107.32835000000001,104.8131335286498L111.99480000000001,104.56385203090309L116.66125000000001,105.15041545298695L121.32770000000001,105.26772283297777L125.99415000000002,106.04492732387781L130.66060000000002,106.36751598832011L135.32705,106.85143876817823L139.9935,107.52600261685252L144.65995000000004,107.2327209058106L149.3264,107.27669459697604L153.99285000000003,107.8632580190599L158.6593,108.4058477499783L163.32575000000003,108.56715534326433L167.9922,108.42051448774338L172.65865000000002,107.81928432789445L177.32510000000002,108.49382165443897L181.99155000000002,109.578974594146L186.65800000000002,109.19769245651364L191.32445,108.90441074547171L195.9909,109.0950518142879L200.65735,109.88692304295301L205.3238,110.19484496963024L209.99025,110.07753758963942L214.65670000000003,110.20951170739531L219.32315000000003,110.41481951397657L223.98960000000002,110.6494342739582L228.65605000000002,110.73743470054865L233.32250000000002,111.30933138486742L237.98895000000002,111.42663876485824L242.65540000000001,111.73458721366525L247.32185,111.48530571591854L251.98830000000004,112.0132021869421" style="fill: none;" fill="none"></path></g><g><path stroke="rgb(204, 51, 17)" stroke-width="2px" d="M23.332250000000002,165.02011857640744L27.998700000000003,114.53808241930604L32.665150000000004,99.80785067555308L37.3316,89.56784202468396L41.99805,83.20719877374172L46.664500000000004,77.33779841047526L51.33095,72.54527608242631L55.997400000000006,68.8863361030519L60.663850000000004,65.25259214696288L65.33030000000001,62.009280463278294L69.99675,60.075896769136186L74.6632,57.355309741169215L79.32965,55.503799861639735L83.9961,53.17367162820697L88.66255000000001,52.56278741312027L93.32900000000001,50.78686560344696L97.99545,48.70233229172229L102.6619,46.99565976288915L107.32835000000001,45.83059564617276L111.99480000000001,44.83556490343809L116.66125000000001,43.821650404304265L121.32770000000001,43.22336420086026L125.99415000000002,41.25849873867631L130.66060000000002,40.44609938156604L135.32705,40.38310932335257L139.9935,38.54419745546579L144.65995000000004,39.016530064612624L149.3264,38.12225689288974L153.99285000000003,37.30357179102302L158.6593,36.793445146948095L163.32575000000003,36.1321954074204L167.9922,36.10699938413501L172.65865000000002,34.664832055538895L177.32510000000002,33.92170850139856L181.99155000000002,33.07154163148999L186.65800000000002,33.02746185180545L191.32445,32.284338297665116L195.9909,32.49845145133138L200.65735,32.54881697577238L205.3238,31.3081913113296L209.99025,31.572696511566637L214.65670000000003,30.854768980711697L219.32315000000003,30.942928540080786L223.98960000000002,30.08644940328598L228.65605000000002,29.36852187243104L233.32250000000002,29.248854022890328L237.98895000000002,29.834542214691638L242.65540000000001,28.68207610961795L247.32185,28.581292016476393L251.98830000000004,27.73741089132428" style="fill: none;" fill="none"></path></g><g><path stroke="rgb(0, 119, 187)" stroke-width="2px" d="M23.332250000000002,195.53992897135018L27.998700000000003,163.7188368011713L32.665150000000004,150.3158519977033L37.3316,142.2066047307551L41.99805,136.13566270333527L46.664500000000004,131.80974420440197L51.33095,127.92374827203155L55.997400000000006,125.02026463714242L60.663850000000004,122.68867768657208L65.33030000000001,120.6210389715135L69.99675,118.24545180764794L74.6632,116.79370999020338L79.32965,115.10732689064741L83.9961,114.02220047307014L88.66255000000001,112.73173972678184L93.32900000000001,111.45597224038839L97.99545,110.59079384502768L102.6619,109.54964111861587L107.32835000000001,108.81643684101104L111.99480000000001,108.37651427444816L116.66125000000001,107.54064283248782L121.32770000000001,106.89543898147345L125.99415000000002,106.13290122833848L130.66060000000002,105.69297866177558L135.32705,105.42903042626381L139.9935,104.75446657758951L144.65995000000004,104.44651812878251L149.3264,104.18256989327072L153.99285000000003,103.78664754000306L158.6593,103.69867363554239L163.32575000000003,103.53736604225635L167.9922,103.11211021345854L172.65865000000002,102.76016155135632L177.32510000000002,102.55485374477506L181.99155000000002,102.49621331584453L186.65800000000002,102.02695727375149L191.32445,101.77767577600478L195.9909,101.7923159916401L200.65735,101.42572711390257L205.3238,101.10311192733049L209.99025,100.98580454733967L214.65670000000003,100.76583000299334L219.32315000000003,100.94180433404445L223.98960000000002,100.589882194072L228.65605000000002,100.28193374526501L233.32250000000002,100.51654850524663L237.98895000000002,100.20860005643964L242.65540000000001,100.03262572538853L247.32185,100.14995962750912L251.98830000000004,99.91531834539771" style="fill: none;" fill="none"></path></g><g><path stroke="rgb(255, 112, 67)" stroke-width="2px" d="M27.998700000000003,178.9064559339434L32.665150000000004,156.7260916313231L37.3316,144.363782155931L41.99805,137.20964982640743L46.664500000000004,130.81121254053713L51.33095,125.45191229921579L55.997400000000006,121.35843374562263L60.663850000000004,117.00676225867868L65.33030000000001,113.39818780374527L69.99675,111.23809294429421L74.6632,108.7316190699935L79.32965,106.06770983335376L83.9961,103.4415946316421L88.66255000000001,101.59008475211263L93.32900000000001,98.93877352711559L97.99545,98.08229439032077L102.6619,96.54565523546934L107.32835000000001,94.83898270663619L111.99480000000001,92.61592431110144L116.66125000000001,91.89797025811671L121.32770000000001,89.85123098132014L125.99415000000002,89.30964909133314L130.66060000000002,87.8611694958508L135.32705,87.31327533897758L139.9935,85.41768567976355L144.65995000000004,84.82571174320579L149.3264,83.89364453655482L153.99285000000003,83.36466065821051L158.6593,81.8028254800737L163.32575000000003,81.08489794921874L167.9922,80.41105019804836L172.65865000000002,79.18930829000473L177.32510000000002,78.06832395297289L181.99155000000002,77.5519115641415L186.65800000000002,76.7583959634304L191.32445,75.97119262960553L195.9909,75.76336522069573L200.65735,74.23303833273053L205.3238,73.24431985688209L209.99025,72.97981465664506L214.65670000000003,72.52636580389738L219.32315000000003,71.33613218602538L223.98960000000002,70.45445702594519L228.65605000000002,70.6370884115696L233.32250000000002,69.2641968859434L237.98895000000002,69.13824329164623L242.65540000000001,68.14321254891156L247.32185,67.1481818061769L251.98830000000004,67.0033179333508" style="fill: none;" fill="none"></path></g></g></g></g></g></g><g transform="translate(50, 177)" clip-path="url(#clip_1)"><clipPath id="clip_1"><rect width="279" height="21"></rect></clipPath><g><g><line x1="0" y1="0" x2="0" y2="5" style="visibility: inherit;" fill="rgb(0, 0, 0)" stroke="rgb(204, 204, 204)" stroke-width="1px"></line><line x1="23.332250000000002" y1="0" x2="23.332250000000002" y2="5" style="visibility: inherit;" fill="rgb(0, 0, 0)" stroke="rgb(204, 204, 204)" stroke-width="1px"></line><line x1="46.664500000000004" y1="0" x2="46.664500000000004" y2="5" style="visibility: inherit;" fill="rgb(0, 0, 0)" stroke="rgb(204, 204, 204)" stroke-width="1px"></line><line x1="69.99675" y1="0" x2="69.99675" y2="5" style="visibility: inherit;" fill="rgb(0, 0, 0)" stroke="rgb(204, 204, 204)" stroke-width="1px"></line><line x1="93.32900000000001" y1="0" x2="93.32900000000001" y2="5" style="visibility: inherit;" fill="rgb(0, 0, 0)" stroke="rgb(204, 204, 204)" stroke-width="1px"></line><line x1="116.66125000000001" y1="0" x2="116.66125000000001" y2="5" style="visibility: inherit;" fill="rgb(0, 0, 0)" stroke="rgb(204, 204, 204)" stroke-width="1px"></line><line x1="139.9935" y1="0" x2="139.9935" y2="5" style="visibility: inherit;" fill="rgb(0, 0, 0)" stroke="rgb(204, 204, 204)" stroke-width="1px"></line><line x1="163.32575000000003" y1="0" x2="163.32575000000003" y2="5" style="visibility: inherit;" fill="rgb(0, 0, 0)" stroke="rgb(204, 204, 204)" stroke-width="1px"></line><line x1="186.65800000000002" y1="0" x2="186.65800000000002" y2="5" style="visibility: inherit;" fill="rgb(0, 0, 0)" stroke="rgb(204, 204, 204)" stroke-width="1px"></line><line x1="209.99025" y1="0" x2="209.99025" y2="5" style="visibility: inherit;" fill="rgb(0, 0, 0)" stroke="rgb(204, 204, 204)" stroke-width="1px"></line><line x1="233.32250000000002" y1="0" x2="233.32250000000002" y2="5" style="visibility: inherit;" fill="rgb(0, 0, 0)" stroke="rgb(204, 204, 204)" stroke-width="1px"></line><line x1="256.65475000000004" y1="0" x2="256.65475000000004" y2="5" style="visibility: inherit;" fill="rgb(0, 0, 0)" stroke="rgb(204, 204, 204)" stroke-width="1px"></line><line x1="279.987" y1="0" x2="279.987" y2="5" style="visibility: inherit;" fill="rgb(0, 0, 0)" stroke="rgb(204, 204, 204)" stroke-width="1px"></line></g><g transform="translate(0, 8)"><text x="0" y="0" dx="0em" dy="0.95em" style="text-anchor: middle; visibility: hidden; font-family: Roboto, sans-serif; font-size: 12px; font-weight: 200;" fill="rgb(50, 49, 63)" stroke="none" stroke-width="1px">-5</text><text x="23.332250000000002" y="0" dx="0em" dy="0.95em" style="text-anchor: middle; visibility: inherit; font-family: Roboto, sans-serif; font-size: 12px; font-weight: 200;" fill="rgb(50, 49, 63)" stroke="none" stroke-width="1px">0</text><text x="46.664500000000004" y="0" dx="0em" dy="0.95em" style="text-anchor: middle; visibility: inherit; font-family: Roboto, sans-serif; font-size: 12px; font-weight: 200;" fill="rgb(50, 49, 63)" stroke="none" stroke-width="1px">5</text><text x="69.99675" y="0" dx="0em" dy="0.95em" style="text-anchor: middle; visibility: inherit; font-family: Roboto, sans-serif; font-size: 12px; font-weight: 200;" fill="rgb(50, 49, 63)" stroke="none" stroke-width="1px">10</text><text x="93.32900000000001" y="0" dx="0em" dy="0.95em" style="text-anchor: middle; visibility: inherit; font-family: Roboto, sans-serif; font-size: 12px; font-weight: 200;" fill="rgb(50, 49, 63)" stroke="none" stroke-width="1px">15</text><text x="116.66125000000001" y="0" dx="0em" dy="0.95em" style="text-anchor: middle; visibility: inherit; font-family: Roboto, sans-serif; font-size: 12px; font-weight: 200;" fill="rgb(50, 49, 63)" stroke="none" stroke-width="1px">20</text><text x="139.9935" y="0" dx="0em" dy="0.95em" style="text-anchor: middle; visibility: inherit; font-family: Roboto, sans-serif; font-size: 12px; font-weight: 200;" fill="rgb(50, 49, 63)" stroke="none" stroke-width="1px">25</text><text x="163.32575000000003" y="0" dx="0em" dy="0.95em" style="text-anchor: middle; visibility: inherit; font-family: Roboto, sans-serif; font-size: 12px; font-weight: 200;" fill="rgb(50, 49, 63)" stroke="none" stroke-width="1px">30</text><text x="186.65800000000002" y="0" dx="0em" dy="0.95em" style="text-anchor: middle; visibility: inherit; font-family: Roboto, sans-serif; font-size: 12px; font-weight: 200;" fill="rgb(50, 49, 63)" stroke="none" stroke-width="1px">35</text><text x="209.99025" y="0" dx="0em" dy="0.95em" style="text-anchor: middle; visibility: inherit; font-family: Roboto, sans-serif; font-size: 12px; font-weight: 200;" fill="rgb(50, 49, 63)" stroke="none" stroke-width="1px">40</text><text x="233.32250000000002" y="0" dx="0em" dy="0.95em" style="text-anchor: middle; visibility: inherit; font-family: Roboto, sans-serif; font-size: 12px; font-weight: 200;" fill="rgb(50, 49, 63)" stroke="none" stroke-width="1px">45</text><text x="256.65475000000004" y="0" dx="0em" dy="0.95em" style="text-anchor: middle; visibility: inherit; font-family: Roboto, sans-serif; font-size: 12px; font-weight: 200;" fill="rgb(50, 49, 63)" stroke="none" stroke-width="1px">50</text><text x="279.987" y="0" dx="0em" dy="0.95em" style="text-anchor: middle; visibility: hidden; font-family: Roboto, sans-serif; font-size: 12px; font-weight: 200;" fill="rgb(50, 49, 63)" stroke="none" stroke-width="1px">55</text></g><line x1="0" y1="0" x2="279.987" y2="0" fill="rgb(0, 0, 0)" stroke="rgb(204, 204, 204)" stroke-width="1px"></line></g></g></g></g></svg>