<svg viewBox="0 0 329.98699951171875 199.9865264892578" xmlns="http://www.w3.org/2000/svg"><g><g><g><g><g><line x1="50" y1="177.987" x2="45" y2="177.987" style="visibility: inherit;" fill="rgb(0, 0, 0)" stroke="rgb(204, 204, 204)" stroke-width="1px"></line><line x1="50" y1="161.8063636363636" x2="45" y2="161.8063636363636" style="visibility: inherit;" fill="rgb(0, 0, 0)" stroke="rgb(204, 204, 204)" stroke-width="1px"></line><line x1="50" y1="145.62572727272726" x2="45" y2="145.62572727272726" style="visibility: inherit;" fill="rgb(0, 0, 0)" stroke="rgb(204, 204, 204)" stroke-width="1px"></line><line x1="50" y1="129.4450909090909" x2="45" y2="129.4450909090909" style="visibility: inherit;" fill="rgb(0, 0, 0)" stroke="rgb(204, 204, 204)" stroke-width="1px"></line><line x1="50" y1="113.26445454545454" x2="45" y2="113.26445454545454" style="visibility: inherit;" fill="rgb(0, 0, 0)" stroke="rgb(204, 204, 204)" stroke-width="1px"></line><line x1="50" y1="97.08381818181817" x2="45" y2="97.08381818181817" style="visibility: inherit;" fill="rgb(0, 0, 0)" stroke="rgb(204, 204, 204)" stroke-width="1px"></line><line x1="50" y1="80.90318181818182" x2="45" y2="80.90318181818182" style="visibility: inherit;" fill="rgb(0, 0, 0)" stroke="rgb(204, 204, 204)" stroke-width="1px"></line><line x1="50" y1="64.72254545454545" x2="45" y2="64.72254545454545" style="visibility: inherit;" fill="rgb(0, 0, 0)" stroke="rgb(204, 204, 204)" stroke-width="1px"></line><line x1="50" y1="48.54190909090909" x2="45" y2="48.54190909090909" style="visibility: inherit;" fill="rgb(0, 0, 0)" stroke="rgb(204, 204, 204)" stroke-width="1px"></line><line x1="50" y1="32.36127272727272" x2="45" y2="32.36127272727272" style="visibility: inherit;" fill="rgb(0, 0, 0)" stroke="rgb(204, 204, 204)" stroke-width="1px"></line><line x1="50" y1="16.180636363636367" x2="45" y2="16.180636363636367" style="visibility: inherit;" fill="rgb(0, 0, 0)" stroke="rgb(204, 204, 204)" stroke-width="1px"></line><line x1="50" y1="0" x2="45" y2="0" style="visibility: inherit;" fill="rgb(0, 0, 0)" stroke="rgb(204, 204, 204)" stroke-width="1px"></line></g><g transform="translate(40, 0)"><text x="0" y="177.987" dx="0em" dy="0.3em" style="text-anchor: end; visibility: hidden; font-family: Roboto, sans-serif; font-size: 12px; font-weight: 200;" fill="rgb(50, 49, 63)" stroke="none" stroke-width="1px">-0.5</text><text x="0" y="161.8063636363636" dx="0em" dy="0.3em" style="text-anchor: end; visibility: inherit; font-family: Roboto, sans-serif; font-size: 12px; font-weight: 200;" fill="rgb(50, 49, 63)" stroke="none" stroke-width="1px">0</text><text x="0" y="145.62572727272726" dx="0em" dy="0.3em" style="text-anchor: end; visibility: hidden; font-family: Roboto, sans-serif; font-size: 12px; font-weight: 200;" fill="rgb(50, 49, 63)" stroke="none" stroke-width="1px">0.5</text><text x="0" y="129.4450909090909" dx="0em" dy="0.3em" style="text-anchor: end; visibility: inherit; font-family: Roboto, sans-serif; font-size: 12px; font-weight: 200;" fill="rgb(50, 49, 63)" stroke="none" stroke-width="1px">1</text><text x="0" y="113.26445454545454" dx="0em" dy="0.3em" style="text-anchor: end; visibility: hidden; font-family: Roboto, sans-serif; font-size: 12px; font-weight: 200;" fill="rgb(50, 49, 63)" stroke="none" stroke-width="1px">1.5</text><text x="0" y="97.08381818181817" dx="0em" dy="0.3em" style="text-anchor: end; visibility: inherit; font-family: Roboto, sans-serif; font-size: 12px; font-weight: 200;" fill="rgb(50, 49, 63)" stroke="none" stroke-width="1px">2</text><text x="0" y="80.90318181818182" dx="0em" dy="0.3em" style="text-anchor: end; visibility: hidden; font-family: Roboto, sans-serif; font-size: 12px; font-weight: 200;" fill="rgb(50, 49, 63)" stroke="none" stroke-width="1px">2.5</text><text x="0" y="64.72254545454545" dx="0em" dy="0.3em" style="text-anchor: end; visibility: inherit; font-family: Roboto, sans-serif; font-size: 12px; font-weight: 200;" fill="rgb(50, 49, 63)" stroke="none" stroke-width="1px">3</text><text x="0" y="48.54190909090909" dx="0em" dy="0.3em" style="text-anchor: end; visibility: hidden; font-family: Roboto, sans-serif; font-size: 12px; font-weight: 200;" fill="rgb(50, 49, 63)" stroke="none" stroke-width="1px">3.5</text><text x="0" y="32.36127272727272" dx="0em" dy="0.3em" style="text-anchor: end; visibility: inherit; font-family: Roboto, sans-serif; font-size: 12px; font-weight: 200;" fill="rgb(50, 49, 63)" stroke="none" stroke-width="1px">4</text><text x="0" y="16.180636363636367" dx="0em" dy="0.3em" style="text-anchor: end; visibility: hidden; font-family: Roboto, sans-serif; font-size: 12px; font-weight: 200;" fill="rgb(50, 49, 63)" stroke="none" stroke-width="1px">4.5</text><text x="0" y="0" dx="0em" dy="0.3em" style="text-anchor: end; visibility: hidden; font-family: Roboto, sans-serif; font-size: 12px; font-weight: 200;" fill="rgb(50, 49, 63)" stroke="none" stroke-width="1px">5</text></g><line x1="50" y1="0" x2="50" y2="177.987" fill="rgb(0, 0, 0)" stroke="rgb(204, 204, 204)" stroke-width="1px"></line></g></g><g transform="translate(50, 0)" clip-path="url(#clip_0)"><clipPath id="clip_0"><rect width="279" height="177"></rect></clipPath><g><g><g><line x1="0" y1="0" x2="0" y2="177.987" fill="rgb(0, 0, 0)" stroke="rgb(60, 60, 60)" stroke-width="1px" opacity="0.25"></line><line x1="23.332250000000002" y1="0" x2="23.332250000000002" y2="177.987" fill="rgb(0, 0, 0)" stroke="rgb(60, 60, 60)" stroke-width="1px" opacity="0.25"></line><line x1="46.664500000000004" y1="0" x2="46.664500000000004" y2="177.987" fill="rgb(0, 0, 0)" stroke="rgb(60, 60, 60)" stroke-width="1px" opacity="0.25"></line><line x1="69.99675" y1="0" x2="69.99675" y2="177.987" fill="rgb(0, 0, 0)" stroke="rgb(60, 60, 60)" stroke-width="1px" opacity="0.25"></line><line x1="93.32900000000001" y1="0" x2="93.32900000000001" y2="177.987" fill="rgb(0, 0, 0)" stroke="rgb(60, 60, 60)" stroke-width="1px" opacity="0.25"></line><line x1="116.66125000000001" y1="0" x2="116.66125000000001" y2="177.987" fill="rgb(0, 0, 0)" stroke="rgb(60, 60, 60)" stroke-width="1px" opacity="0.25"></line><line x1="139.9935" y1="0" x2="139.9935" y2="177.987" fill="rgb(0, 0, 0)" stroke="rgb(60, 60, 60)" stroke-width="1px" opacity="0.25"></line><line x1="163.32575000000003" y1="0" x2="163.32575000000003" y2="177.987" fill="rgb(0, 0, 0)" stroke="rgb(60, 60, 60)" stroke-width="1px" opacity="0.25"></line><line x1="186.65800000000002" y1="0" x2="186.65800000000002" y2="177.987" fill="rgb(0, 0, 0)" stroke="rgb(60, 60, 60)" stroke-width="1px" opacity="0.25"></line><line x1="209.99025" y1="0" x2="209.99025" y2="177.987" fill="rgb(0, 0, 0)" stroke="rgb(60, 60, 60)" stroke-width="1px" opacity="0.25"></line><line x1="233.32250000000002" y1="0" x2="233.32250000000002" y2="177.987" fill="rgb(0, 0, 0)" stroke="rgb(60, 60, 60)" stroke-width="1px" opacity="0.25"></line><line x1="256.65475000000004" y1="0" x2="256.65475000000004" y2="177.987" fill="rgb(0, 0, 0)" stroke="rgb(60, 60, 60)" stroke-width="1px" opacity="0.25"></line><line x1="279.987" y1="0" x2="279.987" y2="177.987" fill="rgb(0, 0, 0)" stroke="rgb(60, 60, 60)" stroke-width="1px" opacity="0.25"></line></g><g><line x1="0" y1="177.987" x2="279.987" y2="177.987" fill="rgb(0, 0, 0)" stroke="rgb(60, 60, 60)" stroke-width="1px" opacity="0.25"></line><line x1="0" y1="161.8063636363636" x2="279.987" y2="161.8063636363636" fill="rgb(0, 0, 0)" stroke="rgb(60, 60, 60)" stroke-width="1px" opacity="0.25"></line><line x1="0" y1="145.62572727272726" x2="279.987" y2="145.62572727272726" fill="rgb(0, 0, 0)" stroke="rgb(60, 60, 60)" stroke-width="1px" opacity="0.25"></line><line x1="0" y1="129.4450909090909" x2="279.987" y2="129.4450909090909" fill="rgb(0, 0, 0)" stroke="rgb(60, 60, 60)" stroke-width="1px" opacity="0.25"></line><line x1="0" y1="113.26445454545454" x2="279.987" y2="113.26445454545454" fill="rgb(0, 0, 0)" stroke="rgb(60, 60, 60)" stroke-width="1px" opacity="0.25"></line><line x1="0" y1="97.08381818181817" x2="279.987" y2="97.08381818181817" fill="rgb(0, 0, 0)" stroke="rgb(60, 60, 60)" stroke-width="1px" opacity="0.25"></line><line x1="0" y1="80.90318181818182" x2="279.987" y2="80.90318181818182" fill="rgb(0, 0, 0)" stroke="rgb(60, 60, 60)" stroke-width="1px" opacity="0.25"></line><line x1="0" y1="64.72254545454545" x2="279.987" y2="64.72254545454545" fill="rgb(0, 0, 0)" stroke="rgb(60, 60, 60)" stroke-width="1px" opacity="0.25"></line><line x1="0" y1="48.54190909090909" x2="279.987" y2="48.54190909090909" fill="rgb(0, 0, 0)" stroke="rgb(60, 60, 60)" stroke-width="1px" opacity="0.25"></line><line x1="0" y1="32.36127272727272" x2="279.987" y2="32.36127272727272" fill="rgb(0, 0, 0)" stroke="rgb(60, 60, 60)" stroke-width="1px" opacity="0.25"></line><line x1="0" y1="16.180636363636367" x2="279.987" y2="16.180636363636367" fill="rgb(0, 0, 0)" stroke="rgb(60, 60, 60)" stroke-width="1px" opacity="0.25"></line><line x1="0" y1="0" x2="279.987" y2="0" fill="rgb(0, 0, 0)" stroke="rgb(60, 60, 60)" stroke-width="1px" opacity="0.25"></line></g></g></g><g><g><line x1="0" y1="161.8063636363636" x2="279.987" y2="161.8063636363636" fill="rgb(0, 0, 0)" stroke="rgb(153, 153, 153)" stroke-width="1.5px"></line></g></g><g><g><line x1="23.332250000000002" y1="0" x2="23.332250000000002" y2="177.987" fill="rgb(0, 0, 0)" stroke="rgb(153, 153, 153)" stroke-width="1.5px"></line></g></g><g><g><g><g><g><path stroke="rgb(0, 119, 187)" stroke-width="2px" d="M23.332250000000002,98.75644835153493L27.998700000000003,96.3050281497782L32.665150000000004,92.10362960347263L37.3316,89.56046790816568L41.99805,86.1508214820515L46.664500000000004,83.77416089526089L51.33095,80.92335021010311L55.997400000000006,78.53382012150504L60.663850000000004,76.09709414408424L65.33030000000001,74.63381327130577L69.99675,72.71725280518964L74.6632,70.09843263582749L79.32965,68.63852344907414L83.9961,66.21264550495148L88.66255000000001,64.58462266419151L93.32900000000001,62.57346981668472L97.99545,61.29936599115892L102.6619,58.5618732754534L107.32835000000001,58.52378942597996L111.99480000000001,54.97922155016119L116.66125000000001,55.09078809460727L121.32770000000001,52.80181449105522L125.99415000000002,51.64502527882835L130.66060000000002,51.03266691554677L135.32705,48.33916814426942L139.9935,47.32007797206532L144.65995000000004,44.11243180183931L149.3264,45.45974827883461L153.99285000000003,43.716455439871L158.6593,41.82514018353549L163.32575000000003,42.07192136777532L167.9922,39.33969835814563L172.65865000000002,39.19436866027658L177.32510000000002,37.852746243433515L181.99155000000002,36.10449231954054L186.65800000000002,35.87211602731184L191.32445,33.88437209376422L195.9909,31.488507556135012L200.65735,31.932428213206208L205.3238,32.96380922256816L209.99025,29.828804754690687L214.65670000000003,28.072565258633013L219.32315000000003,26.197429465900772L223.98960000000002,27.552060264067215L228.65605000000002,25.723757730310606L233.32250000000002,24.362661319125777L237.98895000000002,26.21850829020413L242.65540000000001,23.562993066527635L247.32185,23.886258286389435L251.98830000000004,22.36796569425409" style="fill: none;" fill="none"></path></g><g><path stroke="rgb(255, 112, 67)" stroke-width="2px" d="M23.332250000000002,96.83925135430422L27.998700000000003,110.51084409037503L32.665150000000004,114.2944544751861L37.3316,117.02822444831243L41.99805,118.83261270098252L46.664500000000004,119.86695647335053L51.33095,120.72708746630494L55.997400000000006,121.58405123474382L60.663850000000004,122.47074679287998L65.33030000000001,122.68141158745505L69.99675,123.33126742003179L74.6632,123.6422225139141L79.32965,124.154005103328L83.9961,124.11218693798239L88.66255000000001,124.61387375814263L93.32900000000001,124.67888866040921L97.99545,124.8881376554749L102.6619,125.06881219014255L107.32835000000001,124.93309989875013L111.99480000000001,125.69812928542224L116.66125000000001,125.15777223561025L121.32770000000001,125.15906458666109L125.99415000000002,125.66015345335006L130.66060000000002,126.07043054769254L135.32705,125.94707853321596L139.9935,126.12897983694076L144.65995000000004,126.1359546748508L149.3264,125.60803119947694L153.99285000000003,125.78556165621497L158.6593,126.13182300925254L163.32575000000003,126.14948771212316L167.9922,126.35237139604307L172.65865000000002,126.67199488637662L177.32510000000002,126.53340470279345L181.99155000000002,126.08120142570408L186.65800000000002,126.83691431151738L191.32445,126.51433963147076L195.9909,126.48485088092629L200.65735,126.43934469288045L205.3238,126.7602952541438L209.99025,125.9267288263711L214.65670000000003,126.68676626599917L219.32315000000003,126.5278456643928L223.98960000000002,126.97410026888414L228.65605000000002,127.03187800526618L233.32250000000002,126.4992403418801L237.98895000000002,126.2887491466999L242.65540000000001,126.65128640744902L247.32185,126.12810798220201L251.98830000000004,126.82329640342974" style="fill: none;" fill="none"></path></g><g><path stroke="rgb(51, 187, 238)" stroke-width="2px" d="M23.332250000000002,115.92765057791361L27.998700000000003,119.12668621815332L32.665150000000004,120.43769341726735L37.3316,120.84942103099823L41.99805,120.92462428886239L46.664500000000004,120.96781967607411L51.33095,120.88158706998824L55.997400000000006,120.73114583438094L60.663850000000004,120.48933730836347L65.33030000000001,120.26843400725451L69.99675,119.98976068529215L74.6632,119.67419170527025L79.32965,119.48403092811323L83.9961,119.00047560030762L88.66255000000001,118.6998323104815L93.32900000000001,118.37070714660123L97.99545,118.02654827512393L102.6619,117.7941025431373L107.32835000000001,117.31981742301853L111.99480000000001,117.0727816263329L116.66125000000001,116.63617143266852L121.32770000000001,116.3158149671121L125.99415000000002,115.98620758269048L130.66060000000002,115.72896799934992L135.32705,115.41240371613068L139.9935,115.13376125628297L144.65995000000004,114.91918083091215L149.3264,114.48003608608245L153.99285000000003,114.26167505166745L158.6593,113.93336001829667L163.32575000000003,113.7579050387686L167.9922,113.36322488561542L172.65865000000002,113.15240963823145L177.32510000000002,112.68536554176156L181.99155000000002,112.43362327259237L186.65800000000002,112.3311224743236L191.32445,112.00113702899759L195.9909,111.54580896280027L200.65735,111.39288718472828L205.3238,111.16411790214886L209.99025,110.85261500573158L214.65670000000003,110.70858923220634L219.32315000000003,110.35602429225229L223.98960000000002,110.16317465335672L228.65605000000002,109.86935189086739L233.32250000000002,109.76899215180222L237.98895000000002,109.32666860916399L242.65540000000001,109.19283890676498L247.32185,108.84200996075978L251.98830000000004,108.76553364066643" style="fill: none;" fill="none"></path></g><g><path stroke="rgb(204, 51, 17)" stroke-width="2px" d="M23.332250000000002,102.74909941213781L27.998700000000003,119.80049876722423L32.665150000000004,124.32496578741073L37.3316,127.24999985829265L41.99805,129.27189272169633L46.664500000000004,131.01459725159947L51.33095,132.33245776904712L55.997400000000006,133.4134149078239L60.663850000000004,134.38278428445076L65.33030000000001,135.24060254768892L69.99675,135.93059456036306L74.6632,136.61272830709544L79.32965,137.20416408552907L83.9961,137.75855375309425L88.66255000000001,138.24767583482915L93.32900000000001,138.612425523422L97.99545,138.9963810917356L102.6619,139.40455377563563L107.32835000000001,139.8130273651535L111.99480000000001,139.9805893588608L116.66125000000001,140.4888343783834L121.32770000000001,140.56232286000252L125.99415000000002,140.76756556681067L130.66060000000002,141.14704805738273L135.32705,141.30365592927282L139.9935,141.5947551101446L144.65995000000004,141.8038922300447L149.3264,141.91986241247437L153.99285000000003,141.98132238491016L158.6593,142.26100258336282L163.32575000000003,142.45613987650654L167.9922,142.4432298681736L172.65865000000002,142.67490790505843L177.32510000000002,142.83650579511036L181.99155000000002,142.9322921545614L186.65800000000002,143.06333076446708L191.32445,143.3009266118353L195.9909,143.37913506811316L200.65735,143.44196454688637L205.3238,143.56190822657672L209.99025,143.63309362289039L214.65670000000003,143.7472873048457L219.32315000000003,143.88716212395104L223.98960000000002,143.7825762040615L228.65605000000002,143.91129051095788L233.32250000000002,144.16622315122865L237.98895000000002,144.13538032540407L242.65540000000001,144.37347768213533L247.32185,144.34137143849242L251.98830000000004,144.46756855416297" style="fill: none;" fill="none"></path></g><g><path stroke="rgb(0, 153, 136)" stroke-width="2px" d="M23.332250000000002,87.18521926312013L27.998700000000003,101.61335044657102L32.665150000000004,107.44572688111391L37.3316,110.69936531769147L41.99805,112.83092284772611L46.664500000000004,114.35115203755552L51.33095,115.51949525395305L55.997400000000006,116.43767402679269L60.663850000000004,117.1945288108479L65.33030000000001,117.82676623372598L69.99675,118.35858990883827L74.6632,118.81979720787568L79.32965,119.22168752256306L83.9961,119.5690444806706L88.66255000000001,119.8911446557045L93.32900000000001,120.15641610438172L97.99545,120.40855186551268L102.6619,120.62305127783254L107.32835000000001,120.83215367785367L111.99480000000001,121.00946424202485L116.66125000000001,121.18802086407487L121.32770000000001,121.33301879421147L125.99415000000002,121.46404004417768L130.66060000000002,121.59448648725858L135.32705,121.71008439543031L139.9935,121.8172916661826L144.65995000000004,121.92280152062936L149.3264,122.00670403705945L153.99285000000003,122.0768536236503L158.6593,122.16812832771649L163.32575000000003,122.24809978229348L167.9922,122.30531428508326L172.65865000000002,122.35401084423064L177.32510000000002,122.41457002869518L181.99155000000002,122.45304737013036L186.65800000000002,122.51065536488184L191.32445,122.55379674339294L195.9909,122.58322762747244L200.65735,122.61613821497829L205.3238,122.64292267272688L209.99025,122.68671987117419L214.65670000000003,122.70588910213382L219.32315000000003,122.73141207094625L223.98960000000002,122.75609404713457L228.65605000000002,122.76577317784047L233.32250000000002,122.77931007287718L237.98895000000002,122.79253834676742L242.65540000000001,122.81039979561892L247.32185,122.81471663390508L251.98830000000004,122.8172048918984" style="fill: none;" fill="none"></path></g><g><path stroke="rgb(238, 51, 119)" stroke-width="2px" d="M23.332250000000002,60.51392517341267L27.998700000000003,94.96946242293444L32.665150000000004,104.64395609612897L37.3316,109.54936962845109L41.99805,112.61048247833685L46.664500000000004,114.85391903172841L51.33095,116.58567329757864L55.997400000000006,118.08728877451203L60.663850000000004,119.25563970643823L65.33030000000001,120.25987748596883L69.99675,121.20438550036604L74.6632,122.00631054509768L79.32965,122.75794577401335L83.9961,123.45277542315831L88.66255000000001,124.06432751369476L93.32900000000001,124.60718439479307L97.99545,125.1644345946095L102.6619,125.69478460374745L107.32835000000001,126.08216586678678L111.99480000000001,126.57076715033705L116.66125000000001,126.97048940147052L121.32770000000001,127.42447496568074L125.99415000000002,127.76295135029879L130.66060000000002,128.1020449772098L135.32705,128.47631755705314L139.9935,128.7881830833175L144.65995000000004,129.12861149668694L149.3264,129.42757280126483L153.99285000000003,129.69020553913984L158.6593,129.97264211020686L163.32575000000003,130.20803324526008L167.9922,130.47538402891158L172.65865000000002,130.75411135957455L177.32510000000002,130.96773120162703L181.99155000000002,131.29367178105224L186.65800000000002,131.46343655819243L191.32445,131.66816425346246L195.9909,131.87252546112103L200.65735,132.06272481592134L205.3238,132.2684188811562L209.99025,132.49104081627456L214.65670000000003,132.68435724465414L219.32315000000003,132.89953369461406L223.98960000000002,133.02750152411244L228.65605000000002,133.21221899579874L233.32250000000002,133.49207472252846L237.98895000000002,133.54376490679653L242.65540000000001,133.72807731322808L247.32185,133.93626928086715L251.98830000000004,134.06331703357262" style="fill: none;" fill="none"></path></g></g></g></g></g></g><g transform="translate(50, 177)" clip-path="url(#clip_1)"><clipPath id="clip_1"><rect width="279" height="21"></rect></clipPath><g><g><line x1="0" y1="0" x2="0" y2="5" style="visibility: inherit;" fill="rgb(0, 0, 0)" stroke="rgb(204, 204, 204)" stroke-width="1px"></line><line x1="23.332250000000002" y1="0" x2="23.332250000000002" y2="5" style="visibility: inherit;" fill="rgb(0, 0, 0)" stroke="rgb(204, 204, 204)" stroke-width="1px"></line><line x1="46.664500000000004" y1="0" x2="46.664500000000004" y2="5" style="visibility: inherit;" fill="rgb(0, 0, 0)" stroke="rgb(204, 204, 204)" stroke-width="1px"></line><line x1="69.99675" y1="0" x2="69.99675" y2="5" style="visibility: inherit;" fill="rgb(0, 0, 0)" stroke="rgb(204, 204, 204)" stroke-width="1px"></line><line x1="93.32900000000001" y1="0" x2="93.32900000000001" y2="5" style="visibility: inherit;" fill="rgb(0, 0, 0)" stroke="rgb(204, 204, 204)" stroke-width="1px"></line><line x1="116.66125000000001" y1="0" x2="116.66125000000001" y2="5" style="visibility: inherit;" fill="rgb(0, 0, 0)" stroke="rgb(204, 204, 204)" stroke-width="1px"></line><line x1="139.9935" y1="0" x2="139.9935" y2="5" style="visibility: inherit;" fill="rgb(0, 0, 0)" stroke="rgb(204, 204, 204)" stroke-width="1px"></line><line x1="163.32575000000003" y1="0" x2="163.32575000000003" y2="5" style="visibility: inherit;" fill="rgb(0, 0, 0)" stroke="rgb(204, 204, 204)" stroke-width="1px"></line><line x1="186.65800000000002" y1="0" x2="186.65800000000002" y2="5" style="visibility: inherit;" fill="rgb(0, 0, 0)" stroke="rgb(204, 204, 204)" stroke-width="1px"></line><line x1="209.99025" y1="0" x2="209.99025" y2="5" style="visibility: inherit;" fill="rgb(0, 0, 0)" stroke="rgb(204, 204, 204)" stroke-width="1px"></line><line x1="233.32250000000002" y1="0" x2="233.32250000000002" y2="5" style="visibility: inherit;" fill="rgb(0, 0, 0)" stroke="rgb(204, 204, 204)" stroke-width="1px"></line><line x1="256.65475000000004" y1="0" x2="256.65475000000004" y2="5" style="visibility: inherit;" fill="rgb(0, 0, 0)" stroke="rgb(204, 204, 204)" stroke-width="1px"></line><line x1="279.987" y1="0" x2="279.987" y2="5" style="visibility: inherit;" fill="rgb(0, 0, 0)" stroke="rgb(204, 204, 204)" stroke-width="1px"></line></g><g transform="translate(0, 8)"><text x="0" y="0" dx="0em" dy="0.95em" style="text-anchor: middle; visibility: hidden; font-family: Roboto, sans-serif; font-size: 12px; font-weight: 200;" fill="rgb(50, 49, 63)" stroke="none" stroke-width="1px">-5</text><text x="23.332250000000002" y="0" dx="0em" dy="0.95em" style="text-anchor: middle; visibility: inherit; font-family: Roboto, sans-serif; font-size: 12px; font-weight: 200;" fill="rgb(50, 49, 63)" stroke="none" stroke-width="1px">0</text><text x="46.664500000000004" y="0" dx="0em" dy="0.95em" style="text-anchor: middle; visibility: inherit; font-family: Roboto, sans-serif; font-size: 12px; font-weight: 200;" fill="rgb(50, 49, 63)" stroke="none" stroke-width="1px">5</text><text x="69.99675" y="0" dx="0em" dy="0.95em" style="text-anchor: middle; visibility: inherit; font-family: Roboto, sans-serif; font-size: 12px; font-weight: 200;" fill="rgb(50, 49, 63)" stroke="none" stroke-width="1px">10</text><text x="93.32900000000001" y="0" dx="0em" dy="0.95em" style="text-anchor: middle; visibility: inherit; font-family: Roboto, sans-serif; font-size: 12px; font-weight: 200;" fill="rgb(50, 49, 63)" stroke="none" stroke-width="1px">15</text><text x="116.66125000000001" y="0" dx="0em" dy="0.95em" style="text-anchor: middle; visibility: inherit; font-family: Roboto, sans-serif; font-size: 12px; font-weight: 200;" fill="rgb(50, 49, 63)" stroke="none" stroke-width="1px">20</text><text x="139.9935" y="0" dx="0em" dy="0.95em" style="text-anchor: middle; visibility: inherit; font-family: Roboto, sans-serif; font-size: 12px; font-weight: 200;" fill="rgb(50, 49, 63)" stroke="none" stroke-width="1px">25</text><text x="163.32575000000003" y="0" dx="0em" dy="0.95em" style="text-anchor: middle; visibility: inherit; font-family: Roboto, sans-serif; font-size: 12px; font-weight: 200;" fill="rgb(50, 49, 63)" stroke="none" stroke-width="1px">30</text><text x="186.65800000000002" y="0" dx="0em" dy="0.95em" style="text-anchor: middle; visibility: inherit; font-family: Roboto, sans-serif; font-size: 12px; font-weight: 200;" fill="rgb(50, 49, 63)" stroke="none" stroke-width="1px">35</text><text x="209.99025" y="0" dx="0em" dy="0.95em" style="text-anchor: middle; visibility: inherit; font-family: Roboto, sans-serif; font-size: 12px; font-weight: 200;" fill="rgb(50, 49, 63)" stroke="none" stroke-width="1px">40</text><text x="233.32250000000002" y="0" dx="0em" dy="0.95em" style="text-anchor: middle; visibility: inherit; font-family: Roboto, sans-serif; font-size: 12px; font-weight: 200;" fill="rgb(50, 49, 63)" stroke="none" stroke-width="1px">45</text><text x="256.65475000000004" y="0" dx="0em" dy="0.95em" style="text-anchor: middle; visibility: inherit; font-family: Roboto, sans-serif; font-size: 12px; font-weight: 200;" fill="rgb(50, 49, 63)" stroke="none" stroke-width="1px">50</text><text x="279.987" y="0" dx="0em" dy="0.95em" style="text-anchor: middle; visibility: hidden; font-family: Roboto, sans-serif; font-size: 12px; font-weight: 200;" fill="rgb(50, 49, 63)" stroke="none" stroke-width="1px">55</text></g><line x1="0" y1="0" x2="279.987" y2="0" fill="rgb(0, 0, 0)" stroke="rgb(204, 204, 204)" stroke-width="1px"></line></g></g></g></g></svg>