<svg viewBox="0 0 329.98699951171875 199.9865264892578" xmlns="http://www.w3.org/2000/svg"><g><g><g><g><g><line x1="50" y1="177.987" x2="45" y2="177.987" style="visibility: inherit;" fill="rgb(0, 0, 0)" stroke="rgb(204, 204, 204)" stroke-width="1px"></line><line x1="50" y1="155.73862499999998" x2="45" y2="155.73862499999998" style="visibility: inherit;" fill="rgb(0, 0, 0)" stroke="rgb(204, 204, 204)" stroke-width="1px"></line><line x1="50" y1="133.49025" x2="45" y2="133.49025" style="visibility: inherit;" fill="rgb(0, 0, 0)" stroke="rgb(204, 204, 204)" stroke-width="1px"></line><line x1="50" y1="111.241875" x2="45" y2="111.241875" style="visibility: inherit;" fill="rgb(0, 0, 0)" stroke="rgb(204, 204, 204)" stroke-width="1px"></line><line x1="50" y1="88.99350000000001" x2="45" y2="88.99350000000001" style="visibility: inherit;" fill="rgb(0, 0, 0)" stroke="rgb(204, 204, 204)" stroke-width="1px"></line><line x1="50" y1="66.745125" x2="45" y2="66.745125" style="visibility: inherit;" fill="rgb(0, 0, 0)" stroke="rgb(204, 204, 204)" stroke-width="1px"></line><line x1="50" y1="44.49674999999998" x2="45" y2="44.49674999999998" style="visibility: inherit;" fill="rgb(0, 0, 0)" stroke="rgb(204, 204, 204)" stroke-width="1px"></line><line x1="50" y1="22.24837500000002" x2="45" y2="22.24837500000002" style="visibility: inherit;" fill="rgb(0, 0, 0)" stroke="rgb(204, 204, 204)" stroke-width="1px"></line><line x1="50" y1="0" x2="45" y2="0" style="visibility: inherit;" fill="rgb(0, 0, 0)" stroke="rgb(204, 204, 204)" stroke-width="1px"></line></g><g transform="translate(40, 0)"><text x="0" y="177.987" dx="0em" dy="0.3em" style="text-anchor: end; visibility: hidden; font-family: Roboto, sans-serif; font-size: 12px; font-weight: 200;" fill="rgb(50, 49, 63)" stroke="none" stroke-width="1px">0.5</text><text x="0" y="155.73862499999998" dx="0em" dy="0.3em" style="text-anchor: end; visibility: inherit; font-family: Roboto, sans-serif; font-size: 12px; font-weight: 200;" fill="rgb(50, 49, 63)" stroke="none" stroke-width="1px">0.55</text><text x="0" y="133.49025" dx="0em" dy="0.3em" style="text-anchor: end; visibility: hidden; font-family: Roboto, sans-serif; font-size: 12px; font-weight: 200;" fill="rgb(50, 49, 63)" stroke="none" stroke-width="1px">0.6</text><text x="0" y="111.241875" dx="0em" dy="0.3em" style="text-anchor: end; visibility: inherit; font-family: Roboto, sans-serif; font-size: 12px; font-weight: 200;" fill="rgb(50, 49, 63)" stroke="none" stroke-width="1px">0.65</text><text x="0" y="88.99350000000001" dx="0em" dy="0.3em" style="text-anchor: end; visibility: hidden; font-family: Roboto, sans-serif; font-size: 12px; font-weight: 200;" fill="rgb(50, 49, 63)" stroke="none" stroke-width="1px">0.7</text><text x="0" y="66.745125" dx="0em" dy="0.3em" style="text-anchor: end; visibility: inherit; font-family: Roboto, sans-serif; font-size: 12px; font-weight: 200;" fill="rgb(50, 49, 63)" stroke="none" stroke-width="1px">0.75</text><text x="0" y="44.49674999999998" dx="0em" dy="0.3em" style="text-anchor: end; visibility: hidden; font-family: Roboto, sans-serif; font-size: 12px; font-weight: 200;" fill="rgb(50, 49, 63)" stroke="none" stroke-width="1px">0.8</text><text x="0" y="22.24837500000002" dx="0em" dy="0.3em" style="text-anchor: end; visibility: inherit; font-family: Roboto, sans-serif; font-size: 12px; font-weight: 200;" fill="rgb(50, 49, 63)" stroke="none" stroke-width="1px">0.85</text><text x="0" y="0" dx="0em" dy="0.3em" style="text-anchor: end; visibility: hidden; font-family: Roboto, sans-serif; font-size: 12px; font-weight: 200;" fill="rgb(50, 49, 63)" stroke="none" stroke-width="1px">0.9</text></g><line x1="50" y1="0" x2="50" y2="177.987" fill="rgb(0, 0, 0)" stroke="rgb(204, 204, 204)" stroke-width="1px"></line></g></g><g transform="translate(50, 0)" clip-path="url(#clip_0)"><clipPath id="clip_0"><rect width="279" height="177"></rect></clipPath><g><g><g><line x1="0" y1="0" x2="0" y2="177.987" fill="rgb(0, 0, 0)" stroke="rgb(60, 60, 60)" stroke-width="1px" opacity="0.25"></line><line x1="23.332250000000002" y1="0" x2="23.332250000000002" y2="177.987" fill="rgb(0, 0, 0)" stroke="rgb(60, 60, 60)" stroke-width="1px" opacity="0.25"></line><line x1="46.664500000000004" y1="0" x2="46.664500000000004" y2="177.987" fill="rgb(0, 0, 0)" stroke="rgb(60, 60, 60)" stroke-width="1px" opacity="0.25"></line><line x1="69.99675" y1="0" x2="69.99675" y2="177.987" fill="rgb(0, 0, 0)" stroke="rgb(60, 60, 60)" stroke-width="1px" opacity="0.25"></line><line x1="93.32900000000001" y1="0" x2="93.32900000000001" y2="177.987" fill="rgb(0, 0, 0)" stroke="rgb(60, 60, 60)" stroke-width="1px" opacity="0.25"></line><line x1="116.66125000000001" y1="0" x2="116.66125000000001" y2="177.987" fill="rgb(0, 0, 0)" stroke="rgb(60, 60, 60)" stroke-width="1px" opacity="0.25"></line><line x1="139.9935" y1="0" x2="139.9935" y2="177.987" fill="rgb(0, 0, 0)" stroke="rgb(60, 60, 60)" stroke-width="1px" opacity="0.25"></line><line x1="163.32575000000003" y1="0" x2="163.32575000000003" y2="177.987" fill="rgb(0, 0, 0)" stroke="rgb(60, 60, 60)" stroke-width="1px" opacity="0.25"></line><line x1="186.65800000000002" y1="0" x2="186.65800000000002" y2="177.987" fill="rgb(0, 0, 0)" stroke="rgb(60, 60, 60)" stroke-width="1px" opacity="0.25"></line><line x1="209.99025" y1="0" x2="209.99025" y2="177.987" fill="rgb(0, 0, 0)" stroke="rgb(60, 60, 60)" stroke-width="1px" opacity="0.25"></line><line x1="233.32250000000002" y1="0" x2="233.32250000000002" y2="177.987" fill="rgb(0, 0, 0)" stroke="rgb(60, 60, 60)" stroke-width="1px" opacity="0.25"></line><line x1="256.65475000000004" y1="0" x2="256.65475000000004" y2="177.987" fill="rgb(0, 0, 0)" stroke="rgb(60, 60, 60)" stroke-width="1px" opacity="0.25"></line><line x1="279.987" y1="0" x2="279.987" y2="177.987" fill="rgb(0, 0, 0)" stroke="rgb(60, 60, 60)" stroke-width="1px" opacity="0.25"></line></g><g><line x1="0" y1="177.987" x2="279.987" y2="177.987" fill="rgb(0, 0, 0)" stroke="rgb(60, 60, 60)" stroke-width="1px" opacity="0.25"></line><line x1="0" y1="155.73862499999998" x2="279.987" y2="155.73862499999998" fill="rgb(0, 0, 0)" stroke="rgb(60, 60, 60)" stroke-width="1px" opacity="0.25"></line><line x1="0" y1="133.49025" x2="279.987" y2="133.49025" fill="rgb(0, 0, 0)" stroke="rgb(60, 60, 60)" stroke-width="1px" opacity="0.25"></line><line x1="0" y1="111.241875" x2="279.987" y2="111.241875" fill="rgb(0, 0, 0)" stroke="rgb(60, 60, 60)" stroke-width="1px" opacity="0.25"></line><line x1="0" y1="88.99350000000001" x2="279.987" y2="88.99350000000001" fill="rgb(0, 0, 0)" stroke="rgb(60, 60, 60)" stroke-width="1px" opacity="0.25"></line><line x1="0" y1="66.745125" x2="279.987" y2="66.745125" fill="rgb(0, 0, 0)" stroke="rgb(60, 60, 60)" stroke-width="1px" opacity="0.25"></line><line x1="0" y1="44.49674999999998" x2="279.987" y2="44.49674999999998" fill="rgb(0, 0, 0)" stroke="rgb(60, 60, 60)" stroke-width="1px" opacity="0.25"></line><line x1="0" y1="22.24837500000002" x2="279.987" y2="22.24837500000002" fill="rgb(0, 0, 0)" stroke="rgb(60, 60, 60)" stroke-width="1px" opacity="0.25"></line><line x1="0" y1="0" x2="279.987" y2="0" fill="rgb(0, 0, 0)" stroke="rgb(60, 60, 60)" stroke-width="1px" opacity="0.25"></line></g></g></g><g><g><line x1="0" y1="400.47075" x2="279.987" y2="400.47075" fill="rgb(0, 0, 0)" stroke="rgb(153, 153, 153)" stroke-width="1.5px"></line></g></g><g><g><line x1="23.332250000000002" y1="0" x2="23.332250000000002" y2="177.987" fill="rgb(0, 0, 0)" stroke="rgb(153, 153, 153)" stroke-width="1.5px"></line></g></g><g><g><g><g><g><path stroke="rgb(0, 119, 187)" stroke-width="2px" d="M23.332250000000002,143.71698697713018L27.998700000000003,139.02447960045933L32.665150000000004,138.1739679428637L37.3316,134.80122826588155L41.99805,135.8863546834588L46.664500000000004,134.41994612824917L51.33095,135.07984323915838L55.997400000000006,132.85089693081378L60.663850000000004,132.90956388187408L65.33030000000001,131.8537444176972L69.99675,133.24681928408145L74.6632,133.18817885515094L79.32965,132.77756324198842L83.9961,133.8920496572256L88.66255000000001,134.2733052727282L93.32900000000001,132.4109743642509L97.99545,132.85089693081378L102.6619,133.92138313275575L107.32835000000001,132.73358955082296L111.99480000000001,134.56658698377012L116.66125000000001,133.23215254631637L121.32770000000001,134.3759724370837L125.99415000000002,133.80404923063517L130.66060000000002,133.2761527596116L135.32705,135.47576559242606L139.9935,133.7600755394697L144.65995000000004,137.16214869198203L149.3264,134.31730548602343L153.99285000000003,134.11199767944217L158.6593,133.48146056619285L163.32575000000003,132.98287104856968L167.9922,134.61058719706534L172.65865000000002,132.13235939097405L177.32510000000002,134.05335725051165L181.99155000000002,135.31445799914002L186.65800000000002,133.37879340183736L191.32445,134.91853564587234L195.9909,135.09450997692346L200.65735,134.12666441720722L205.3238,132.98287104856968L209.99025,135.07984323915838L214.65670000000003,135.75438056570292L219.32315000000003,136.03299553897978L223.98960000000002,134.2733052727282L228.65605000000002,134.40527939048408L233.32250000000002,135.95968837228418L237.98895000000002,134.17066463050247L242.65540000000001,134.90386890810728L247.32185,133.7014085884094L251.98830000000004,133.6574083751142" style="fill: none;" fill="none"></path></g><g><path stroke="rgb(255, 112, 67)" stroke-width="2px" d="M23.332250000000002,161.8901889975071L27.998700000000003,121.20099838328362L32.665150000000004,109.09059609648585L37.3316,100.51946593952178L41.99805,95.72065786671638L46.664500000000004,91.9231662814021L51.33095,88.58540929359198L55.997400000000006,85.55623728570342L60.663850000000004,82.39479941663146L65.33030000000001,80.42364820969105L69.99675,78.79884949547052L74.6632,76.81507375475763L79.32965,76.13494025883078L83.9961,73.96853313249349L88.66255000000001,72.86645907399058L93.32900000000001,72.11702325296402L97.99545,71.39280997735261L102.6619,69.55387158733606L107.32835000000001,68.84225632336735L111.99480000000001,67.51344457742572L116.66125000000001,68.483279296875L121.32770000000001,67.33709893655777L125.99415000000002,66.55620786961913L130.66060000000002,65.25259214696288L135.32705,63.78522879508137L139.9935,63.22473662656545L144.65995000000004,63.51443785008788L149.3264,63.974145925462246L153.99285000000003,63.142862811952824L158.6593,62.009280463278294L163.32575000000003,61.40470851507783L167.9922,61.75737327468395L172.65865000000002,59.33277321499586L177.32510000000002,59.8554713485837L181.99155000000002,60.1955646186769L186.65800000000002,58.85415486109257L191.32445,59.39576327320933L195.9909,58.463696066558356L200.65735,58.80376281452179L205.3238,58.2495829128921L209.99025,58.83527110469341L214.65670000000003,57.10340255257487L219.32315000000003,57.71428676766157L223.98960000000002,56.058006285399195L228.65605000000002,55.40932803538441L233.32250000000002,56.02649799522757L237.98895000000002,56.36659126532078L242.65540000000001,56.02649799522757L247.32185,56.89557514366508L251.98830000000004,55.90685666781664" style="fill: none;" fill="none"></path></g><g><path stroke="rgb(51, 187, 238)" stroke-width="2px" d="M23.332250000000002,122.87984919798375L27.998700000000003,112.45734177213907L32.665150000000004,107.83328801241517L37.3316,105.66070122984051L41.99805,104.72120782685279L46.664500000000004,104.14870113354921L51.33095,104.39824785259366L55.997400000000006,103.78171442386508L60.663850000000004,103.95787440982461L65.33030000000001,104.16336787131428L69.99675,104.98544780579209L74.6632,105.14691453185677L79.32965,105.23499452483654L83.9961,105.91024794888496L88.66255000000001,106.33595465388893L93.32900000000001,106.6148613705933L97.99545,107.05526133549213L102.6619,106.71763462346792L107.32835000000001,108.5819281695485L111.99480000000001,108.03878147390485L116.66125000000001,108.87552814614773L121.32770000000001,109.81502154913544L125.99415000000002,109.35995484647154L130.66060000000002,110.19670151871442L135.32705,110.2113682564795L139.9935,110.18200825881958L144.65995000000004,109.69758155849576L149.3264,110.7104616945684L153.99285000000003,111.19488839489222L158.6593,111.22424839255213L163.32575000000003,111.5765683644712L167.9922,111.7673950881958L172.65865000000002,111.34168838319182L177.32510000000002,112.85368847948313L181.99155000000002,113.00048846778273L186.65800000000002,112.50139502969384L191.32445,112.44267503437399L195.9909,113.60235515874624L200.65735,113.85190187779068L205.3238,114.13080859449505L209.99025,113.76382188481092L214.65670000000003,113.70510188949108L219.32315000000003,114.74736854535341L223.98960000000002,114.62992855471373L228.65605000000002,114.99691526439786L233.32250000000002,114.70331528779865L237.98895000000002,115.7015286861062L242.65540000000001,115.34923523631691L247.32185,116.39147537004948L251.98830000000004,115.0556352597177" style="fill: none;" fill="none"></path></g><g><path stroke="rgb(204, 51, 17)" stroke-width="2px" d="M23.332250000000002,157.05045727846027L27.998700000000003,109.77643185031414L32.665150000000004,94.53042424884438L37.3316,84.83640016150474L41.99805,78.1387402075231L46.664500000000004,73.03994032484293L51.33095,68.1803435305953L55.997400000000006,63.80543865796923L60.663850000000004,60.15445531752705L65.33030000000001,58.725549053817986L69.99675,55.999896299064154L74.6632,53.544901878654954L79.32965,51.37950259324908L83.9961,49.66731346142292L88.66255000000001,47.91104454991221L93.32900000000001,46.929062695026396L97.99545,45.619744714468716L102.6619,43.99568861988187L107.32835000000001,42.51639030960202L111.99480000000001,42.705254395723344L116.66125000000001,41.049716533094646L121.32770000000001,40.91753023830056L125.99415000000002,39.78445181009173L130.66060000000002,38.56955261152983L135.32705,38.30518002194166L139.9935,37.57497274500132L144.65995000000004,36.13346846964955L149.3264,35.88166736957431L153.99285000000003,36.146066481292245L158.6593,34.616429168701174L163.32575000000003,35.11371910196543L167.9922,34.8870875030458L172.65865000000002,33.83585636731982L177.32510000000002,33.57148377773166L181.99155000000002,32.633555180400606L186.65800000000002,32.3251028111279L191.32445,32.51394037511945L195.9909,31.3682904573977L200.65735,31.701912327826022L205.3238,30.902482292175293L209.99025,30.85840251249075L214.65670000000003,29.876420657604932L219.32315000000003,29.530200775533913L223.98960000000002,30.38002285775542L228.65605000000002,29.586852044731376L233.32250000000002,28.13274975773692L237.98895000000002,28.888153057962654L242.65540000000001,28.579700688689947L247.32185,28.60487018984556L251.98830000000004,27.91874269258976" style="fill: none;" fill="none"></path></g><g><path stroke="rgb(0, 153, 136)" stroke-width="2px" d="M23.332250000000002,175.49147976529596L27.998700000000003,151.5197179902792L32.665150000000004,140.52470387113095L37.3316,133.3463833592534L41.99805,127.69475620356202L46.664500000000004,123.86336933639645L51.33095,120.60451568466425L55.997400000000006,118.4319289020896L60.663850000000004,116.47955536302923L65.33030000000001,114.02806186375021L69.99675,112.54542176511883L74.6632,110.32880824711918L79.32965,109.19848812040686L83.9961,108.37640818592905L88.66255000000001,107.08462133315206L93.32900000000001,106.57083463516831L97.99545,105.85152795356512L102.6619,105.38179451313614L107.32835000000001,104.57440783855319L111.99480000000001,104.50102110546827L116.66125000000001,103.50280770716071L121.32770000000001,103.17984773290156L125.99415000000002,102.81286102321744L130.66060000000002,102.2550475898087L135.32705,101.8880343579948L139.9935,101.60912764129043L144.65995000000004,101.35958092224598L149.3264,100.96323421490192L153.99285000000003,101.22747419384122L158.6593,100.56688750755787L163.32575000000003,100.33200752627849L167.9922,100.2879807908535L172.65865000000002,99.97968755435943L177.32510000000002,99.70078083765506L181.99155000000002,99.6127008446753L186.65800000000002,99.86227408584952L191.32445,99.53931411159039L195.9909,99.20168739956617L200.65735,99.33379412797093L205.3238,99.40720738318562L209.99025,99.53931411159039L214.65670000000003,99.33379412797093L219.32315000000003,99.12827414435148L223.98960000000002,98.80534069222212L228.65605000000002,99.02552741360664L233.32250000000002,98.84936742764711L237.98895000000002,98.95214068052172L242.65540000000001,98.65854070392251L247.32185,99.12827414435148L251.98830000000004,99.02552741360664" style="fill: none;" fill="none"></path></g><g><path stroke="rgb(238, 51, 119)" stroke-width="2px" d="M23.332250000000002,242.6472893359959L27.998700000000003,163.35787061494588L32.665150000000004,144.8700100469291L37.3316,133.5393583754897L41.99805,125.84709203284979L46.664500000000004,120.30136774134635L51.33095,114.90671350103617L55.997400000000006,110.6325396772921L60.663850000000004,107.18927765724062L65.33030000000001,104.04815573957562L69.99675,101.56170607325434L74.6632,99.12562193137407L79.32965,96.72730530229211L83.9961,93.9575992899835L88.66255000000001,92.1509648540318L93.32900000000001,90.80387936067581L97.99545,89.00358371374011L102.6619,86.60524056252837L107.32835000000001,85.61066069599985L111.99480000000001,83.7788832810223L116.66125000000001,82.91020396453142L121.32770000000001,80.83291119423508L125.99415000000002,80.48669131216407L130.66060000000002,78.86892096233368L135.32705,77.54071922537685L139.9935,76.21251748842L144.65995000000004,75.09203707185388L149.3264,73.84568262737989L153.99285000000003,73.02734231320024L158.6593,72.50488287878036L163.32575000000003,71.49770500060916L167.9922,71.22702014413476L172.65865000000002,69.5651965367496L177.32510000000002,69.08050461512804L181.99155000000002,67.94742618691922L186.65800000000002,67.55086730253696L191.32445,66.70107174244522L195.9909,66.05268523585796L200.65735,65.52394005668162L205.3238,64.65526074019074L209.99025,63.44664728638529L214.65670000000003,63.679564630061385L219.32315000000003,62.55277194660902L223.98960000000002,62.01142875578999L228.65605000000002,61.249766232937574L233.32250000000002,60.16705332916975L237.98895000000002,60.14816957277059L242.65540000000001,60.05375079077482L247.32185,59.18507147428393L251.98830000000004,58.467462208986284" style="fill: none;" fill="none"></path></g></g></g></g></g></g><g transform="translate(50, 177)" clip-path="url(#clip_1)"><clipPath id="clip_1"><rect width="279" height="21"></rect></clipPath><g><g><line x1="0" y1="0" x2="0" y2="5" style="visibility: inherit;" fill="rgb(0, 0, 0)" stroke="rgb(204, 204, 204)" stroke-width="1px"></line><line x1="23.332250000000002" y1="0" x2="23.332250000000002" y2="5" style="visibility: inherit;" fill="rgb(0, 0, 0)" stroke="rgb(204, 204, 204)" stroke-width="1px"></line><line x1="46.664500000000004" y1="0" x2="46.664500000000004" y2="5" style="visibility: inherit;" fill="rgb(0, 0, 0)" stroke="rgb(204, 204, 204)" stroke-width="1px"></line><line x1="69.99675" y1="0" x2="69.99675" y2="5" style="visibility: inherit;" fill="rgb(0, 0, 0)" stroke="rgb(204, 204, 204)" stroke-width="1px"></line><line x1="93.32900000000001" y1="0" x2="93.32900000000001" y2="5" style="visibility: inherit;" fill="rgb(0, 0, 0)" stroke="rgb(204, 204, 204)" stroke-width="1px"></line><line x1="116.66125000000001" y1="0" x2="116.66125000000001" y2="5" style="visibility: inherit;" fill="rgb(0, 0, 0)" stroke="rgb(204, 204, 204)" stroke-width="1px"></line><line x1="139.9935" y1="0" x2="139.9935" y2="5" style="visibility: inherit;" fill="rgb(0, 0, 0)" stroke="rgb(204, 204, 204)" stroke-width="1px"></line><line x1="163.32575000000003" y1="0" x2="163.32575000000003" y2="5" style="visibility: inherit;" fill="rgb(0, 0, 0)" stroke="rgb(204, 204, 204)" stroke-width="1px"></line><line x1="186.65800000000002" y1="0" x2="186.65800000000002" y2="5" style="visibility: inherit;" fill="rgb(0, 0, 0)" stroke="rgb(204, 204, 204)" stroke-width="1px"></line><line x1="209.99025" y1="0" x2="209.99025" y2="5" style="visibility: inherit;" fill="rgb(0, 0, 0)" stroke="rgb(204, 204, 204)" stroke-width="1px"></line><line x1="233.32250000000002" y1="0" x2="233.32250000000002" y2="5" style="visibility: inherit;" fill="rgb(0, 0, 0)" stroke="rgb(204, 204, 204)" stroke-width="1px"></line><line x1="256.65475000000004" y1="0" x2="256.65475000000004" y2="5" style="visibility: inherit;" fill="rgb(0, 0, 0)" stroke="rgb(204, 204, 204)" stroke-width="1px"></line><line x1="279.987" y1="0" x2="279.987" y2="5" style="visibility: inherit;" fill="rgb(0, 0, 0)" stroke="rgb(204, 204, 204)" stroke-width="1px"></line></g><g transform="translate(0, 8)"><text x="0" y="0" dx="0em" dy="0.95em" style="text-anchor: middle; visibility: hidden; font-family: Roboto, sans-serif; font-size: 12px; font-weight: 200;" fill="rgb(50, 49, 63)" stroke="none" stroke-width="1px">-5</text><text x="23.332250000000002" y="0" dx="0em" dy="0.95em" style="text-anchor: middle; visibility: inherit; font-family: Roboto, sans-serif; font-size: 12px; font-weight: 200;" fill="rgb(50, 49, 63)" stroke="none" stroke-width="1px">0</text><text x="46.664500000000004" y="0" dx="0em" dy="0.95em" style="text-anchor: middle; visibility: inherit; font-family: Roboto, sans-serif; font-size: 12px; font-weight: 200;" fill="rgb(50, 49, 63)" stroke="none" stroke-width="1px">5</text><text x="69.99675" y="0" dx="0em" dy="0.95em" style="text-anchor: middle; visibility: inherit; font-family: Roboto, sans-serif; font-size: 12px; font-weight: 200;" fill="rgb(50, 49, 63)" stroke="none" stroke-width="1px">10</text><text x="93.32900000000001" y="0" dx="0em" dy="0.95em" style="text-anchor: middle; visibility: inherit; font-family: Roboto, sans-serif; font-size: 12px; font-weight: 200;" fill="rgb(50, 49, 63)" stroke="none" stroke-width="1px">15</text><text x="116.66125000000001" y="0" dx="0em" dy="0.95em" style="text-anchor: middle; visibility: inherit; font-family: Roboto, sans-serif; font-size: 12px; font-weight: 200;" fill="rgb(50, 49, 63)" stroke="none" stroke-width="1px">20</text><text x="139.9935" y="0" dx="0em" dy="0.95em" style="text-anchor: middle; visibility: inherit; font-family: Roboto, sans-serif; font-size: 12px; font-weight: 200;" fill="rgb(50, 49, 63)" stroke="none" stroke-width="1px">25</text><text x="163.32575000000003" y="0" dx="0em" dy="0.95em" style="text-anchor: middle; visibility: inherit; font-family: Roboto, sans-serif; font-size: 12px; font-weight: 200;" fill="rgb(50, 49, 63)" stroke="none" stroke-width="1px">30</text><text x="186.65800000000002" y="0" dx="0em" dy="0.95em" style="text-anchor: middle; visibility: inherit; font-family: Roboto, sans-serif; font-size: 12px; font-weight: 200;" fill="rgb(50, 49, 63)" stroke="none" stroke-width="1px">35</text><text x="209.99025" y="0" dx="0em" dy="0.95em" style="text-anchor: middle; visibility: inherit; font-family: Roboto, sans-serif; font-size: 12px; font-weight: 200;" fill="rgb(50, 49, 63)" stroke="none" stroke-width="1px">40</text><text x="233.32250000000002" y="0" dx="0em" dy="0.95em" style="text-anchor: middle; visibility: inherit; font-family: Roboto, sans-serif; font-size: 12px; font-weight: 200;" fill="rgb(50, 49, 63)" stroke="none" stroke-width="1px">45</text><text x="256.65475000000004" y="0" dx="0em" dy="0.95em" style="text-anchor: middle; visibility: inherit; font-family: Roboto, sans-serif; font-size: 12px; font-weight: 200;" fill="rgb(50, 49, 63)" stroke="none" stroke-width="1px">50</text><text x="279.987" y="0" dx="0em" dy="0.95em" style="text-anchor: middle; visibility: hidden; font-family: Roboto, sans-serif; font-size: 12px; font-weight: 200;" fill="rgb(50, 49, 63)" stroke="none" stroke-width="1px">55</text></g><line x1="0" y1="0" x2="279.987" y2="0" fill="rgb(0, 0, 0)" stroke="rgb(204, 204, 204)" stroke-width="1px"></line></g></g></g></g></svg>