<svg viewBox="0 0 329.98699951171875 199.9865264892578" xmlns="http://www.w3.org/2000/svg"><g><g><g><g><g><line x1="50" y1="177.987" x2="45" y2="177.987" style="visibility: inherit;" fill="rgb(0, 0, 0)" stroke="rgb(204, 204, 204)" stroke-width="1px"></line><line x1="50" y1="165.27364285714285" x2="45" y2="165.27364285714285" style="visibility: inherit;" fill="rgb(0, 0, 0)" stroke="rgb(204, 204, 204)" stroke-width="1px"></line><line x1="50" y1="152.56028571428567" x2="45" y2="152.56028571428567" style="visibility: inherit;" fill="rgb(0, 0, 0)" stroke="rgb(204, 204, 204)" stroke-width="1px"></line><line x1="50" y1="139.84692857142855" x2="45" y2="139.84692857142855" style="visibility: inherit;" fill="rgb(0, 0, 0)" stroke="rgb(204, 204, 204)" stroke-width="1px"></line><line x1="50" y1="127.13357142857139" x2="45" y2="127.13357142857139" style="visibility: inherit;" fill="rgb(0, 0, 0)" stroke="rgb(204, 204, 204)" stroke-width="1px"></line><line x1="50" y1="114.42021428571431" x2="45" y2="114.42021428571431" style="visibility: inherit;" fill="rgb(0, 0, 0)" stroke="rgb(204, 204, 204)" stroke-width="1px"></line><line x1="50" y1="101.70685714285716" x2="45" y2="101.70685714285716" style="visibility: inherit;" fill="rgb(0, 0, 0)" stroke="rgb(204, 204, 204)" stroke-width="1px"></line><line x1="50" y1="88.9935" x2="45" y2="88.9935" style="visibility: inherit;" fill="rgb(0, 0, 0)" stroke="rgb(204, 204, 204)" stroke-width="1px"></line><line x1="50" y1="76.28014285714283" x2="45" y2="76.28014285714283" style="visibility: inherit;" fill="rgb(0, 0, 0)" stroke="rgb(204, 204, 204)" stroke-width="1px"></line><line x1="50" y1="63.566785714285686" x2="45" y2="63.566785714285686" style="visibility: inherit;" fill="rgb(0, 0, 0)" stroke="rgb(204, 204, 204)" stroke-width="1px"></line><line x1="50" y1="50.853428571428545" x2="45" y2="50.853428571428545" style="visibility: inherit;" fill="rgb(0, 0, 0)" stroke="rgb(204, 204, 204)" stroke-width="1px"></line><line x1="50" y1="38.14007142857145" x2="45" y2="38.14007142857145" style="visibility: inherit;" fill="rgb(0, 0, 0)" stroke="rgb(204, 204, 204)" stroke-width="1px"></line><line x1="50" y1="25.426714285714315" x2="45" y2="25.426714285714315" style="visibility: inherit;" fill="rgb(0, 0, 0)" stroke="rgb(204, 204, 204)" stroke-width="1px"></line><line x1="50" y1="12.713357142857157" x2="45" y2="12.713357142857157" style="visibility: inherit;" fill="rgb(0, 0, 0)" stroke="rgb(204, 204, 204)" stroke-width="1px"></line><line x1="50" y1="0" x2="45" y2="0" style="visibility: inherit;" fill="rgb(0, 0, 0)" stroke="rgb(204, 204, 204)" stroke-width="1px"></line></g><g transform="translate(40, 0)"><text x="0" y="177.987" dx="0em" dy="0.3em" style="text-anchor: end; visibility: hidden; font-family: Roboto, sans-serif; font-size: 12px; font-weight: 200;" fill="rgb(50, 49, 63)" stroke="none" stroke-width="1px">0.6</text><text x="0" y="165.27364285714285" dx="0em" dy="0.3em" style="text-anchor: end; visibility: inherit; font-family: Roboto, sans-serif; font-size: 12px; font-weight: 200;" fill="rgb(50, 49, 63)" stroke="none" stroke-width="1px">0.62</text><text x="0" y="152.56028571428567" dx="0em" dy="0.3em" style="text-anchor: end; visibility: hidden; font-family: Roboto, sans-serif; font-size: 12px; font-weight: 200;" fill="rgb(50, 49, 63)" stroke="none" stroke-width="1px">0.64</text><text x="0" y="139.84692857142855" dx="0em" dy="0.3em" style="text-anchor: end; visibility: inherit; font-family: Roboto, sans-serif; font-size: 12px; font-weight: 200;" fill="rgb(50, 49, 63)" stroke="none" stroke-width="1px">0.66</text><text x="0" y="127.13357142857139" dx="0em" dy="0.3em" style="text-anchor: end; visibility: hidden; font-family: Roboto, sans-serif; font-size: 12px; font-weight: 200;" fill="rgb(50, 49, 63)" stroke="none" stroke-width="1px">0.68</text><text x="0" y="114.42021428571431" dx="0em" dy="0.3em" style="text-anchor: end; visibility: inherit; font-family: Roboto, sans-serif; font-size: 12px; font-weight: 200;" fill="rgb(50, 49, 63)" stroke="none" stroke-width="1px">0.7</text><text x="0" y="101.70685714285716" dx="0em" dy="0.3em" style="text-anchor: end; visibility: hidden; font-family: Roboto, sans-serif; font-size: 12px; font-weight: 200;" fill="rgb(50, 49, 63)" stroke="none" stroke-width="1px">0.72</text><text x="0" y="88.9935" dx="0em" dy="0.3em" style="text-anchor: end; visibility: inherit; font-family: Roboto, sans-serif; font-size: 12px; font-weight: 200;" fill="rgb(50, 49, 63)" stroke="none" stroke-width="1px">0.74</text><text x="0" y="76.28014285714283" dx="0em" dy="0.3em" style="text-anchor: end; visibility: hidden; font-family: Roboto, sans-serif; font-size: 12px; font-weight: 200;" fill="rgb(50, 49, 63)" stroke="none" stroke-width="1px">0.76</text><text x="0" y="63.566785714285686" dx="0em" dy="0.3em" style="text-anchor: end; visibility: inherit; font-family: Roboto, sans-serif; font-size: 12px; font-weight: 200;" fill="rgb(50, 49, 63)" stroke="none" stroke-width="1px">0.78</text><text x="0" y="50.853428571428545" dx="0em" dy="0.3em" style="text-anchor: end; visibility: hidden; font-family: Roboto, sans-serif; font-size: 12px; font-weight: 200;" fill="rgb(50, 49, 63)" stroke="none" stroke-width="1px">0.8</text><text x="0" y="38.14007142857145" dx="0em" dy="0.3em" style="text-anchor: end; visibility: inherit; font-family: Roboto, sans-serif; font-size: 12px; font-weight: 200;" fill="rgb(50, 49, 63)" stroke="none" stroke-width="1px">0.82</text><text x="0" y="25.426714285714315" dx="0em" dy="0.3em" style="text-anchor: end; visibility: hidden; font-family: Roboto, sans-serif; font-size: 12px; font-weight: 200;" fill="rgb(50, 49, 63)" stroke="none" stroke-width="1px">0.84</text><text x="0" y="12.713357142857157" dx="0em" dy="0.3em" style="text-anchor: end; visibility: inherit; font-family: Roboto, sans-serif; font-size: 12px; font-weight: 200;" fill="rgb(50, 49, 63)" stroke="none" stroke-width="1px">0.86</text><text x="0" y="0" dx="0em" dy="0.3em" style="text-anchor: end; visibility: hidden; font-family: Roboto, sans-serif; font-size: 12px; font-weight: 200;" fill="rgb(50, 49, 63)" stroke="none" stroke-width="1px">0.88</text></g><line x1="50" y1="0" x2="50" y2="177.987" fill="rgb(0, 0, 0)" stroke="rgb(204, 204, 204)" stroke-width="1px"></line></g></g><g transform="translate(50, 0)" clip-path="url(#clip_0)"><clipPath id="clip_0"><rect width="279" height="177"></rect></clipPath><g><g><g><line x1="0" y1="0" x2="0" y2="177.987" fill="rgb(0, 0, 0)" stroke="rgb(60, 60, 60)" stroke-width="1px" opacity="0.25"></line><line x1="23.332250000000002" y1="0" x2="23.332250000000002" y2="177.987" fill="rgb(0, 0, 0)" stroke="rgb(60, 60, 60)" stroke-width="1px" opacity="0.25"></line><line x1="46.664500000000004" y1="0" x2="46.664500000000004" y2="177.987" fill="rgb(0, 0, 0)" stroke="rgb(60, 60, 60)" stroke-width="1px" opacity="0.25"></line><line x1="69.99675" y1="0" x2="69.99675" y2="177.987" fill="rgb(0, 0, 0)" stroke="rgb(60, 60, 60)" stroke-width="1px" opacity="0.25"></line><line x1="93.32900000000001" y1="0" x2="93.32900000000001" y2="177.987" fill="rgb(0, 0, 0)" stroke="rgb(60, 60, 60)" stroke-width="1px" opacity="0.25"></line><line x1="116.66125000000001" y1="0" x2="116.66125000000001" y2="177.987" fill="rgb(0, 0, 0)" stroke="rgb(60, 60, 60)" stroke-width="1px" opacity="0.25"></line><line x1="139.9935" y1="0" x2="139.9935" y2="177.987" fill="rgb(0, 0, 0)" stroke="rgb(60, 60, 60)" stroke-width="1px" opacity="0.25"></line><line x1="163.32575000000003" y1="0" x2="163.32575000000003" y2="177.987" fill="rgb(0, 0, 0)" stroke="rgb(60, 60, 60)" stroke-width="1px" opacity="0.25"></line><line x1="186.65800000000002" y1="0" x2="186.65800000000002" y2="177.987" fill="rgb(0, 0, 0)" stroke="rgb(60, 60, 60)" stroke-width="1px" opacity="0.25"></line><line x1="209.99025" y1="0" x2="209.99025" y2="177.987" fill="rgb(0, 0, 0)" stroke="rgb(60, 60, 60)" stroke-width="1px" opacity="0.25"></line><line x1="233.32250000000002" y1="0" x2="233.32250000000002" y2="177.987" fill="rgb(0, 0, 0)" stroke="rgb(60, 60, 60)" stroke-width="1px" opacity="0.25"></line><line x1="256.65475000000004" y1="0" x2="256.65475000000004" y2="177.987" fill="rgb(0, 0, 0)" stroke="rgb(60, 60, 60)" stroke-width="1px" opacity="0.25"></line><line x1="279.987" y1="0" x2="279.987" y2="177.987" fill="rgb(0, 0, 0)" stroke="rgb(60, 60, 60)" stroke-width="1px" opacity="0.25"></line></g><g><line x1="0" y1="177.987" x2="279.987" y2="177.987" fill="rgb(0, 0, 0)" stroke="rgb(60, 60, 60)" stroke-width="1px" opacity="0.25"></line><line x1="0" y1="165.27364285714285" x2="279.987" y2="165.27364285714285" fill="rgb(0, 0, 0)" stroke="rgb(60, 60, 60)" stroke-width="1px" opacity="0.25"></line><line x1="0" y1="152.56028571428567" x2="279.987" y2="152.56028571428567" fill="rgb(0, 0, 0)" stroke="rgb(60, 60, 60)" stroke-width="1px" opacity="0.25"></line><line x1="0" y1="139.84692857142855" x2="279.987" y2="139.84692857142855" fill="rgb(0, 0, 0)" stroke="rgb(60, 60, 60)" stroke-width="1px" opacity="0.25"></line><line x1="0" y1="127.13357142857139" x2="279.987" y2="127.13357142857139" fill="rgb(0, 0, 0)" stroke="rgb(60, 60, 60)" stroke-width="1px" opacity="0.25"></line><line x1="0" y1="114.42021428571431" x2="279.987" y2="114.42021428571431" fill="rgb(0, 0, 0)" stroke="rgb(60, 60, 60)" stroke-width="1px" opacity="0.25"></line><line x1="0" y1="101.70685714285716" x2="279.987" y2="101.70685714285716" fill="rgb(0, 0, 0)" stroke="rgb(60, 60, 60)" stroke-width="1px" opacity="0.25"></line><line x1="0" y1="88.9935" x2="279.987" y2="88.9935" fill="rgb(0, 0, 0)" stroke="rgb(60, 60, 60)" stroke-width="1px" opacity="0.25"></line><line x1="0" y1="76.28014285714283" x2="279.987" y2="76.28014285714283" fill="rgb(0, 0, 0)" stroke="rgb(60, 60, 60)" stroke-width="1px" opacity="0.25"></line><line x1="0" y1="63.566785714285686" x2="279.987" y2="63.566785714285686" fill="rgb(0, 0, 0)" stroke="rgb(60, 60, 60)" stroke-width="1px" opacity="0.25"></line><line x1="0" y1="50.853428571428545" x2="279.987" y2="50.853428571428545" fill="rgb(0, 0, 0)" stroke="rgb(60, 60, 60)" stroke-width="1px" opacity="0.25"></line><line x1="0" y1="38.14007142857145" x2="279.987" y2="38.14007142857145" fill="rgb(0, 0, 0)" stroke="rgb(60, 60, 60)" stroke-width="1px" opacity="0.25"></line><line x1="0" y1="25.426714285714315" x2="279.987" y2="25.426714285714315" fill="rgb(0, 0, 0)" stroke="rgb(60, 60, 60)" stroke-width="1px" opacity="0.25"></line><line x1="0" y1="12.713357142857157" x2="279.987" y2="12.713357142857157" fill="rgb(0, 0, 0)" stroke="rgb(60, 60, 60)" stroke-width="1px" opacity="0.25"></line><line x1="0" y1="0" x2="279.987" y2="0" fill="rgb(0, 0, 0)" stroke="rgb(60, 60, 60)" stroke-width="1px" opacity="0.25"></line></g></g></g><g><g><line x1="0" y1="559.3877142857143" x2="279.987" y2="559.3877142857143" fill="rgb(0, 0, 0)" stroke="rgb(153, 153, 153)" stroke-width="1.5px"></line></g></g><g><g><line x1="23.332250000000002" y1="0" x2="23.332250000000002" y2="177.987" fill="rgb(0, 0, 0)" stroke="rgb(153, 153, 153)" stroke-width="1.5px"></line></g></g><g><g><g><g><g><path stroke="rgb(0, 119, 187)" stroke-width="2px" d="M23.332250000000002,166.70401617351598L27.998700000000003,150.51066461864536L32.665150000000004,142.1940067191124L37.3316,138.75844369444675L41.99805,137.50152207569565L46.664500000000004,135.36474774606737L51.33095,134.48489503519022L55.997400000000006,133.87738670833622L60.663850000000004,134.23350313368863L65.33030000000001,134.06592116227318L69.99675,134.94577387315036L74.6632,134.61057204156262L79.32965,134.8410114605427L83.9961,134.77819190173489L88.66255000000001,135.61613964756896L93.32900000000001,136.0979330792938L97.99545,135.76276913646288L102.6619,136.45408739340306L107.32835000000001,137.0825482027786L111.99480000000001,138.19280244387897L116.66125000000001,137.7947810534835L121.32770000000001,137.62719908206802L125.99415000000002,139.07265515475612L130.66060000000002,139.61734392280235L135.32705,140.03631779571938L139.9935,140.1200898370487L144.65995000000004,140.20389976713486L149.3264,141.3560589732783L153.99285000000003,141.4189164208429L158.6593,141.83789029375995L163.32575000000003,142.5292085507001L167.9922,142.23591168415547L172.65865000000002,142.864372493531L177.32510000000002,143.80708265197276L181.99155000000002,142.99008738866019L186.65800000000002,144.1631990773252L191.32445,143.36715629653418L195.9909,143.86990221078054L200.65735,144.7707074041792L205.3238,144.01656958843128L209.99025,146.15334391805953L214.65670000000003,145.75532252766405L219.32315000000003,145.62960763253483L223.98960000000002,145.16872879457475L228.65605000000002,145.7343700451425L233.32250000000002,146.69799479734897L237.98895000000002,146.44660289584738L242.65540000000001,146.17429640058106L247.32185,147.41026553681064L251.98830000000004,148.3529378064956" style="fill: none;" fill="none"></path></g><g><path stroke="rgb(255, 112, 67)" stroke-width="2px" d="M23.332250000000002,222.12102122880728L27.998700000000003,151.3712698410579L32.665150000000004,129.24851728762044L37.3316,115.78050401082207L41.99805,105.66826003682613L46.664500000000004,97.58026078470263L51.33095,90.67984672634941L55.997400000000006,84.7960259022372L60.663850000000004,80.2616889297877L65.33030000000001,76.3841535568152L69.99675,72.65953720636878L74.6632,69.69061211069992L79.32965,66.16392662588187L83.9961,64.37360708861691L88.66255000000001,61.50368531451905L93.32900000000001,58.84965367678234L97.99545,56.40257042879718L102.6619,54.900129665851594L107.32835000000001,53.235752356256754L111.99480000000001,51.63434616049698L116.66125000000001,49.88900057757753L121.32770000000001,48.67443858895132L125.99415000000002,47.81076437723637L130.66060000000002,45.129755944643705L135.32705,45.33666644563845L139.9935,43.55532654373986L144.65995000000004,42.56571010435479L149.3264,40.51445069886956L153.99285000000003,41.558096505480144L158.6593,38.44523202265161L163.32575000000003,38.184330043188154L167.9922,37.05975385200977L172.65865000000002,36.564926687938836L177.32510000000002,36.58292384742838L181.99155000000002,35.52131877008507L186.65800000000002,35.59330740804332L191.32445,34.09984628046411L195.9909,32.867325021105145L200.65735,32.444448606235646L205.3238,32.4624457657252L209.99025,32.372497857034205L214.65670000000003,30.303279180816237L219.32315000000003,30.38424745414087L223.98960000000002,29.700469059807922L228.65605000000002,29.43058744497809L233.32250000000002,28.95375744039672L237.98895000000002,27.595256064610812L242.65540000000001,29.43058744497809L247.32185,29.87142313058036L251.98830000000004,28.045109274336276" style="fill: none;" fill="none"></path></g></g></g></g></g></g><g transform="translate(50, 177)" clip-path="url(#clip_1)"><clipPath id="clip_1"><rect width="279" height="21"></rect></clipPath><g><g><line x1="0" y1="0" x2="0" y2="5" style="visibility: inherit;" fill="rgb(0, 0, 0)" stroke="rgb(204, 204, 204)" stroke-width="1px"></line><line x1="23.332250000000002" y1="0" x2="23.332250000000002" y2="5" style="visibility: inherit;" fill="rgb(0, 0, 0)" stroke="rgb(204, 204, 204)" stroke-width="1px"></line><line x1="46.664500000000004" y1="0" x2="46.664500000000004" y2="5" style="visibility: inherit;" fill="rgb(0, 0, 0)" stroke="rgb(204, 204, 204)" stroke-width="1px"></line><line x1="69.99675" y1="0" x2="69.99675" y2="5" style="visibility: inherit;" fill="rgb(0, 0, 0)" stroke="rgb(204, 204, 204)" stroke-width="1px"></line><line x1="93.32900000000001" y1="0" x2="93.32900000000001" y2="5" style="visibility: inherit;" fill="rgb(0, 0, 0)" stroke="rgb(204, 204, 204)" stroke-width="1px"></line><line x1="116.66125000000001" y1="0" x2="116.66125000000001" y2="5" style="visibility: inherit;" fill="rgb(0, 0, 0)" stroke="rgb(204, 204, 204)" stroke-width="1px"></line><line x1="139.9935" y1="0" x2="139.9935" y2="5" style="visibility: inherit;" fill="rgb(0, 0, 0)" stroke="rgb(204, 204, 204)" stroke-width="1px"></line><line x1="163.32575000000003" y1="0" x2="163.32575000000003" y2="5" style="visibility: inherit;" fill="rgb(0, 0, 0)" stroke="rgb(204, 204, 204)" stroke-width="1px"></line><line x1="186.65800000000002" y1="0" x2="186.65800000000002" y2="5" style="visibility: inherit;" fill="rgb(0, 0, 0)" stroke="rgb(204, 204, 204)" stroke-width="1px"></line><line x1="209.99025" y1="0" x2="209.99025" y2="5" style="visibility: inherit;" fill="rgb(0, 0, 0)" stroke="rgb(204, 204, 204)" stroke-width="1px"></line><line x1="233.32250000000002" y1="0" x2="233.32250000000002" y2="5" style="visibility: inherit;" fill="rgb(0, 0, 0)" stroke="rgb(204, 204, 204)" stroke-width="1px"></line><line x1="256.65475000000004" y1="0" x2="256.65475000000004" y2="5" style="visibility: inherit;" fill="rgb(0, 0, 0)" stroke="rgb(204, 204, 204)" stroke-width="1px"></line><line x1="279.987" y1="0" x2="279.987" y2="5" style="visibility: inherit;" fill="rgb(0, 0, 0)" stroke="rgb(204, 204, 204)" stroke-width="1px"></line></g><g transform="translate(0, 8)"><text x="0" y="0" dx="0em" dy="0.95em" style="text-anchor: middle; visibility: hidden; font-family: Roboto, sans-serif; font-size: 12px; font-weight: 200;" fill="rgb(50, 49, 63)" stroke="none" stroke-width="1px">-5</text><text x="23.332250000000002" y="0" dx="0em" dy="0.95em" style="text-anchor: middle; visibility: inherit; font-family: Roboto, sans-serif; font-size: 12px; font-weight: 200;" fill="rgb(50, 49, 63)" stroke="none" stroke-width="1px">0</text><text x="46.664500000000004" y="0" dx="0em" dy="0.95em" style="text-anchor: middle; visibility: inherit; font-family: Roboto, sans-serif; font-size: 12px; font-weight: 200;" fill="rgb(50, 49, 63)" stroke="none" stroke-width="1px">5</text><text x="69.99675" y="0" dx="0em" dy="0.95em" style="text-anchor: middle; visibility: inherit; font-family: Roboto, sans-serif; font-size: 12px; font-weight: 200;" fill="rgb(50, 49, 63)" stroke="none" stroke-width="1px">10</text><text x="93.32900000000001" y="0" dx="0em" dy="0.95em" style="text-anchor: middle; visibility: inherit; font-family: Roboto, sans-serif; font-size: 12px; font-weight: 200;" fill="rgb(50, 49, 63)" stroke="none" stroke-width="1px">15</text><text x="116.66125000000001" y="0" dx="0em" dy="0.95em" style="text-anchor: middle; visibility: inherit; font-family: Roboto, sans-serif; font-size: 12px; font-weight: 200;" fill="rgb(50, 49, 63)" stroke="none" stroke-width="1px">20</text><text x="139.9935" y="0" dx="0em" dy="0.95em" style="text-anchor: middle; visibility: inherit; font-family: Roboto, sans-serif; font-size: 12px; font-weight: 200;" fill="rgb(50, 49, 63)" stroke="none" stroke-width="1px">25</text><text x="163.32575000000003" y="0" dx="0em" dy="0.95em" style="text-anchor: middle; visibility: inherit; font-family: Roboto, sans-serif; font-size: 12px; font-weight: 200;" fill="rgb(50, 49, 63)" stroke="none" stroke-width="1px">30</text><text x="186.65800000000002" y="0" dx="0em" dy="0.95em" style="text-anchor: middle; visibility: inherit; font-family: Roboto, sans-serif; font-size: 12px; font-weight: 200;" fill="rgb(50, 49, 63)" stroke="none" stroke-width="1px">35</text><text x="209.99025" y="0" dx="0em" dy="0.95em" style="text-anchor: middle; visibility: inherit; font-family: Roboto, sans-serif; font-size: 12px; font-weight: 200;" fill="rgb(50, 49, 63)" stroke="none" stroke-width="1px">40</text><text x="233.32250000000002" y="0" dx="0em" dy="0.95em" style="text-anchor: middle; visibility: inherit; font-family: Roboto, sans-serif; font-size: 12px; font-weight: 200;" fill="rgb(50, 49, 63)" stroke="none" stroke-width="1px">45</text><text x="256.65475000000004" y="0" dx="0em" dy="0.95em" style="text-anchor: middle; visibility: inherit; font-family: Roboto, sans-serif; font-size: 12px; font-weight: 200;" fill="rgb(50, 49, 63)" stroke="none" stroke-width="1px">50</text><text x="279.987" y="0" dx="0em" dy="0.95em" style="text-anchor: middle; visibility: hidden; font-family: Roboto, sans-serif; font-size: 12px; font-weight: 200;" fill="rgb(50, 49, 63)" stroke="none" stroke-width="1px">55</text></g><line x1="0" y1="0" x2="279.987" y2="0" fill="rgb(0, 0, 0)" stroke="rgb(204, 204, 204)" stroke-width="1px"></line></g></g></g></g></svg>