<svg viewBox="0 0 329.98699951171875 199.9865264892578" xmlns="http://www.w3.org/2000/svg"><g><g><g><g><g><line x1="50" y1="177.987" x2="45" y2="177.987" style="visibility: inherit;" fill="rgb(0, 0, 0)" stroke="rgb(204, 204, 204)" stroke-width="1px"></line><line x1="50" y1="155.73862499999998" x2="45" y2="155.73862499999998" style="visibility: inherit;" fill="rgb(0, 0, 0)" stroke="rgb(204, 204, 204)" stroke-width="1px"></line><line x1="50" y1="133.49025" x2="45" y2="133.49025" style="visibility: inherit;" fill="rgb(0, 0, 0)" stroke="rgb(204, 204, 204)" stroke-width="1px"></line><line x1="50" y1="111.241875" x2="45" y2="111.241875" style="visibility: inherit;" fill="rgb(0, 0, 0)" stroke="rgb(204, 204, 204)" stroke-width="1px"></line><line x1="50" y1="88.99350000000001" x2="45" y2="88.99350000000001" style="visibility: inherit;" fill="rgb(0, 0, 0)" stroke="rgb(204, 204, 204)" stroke-width="1px"></line><line x1="50" y1="66.745125" x2="45" y2="66.745125" style="visibility: inherit;" fill="rgb(0, 0, 0)" stroke="rgb(204, 204, 204)" stroke-width="1px"></line><line x1="50" y1="44.49674999999998" x2="45" y2="44.49674999999998" style="visibility: inherit;" fill="rgb(0, 0, 0)" stroke="rgb(204, 204, 204)" stroke-width="1px"></line><line x1="50" y1="22.24837500000002" x2="45" y2="22.24837500000002" style="visibility: inherit;" fill="rgb(0, 0, 0)" stroke="rgb(204, 204, 204)" stroke-width="1px"></line><line x1="50" y1="0" x2="45" y2="0" style="visibility: inherit;" fill="rgb(0, 0, 0)" stroke="rgb(204, 204, 204)" stroke-width="1px"></line></g><g transform="translate(40, 0)"><text x="0" y="177.987" dx="0em" dy="0.3em" style="text-anchor: end; visibility: hidden; font-family: Roboto, sans-serif; font-size: 12px; font-weight: 200;" fill="rgb(50, 49, 63)" stroke="none" stroke-width="1px">0.5</text><text x="0" y="155.73862499999998" dx="0em" dy="0.3em" style="text-anchor: end; visibility: inherit; font-family: Roboto, sans-serif; font-size: 12px; font-weight: 200;" fill="rgb(50, 49, 63)" stroke="none" stroke-width="1px">0.55</text><text x="0" y="133.49025" dx="0em" dy="0.3em" style="text-anchor: end; visibility: hidden; font-family: Roboto, sans-serif; font-size: 12px; font-weight: 200;" fill="rgb(50, 49, 63)" stroke="none" stroke-width="1px">0.6</text><text x="0" y="111.241875" dx="0em" dy="0.3em" style="text-anchor: end; visibility: inherit; font-family: Roboto, sans-serif; font-size: 12px; font-weight: 200;" fill="rgb(50, 49, 63)" stroke="none" stroke-width="1px">0.65</text><text x="0" y="88.99350000000001" dx="0em" dy="0.3em" style="text-anchor: end; visibility: hidden; font-family: Roboto, sans-serif; font-size: 12px; font-weight: 200;" fill="rgb(50, 49, 63)" stroke="none" stroke-width="1px">0.7</text><text x="0" y="66.745125" dx="0em" dy="0.3em" style="text-anchor: end; visibility: inherit; font-family: Roboto, sans-serif; font-size: 12px; font-weight: 200;" fill="rgb(50, 49, 63)" stroke="none" stroke-width="1px">0.75</text><text x="0" y="44.49674999999998" dx="0em" dy="0.3em" style="text-anchor: end; visibility: hidden; font-family: Roboto, sans-serif; font-size: 12px; font-weight: 200;" fill="rgb(50, 49, 63)" stroke="none" stroke-width="1px">0.8</text><text x="0" y="22.24837500000002" dx="0em" dy="0.3em" style="text-anchor: end; visibility: inherit; font-family: Roboto, sans-serif; font-size: 12px; font-weight: 200;" fill="rgb(50, 49, 63)" stroke="none" stroke-width="1px">0.85</text><text x="0" y="0" dx="0em" dy="0.3em" style="text-anchor: end; visibility: hidden; font-family: Roboto, sans-serif; font-size: 12px; font-weight: 200;" fill="rgb(50, 49, 63)" stroke="none" stroke-width="1px">0.9</text></g><line x1="50" y1="0" x2="50" y2="177.987" fill="rgb(0, 0, 0)" stroke="rgb(204, 204, 204)" stroke-width="1px"></line></g></g><g transform="translate(50, 0)" clip-path="url(#clip_0)"><clipPath id="clip_0"><rect width="279" height="177"></rect></clipPath><g><g><g><line x1="0" y1="0" x2="0" y2="177.987" fill="rgb(0, 0, 0)" stroke="rgb(60, 60, 60)" stroke-width="1px" opacity="0.25"></line><line x1="23.332250000000002" y1="0" x2="23.332250000000002" y2="177.987" fill="rgb(0, 0, 0)" stroke="rgb(60, 60, 60)" stroke-width="1px" opacity="0.25"></line><line x1="46.664500000000004" y1="0" x2="46.664500000000004" y2="177.987" fill="rgb(0, 0, 0)" stroke="rgb(60, 60, 60)" stroke-width="1px" opacity="0.25"></line><line x1="69.99675" y1="0" x2="69.99675" y2="177.987" fill="rgb(0, 0, 0)" stroke="rgb(60, 60, 60)" stroke-width="1px" opacity="0.25"></line><line x1="93.32900000000001" y1="0" x2="93.32900000000001" y2="177.987" fill="rgb(0, 0, 0)" stroke="rgb(60, 60, 60)" stroke-width="1px" opacity="0.25"></line><line x1="116.66125000000001" y1="0" x2="116.66125000000001" y2="177.987" fill="rgb(0, 0, 0)" stroke="rgb(60, 60, 60)" stroke-width="1px" opacity="0.25"></line><line x1="139.9935" y1="0" x2="139.9935" y2="177.987" fill="rgb(0, 0, 0)" stroke="rgb(60, 60, 60)" stroke-width="1px" opacity="0.25"></line><line x1="163.32575000000003" y1="0" x2="163.32575000000003" y2="177.987" fill="rgb(0, 0, 0)" stroke="rgb(60, 60, 60)" stroke-width="1px" opacity="0.25"></line><line x1="186.65800000000002" y1="0" x2="186.65800000000002" y2="177.987" fill="rgb(0, 0, 0)" stroke="rgb(60, 60, 60)" stroke-width="1px" opacity="0.25"></line><line x1="209.99025" y1="0" x2="209.99025" y2="177.987" fill="rgb(0, 0, 0)" stroke="rgb(60, 60, 60)" stroke-width="1px" opacity="0.25"></line><line x1="233.32250000000002" y1="0" x2="233.32250000000002" y2="177.987" fill="rgb(0, 0, 0)" stroke="rgb(60, 60, 60)" stroke-width="1px" opacity="0.25"></line><line x1="256.65475000000004" y1="0" x2="256.65475000000004" y2="177.987" fill="rgb(0, 0, 0)" stroke="rgb(60, 60, 60)" stroke-width="1px" opacity="0.25"></line><line x1="279.987" y1="0" x2="279.987" y2="177.987" fill="rgb(0, 0, 0)" stroke="rgb(60, 60, 60)" stroke-width="1px" opacity="0.25"></line></g><g><line x1="0" y1="177.987" x2="279.987" y2="177.987" fill="rgb(0, 0, 0)" stroke="rgb(60, 60, 60)" stroke-width="1px" opacity="0.25"></line><line x1="0" y1="155.73862499999998" x2="279.987" y2="155.73862499999998" fill="rgb(0, 0, 0)" stroke="rgb(60, 60, 60)" stroke-width="1px" opacity="0.25"></line><line x1="0" y1="133.49025" x2="279.987" y2="133.49025" fill="rgb(0, 0, 0)" stroke="rgb(60, 60, 60)" stroke-width="1px" opacity="0.25"></line><line x1="0" y1="111.241875" x2="279.987" y2="111.241875" fill="rgb(0, 0, 0)" stroke="rgb(60, 60, 60)" stroke-width="1px" opacity="0.25"></line><line x1="0" y1="88.99350000000001" x2="279.987" y2="88.99350000000001" fill="rgb(0, 0, 0)" stroke="rgb(60, 60, 60)" stroke-width="1px" opacity="0.25"></line><line x1="0" y1="66.745125" x2="279.987" y2="66.745125" fill="rgb(0, 0, 0)" stroke="rgb(60, 60, 60)" stroke-width="1px" opacity="0.25"></line><line x1="0" y1="44.49674999999998" x2="279.987" y2="44.49674999999998" fill="rgb(0, 0, 0)" stroke="rgb(60, 60, 60)" stroke-width="1px" opacity="0.25"></line><line x1="0" y1="22.24837500000002" x2="279.987" y2="22.24837500000002" fill="rgb(0, 0, 0)" stroke="rgb(60, 60, 60)" stroke-width="1px" opacity="0.25"></line><line x1="0" y1="0" x2="279.987" y2="0" fill="rgb(0, 0, 0)" stroke="rgb(60, 60, 60)" stroke-width="1px" opacity="0.25"></line></g></g></g><g><g><line x1="0" y1="400.47075" x2="279.987" y2="400.47075" fill="rgb(0, 0, 0)" stroke="rgb(153, 153, 153)" stroke-width="1.5px"></line></g></g><g><g><line x1="23.332250000000002" y1="0" x2="23.332250000000002" y2="177.987" fill="rgb(0, 0, 0)" stroke="rgb(153, 153, 153)" stroke-width="1.5px"></line></g></g><g><g><g><g><g><path stroke="rgb(51, 187, 238)" stroke-width="2px" d="M23.332250000000002,143.3797315749228L27.998700000000003,139.81635082912445L32.665150000000004,136.9861743609309L37.3316,135.930354896754L41.99805,135.76904730346797L46.664500000000004,136.19430313226582L51.33095,135.53443254348636L55.997400000000006,131.6044363978207L60.663850000000004,130.8712321202159L65.33030000000001,134.11199767944217L69.99675,132.9682043108046L74.6632,133.12951190409063L79.32965,132.98287104856968L83.9961,131.89771810886265L88.66255000000001,131.39915511336923L93.32900000000001,133.93604987052083L97.99545,134.7572280525863L102.6619,134.0680239882767L107.32835000000001,132.73358955082296L111.99480000000001,133.04153799962998L116.66125000000001,132.51361500647664L121.32770000000001,133.73074206393957L125.99415000000002,132.16169286650418L130.66060000000002,133.17351211738585L135.32705,134.62525393483043L139.9935,133.3348197106719L144.65995000000004,133.4521270906627L149.3264,133.2761527596116L153.99285000000003,132.92420409750937L158.6593,132.90956388187408L163.32575000000003,133.48146056619285L167.9922,135.38779168796538L172.65865000000002,133.86271618169545L177.32510000000002,133.3934601396024L181.99155000000002,134.3759724370837L186.65800000000002,135.07984323915838L191.32445,134.12666441720722L195.9909,134.84520195704698L200.65735,136.076995752275L205.3238,133.74540880170463L209.99025,134.69856110152602L214.65670000000003,134.34663896155357L219.32315000000003,134.39061265271903L223.98960000000002,135.5784062346518L228.65605000000002,134.18533136826753L233.32250000000002,136.72222612541913L237.98895000000002,134.34663896155357L242.65540000000001,135.6957401367724L247.32185,136.384944201082L251.98830000000004,137.23545585867762" style="fill: none;" fill="none"></path></g><g><path stroke="rgb(204, 51, 17)" stroke-width="2px" d="M23.332250000000002,161.99723231327533L27.998700000000003,121.5095833632052L32.665150000000004,108.62457575422525L37.3316,102.3017265382111L41.99805,95.57582051602006L46.664500000000004,92.04283413094282L51.33095,87.75412618008255L55.997400000000006,85.2539380505383L60.663850000000004,83.47170397397876L65.33030000000001,80.64407363024354L69.99675,78.57213833016156L74.6632,77.86678228881955L79.32965,75.03915194508433L83.9961,74.5038557998538L88.66255000000001,73.93705136445165L93.32900000000001,71.88402634289861L97.99545,69.92544662547111L102.6619,70.34110144329071L107.32835000000001,69.23900086265802L111.99480000000001,67.8723950817883L116.66125000000001,66.78920477968454L121.32770000000001,65.78157602530717L125.99415000000002,66.23502487805486L130.66060000000002,65.38483148601651L135.32705,64.6039138969481L139.9935,64.03082371678948L144.65995000000004,64.38351499852538L149.3264,62.99171319437027L153.99285000000003,62.242303895473476L158.6593,62.765002029061314L163.32575000000003,61.0646417671144L167.9922,61.44878829476237L172.65865000000002,61.45510056164861L177.32510000000002,60.749744520306585L181.99155000000002,60.516747610241175L186.65800000000002,59.074580281645055L191.32445,59.61616217163205L195.9909,58.936028675705195L200.65735,58.62744369578361L205.3238,57.109714819461104L209.99025,57.7961605822742L214.65670000000003,56.65626596671343L219.32315000000003,56.939654923349615L223.98960000000002,57.22307040211558L228.65605000000002,57.10340255257487L233.32250000000002,56.75073779296875L237.98895000000002,57.26083791491389L242.65540000000001,54.99998548445105L247.32185,55.81238484156132L251.98830000000004,54.40801154789328" style="fill: none;" fill="none"></path></g><g><path stroke="rgb(0, 119, 187)" stroke-width="2px" d="M23.332250000000002,126.89726228338479L27.998700000000003,114.82871191737055L32.665150000000004,108.87507726994157L37.3316,106.57282379490137L41.99805,104.73979983982443L46.664500000000004,104.34387748655676L51.33095,103.33205823567509L55.997400000000006,103.14141716685891L60.663850000000004,102.8334687180519L65.33030000000001,103.43469887790084L69.99675,102.5841872203052L74.6632,102.98010957357288L79.32965,102.6428541713655L83.9961,102.92146914464234L88.66255000000001,103.33205823567509L93.32900000000001,103.64000668448209L97.99545,104.13859620210528L102.6619,103.78664754000306L107.32835000000001,104.51985181760787L111.99480000000001,104.90110743311047L116.66125000000001,105.83961951729655L121.32770000000001,105.57567128178476L125.99415000000002,105.79561930400133L130.66060000000002,106.23554187056422L135.32705,106.77813160148263L139.9935,106.99807962369918L144.65995000000004,107.30602807250618L149.3264,107.49666914132237L153.99285000000003,107.77528411459923L158.6593,107.84859128129482L163.32575000000003,108.33251406115293L167.9922,108.99241117206216L172.65865000000002,108.80177010324597L177.32510000000002,108.55248860549926L181.99155000000002,108.97774443429708L186.65800000000002,109.41766700085998L191.32445,109.56430785638094L195.9909,109.74028218743204L200.65735,109.87225630518793L205.3238,110.0188971607089L209.99025,110.57612710726261L214.65670000000003,110.69343448725343L219.32315000000003,110.81074186724425L223.98960000000002,110.7081012250185L228.65605000000002,111.25066443380713L233.32250000000002,111.47063897815346L237.98895000000002,111.71992047590017L242.65540000000001,112.58509887126088L247.32185,112.453124753505L251.98830000000004,112.42379127797484" style="fill: none;" fill="none"></path></g><g><path stroke="rgb(255, 112, 67)" stroke-width="2px" d="M23.332250000000002,165.5239329535961L27.998700000000003,114.36802252319455L32.665150000000004,99.0962088894546L37.3316,89.98978258726001L41.99805,83.49689999726415L46.664500000000004,77.46375200477242L51.33095,72.72790746805072L55.997400000000006,68.483279296875L60.663850000000004,66.2665066460967L65.33030000000001,62.44381903749704L69.99675,59.987737209767104L74.6632,57.468665323823686L79.32965,55.41564030227065L83.9961,53.280714943975205L88.66255000000001,52.109365082502364L93.32900000000001,50.01854602602124L97.99545,47.92772696954012L102.6619,46.98306175124645L107.32835000000001,46.71227080625295L111.99480000000001,45.23862170961499L116.66125000000001,44.59625572648644L121.32770000000001,42.92737723258138L125.99415000000002,41.428532112658026L130.66060000000002,40.8806379557848L135.32705,39.841527433365584L139.9935,39.74705560711026L144.65995000000004,38.430841872811314L149.3264,37.92702749562263L153.99285000000003,36.49117243391275L158.6593,36.094401372492314L163.32575000000003,35.886600485712286L167.9922,34.99861305874586L172.65865000000002,35.29460002702474L177.32510000000002,34.072858118981124L181.99155000000002,33.78946916234493L186.65800000000002,33.632033800005914L191.32445,33.399010367810725L195.9909,33.03374759656191L200.65735,31.83088944491744L205.3238,31.257799264758823L209.99025,31.534902476638553L214.65670000000003,30.269080788910387L219.32315000000003,30.829572957426308L223.98960000000002,30.14941293936968L228.65605000000002,30.099047414928673L233.32250000000002,29.43148540851474L237.98895000000002,28.22862725687027L242.65540000000001,29.09141866055131L247.32185,27.806686694294214L251.98830000000004,27.79408868265152" style="fill: none;" fill="none"></path></g><g><path stroke="rgb(0, 153, 136)" stroke-width="2px" d="M23.332250000000002,194.57209667269885L27.998700000000003,163.73350353893636L32.665150000000004,149.949236597836L37.3316,141.5907078331411L41.99805,136.0036885855794L46.664500000000004,131.14984709349275L51.33095,127.96774848532677L55.997400000000006,124.74164966386556L60.663850000000004,122.1754214311838L65.33030000000001,120.16644966718555L69.99675,118.6413741609156L74.6632,117.18963234347105L79.32965,115.57658293274045L83.9961,114.25681523305177L88.66255000000001,113.15699555557966L93.32900000000001,111.86656133142114L97.99545,110.7667681760788L102.6619,110.0188971607089L107.32835000000001,109.37366678756476L111.99480000000001,108.31784732338785L116.66125000000001,107.70195042577386L121.32770000000001,107.27669459697604L125.99415000000002,106.51415684384108L130.66060000000002,105.89828646835684L135.32705,105.26772283297777L139.9935,105.17972240638733L144.65995000000004,104.71049288642406L149.3264,104.07992925104499L153.99285000000003,103.71331385117769L158.6593,103.59600647118687L163.32575000000003,103.09744347569347L167.9922,102.99477631133794L172.65865000000002,102.65752090913057L177.32510000000002,102.46687984031439L181.99155000000002,102.04162401151657L186.65800000000002,101.93895684716105L191.32445,101.7923159916401L195.9909,101.42572711390257L200.65735,101.3377532094419L205.3238,101.54303449389339L209.99025,101.29375299614668L214.65670000000003,101.29375299614668L219.32315000000003,100.86849716734886L223.98960000000002,101.13244540286064L228.65605000000002,100.56054871854185L233.32250000000002,100.76583000299334L237.98895000000002,100.50188176748156L242.65540000000001,100.4872150297165L247.32185,100.54588198077678L251.98830000000004,100.35524091196059" style="fill: none;" fill="none"></path></g><g><path stroke="rgb(238, 51, 119)" stroke-width="2px" d="M27.998700000000003,178.88755891647935L32.665150000000004,156.68201185163855L37.3316,144.98095211577416L41.99805,136.4665262722671L46.664500000000004,130.46486004781724L51.33095,124.95441018891334L55.997400000000006,121.68590248194336L60.663850000000004,117.42239055436849L65.33030000000001,114.11611533460021L69.99675,111.03657780227064L74.6632,108.34747254234551L79.32965,106.8927072021067L83.9961,103.90132922914624L88.66255000000001,102.38988609758019L93.32900000000001,99.92120625820756L97.99545,98.08229439032077L102.6619,96.53936949071287L107.32835000000001,94.56187949475645L111.99480000000001,92.81743945312499L116.66125000000001,92.8048414414823L121.32770000000001,90.15981596124172L125.99415000000002,89.29073881280422L130.66060000000002,88.74915692281722L135.32705,86.19860326883196L139.9935,85.72627065968513L144.65995000000004,84.88238953453302L149.3264,83.5157837536633L153.99285000000003,82.52075301092863L158.6593,81.67058614102005L163.32575000000003,81.17305750858783L167.9922,79.27746784937382L172.65865000000002,78.86812529844046L177.32510000000002,77.84789853242039L181.99155000000002,77.21813056093454L186.65800000000002,76.53168479812145L191.32445,75.83264102366566L195.9909,74.54793557953835L200.65735,74.3086264025867L205.3238,73.78590174686909L209.99025,73.04277819272876L214.65670000000003,71.80215252828597L219.32315000000003,71.50616556000709L223.98960000000002,71.22906234812736L228.65605000000002,70.25922762867808L233.32250000000002,69.49719379600883L237.98895000000002,69.64205766883492L242.65540000000001,68.19357807335257L247.32185,67.27413540047407L251.98830000000004,66.93404213038087" style="fill: none;" fill="none"></path></g></g></g></g></g></g><g transform="translate(50, 177)" clip-path="url(#clip_1)"><clipPath id="clip_1"><rect width="279" height="21"></rect></clipPath><g><g><line x1="0" y1="0" x2="0" y2="5" style="visibility: inherit;" fill="rgb(0, 0, 0)" stroke="rgb(204, 204, 204)" stroke-width="1px"></line><line x1="23.332250000000002" y1="0" x2="23.332250000000002" y2="5" style="visibility: inherit;" fill="rgb(0, 0, 0)" stroke="rgb(204, 204, 204)" stroke-width="1px"></line><line x1="46.664500000000004" y1="0" x2="46.664500000000004" y2="5" style="visibility: inherit;" fill="rgb(0, 0, 0)" stroke="rgb(204, 204, 204)" stroke-width="1px"></line><line x1="69.99675" y1="0" x2="69.99675" y2="5" style="visibility: inherit;" fill="rgb(0, 0, 0)" stroke="rgb(204, 204, 204)" stroke-width="1px"></line><line x1="93.32900000000001" y1="0" x2="93.32900000000001" y2="5" style="visibility: inherit;" fill="rgb(0, 0, 0)" stroke="rgb(204, 204, 204)" stroke-width="1px"></line><line x1="116.66125000000001" y1="0" x2="116.66125000000001" y2="5" style="visibility: inherit;" fill="rgb(0, 0, 0)" stroke="rgb(204, 204, 204)" stroke-width="1px"></line><line x1="139.9935" y1="0" x2="139.9935" y2="5" style="visibility: inherit;" fill="rgb(0, 0, 0)" stroke="rgb(204, 204, 204)" stroke-width="1px"></line><line x1="163.32575000000003" y1="0" x2="163.32575000000003" y2="5" style="visibility: inherit;" fill="rgb(0, 0, 0)" stroke="rgb(204, 204, 204)" stroke-width="1px"></line><line x1="186.65800000000002" y1="0" x2="186.65800000000002" y2="5" style="visibility: inherit;" fill="rgb(0, 0, 0)" stroke="rgb(204, 204, 204)" stroke-width="1px"></line><line x1="209.99025" y1="0" x2="209.99025" y2="5" style="visibility: inherit;" fill="rgb(0, 0, 0)" stroke="rgb(204, 204, 204)" stroke-width="1px"></line><line x1="233.32250000000002" y1="0" x2="233.32250000000002" y2="5" style="visibility: inherit;" fill="rgb(0, 0, 0)" stroke="rgb(204, 204, 204)" stroke-width="1px"></line><line x1="256.65475000000004" y1="0" x2="256.65475000000004" y2="5" style="visibility: inherit;" fill="rgb(0, 0, 0)" stroke="rgb(204, 204, 204)" stroke-width="1px"></line><line x1="279.987" y1="0" x2="279.987" y2="5" style="visibility: inherit;" fill="rgb(0, 0, 0)" stroke="rgb(204, 204, 204)" stroke-width="1px"></line></g><g transform="translate(0, 8)"><text x="0" y="0" dx="0em" dy="0.95em" style="text-anchor: middle; visibility: hidden; font-family: Roboto, sans-serif; font-size: 12px; font-weight: 200;" fill="rgb(50, 49, 63)" stroke="none" stroke-width="1px">-5</text><text x="23.332250000000002" y="0" dx="0em" dy="0.95em" style="text-anchor: middle; visibility: inherit; font-family: Roboto, sans-serif; font-size: 12px; font-weight: 200;" fill="rgb(50, 49, 63)" stroke="none" stroke-width="1px">0</text><text x="46.664500000000004" y="0" dx="0em" dy="0.95em" style="text-anchor: middle; visibility: inherit; font-family: Roboto, sans-serif; font-size: 12px; font-weight: 200;" fill="rgb(50, 49, 63)" stroke="none" stroke-width="1px">5</text><text x="69.99675" y="0" dx="0em" dy="0.95em" style="text-anchor: middle; visibility: inherit; font-family: Roboto, sans-serif; font-size: 12px; font-weight: 200;" fill="rgb(50, 49, 63)" stroke="none" stroke-width="1px">10</text><text x="93.32900000000001" y="0" dx="0em" dy="0.95em" style="text-anchor: middle; visibility: inherit; font-family: Roboto, sans-serif; font-size: 12px; font-weight: 200;" fill="rgb(50, 49, 63)" stroke="none" stroke-width="1px">15</text><text x="116.66125000000001" y="0" dx="0em" dy="0.95em" style="text-anchor: middle; visibility: inherit; font-family: Roboto, sans-serif; font-size: 12px; font-weight: 200;" fill="rgb(50, 49, 63)" stroke="none" stroke-width="1px">20</text><text x="139.9935" y="0" dx="0em" dy="0.95em" style="text-anchor: middle; visibility: inherit; font-family: Roboto, sans-serif; font-size: 12px; font-weight: 200;" fill="rgb(50, 49, 63)" stroke="none" stroke-width="1px">25</text><text x="163.32575000000003" y="0" dx="0em" dy="0.95em" style="text-anchor: middle; visibility: inherit; font-family: Roboto, sans-serif; font-size: 12px; font-weight: 200;" fill="rgb(50, 49, 63)" stroke="none" stroke-width="1px">30</text><text x="186.65800000000002" y="0" dx="0em" dy="0.95em" style="text-anchor: middle; visibility: inherit; font-family: Roboto, sans-serif; font-size: 12px; font-weight: 200;" fill="rgb(50, 49, 63)" stroke="none" stroke-width="1px">35</text><text x="209.99025" y="0" dx="0em" dy="0.95em" style="text-anchor: middle; visibility: inherit; font-family: Roboto, sans-serif; font-size: 12px; font-weight: 200;" fill="rgb(50, 49, 63)" stroke="none" stroke-width="1px">40</text><text x="233.32250000000002" y="0" dx="0em" dy="0.95em" style="text-anchor: middle; visibility: inherit; font-family: Roboto, sans-serif; font-size: 12px; font-weight: 200;" fill="rgb(50, 49, 63)" stroke="none" stroke-width="1px">45</text><text x="256.65475000000004" y="0" dx="0em" dy="0.95em" style="text-anchor: middle; visibility: inherit; font-family: Roboto, sans-serif; font-size: 12px; font-weight: 200;" fill="rgb(50, 49, 63)" stroke="none" stroke-width="1px">50</text><text x="279.987" y="0" dx="0em" dy="0.95em" style="text-anchor: middle; visibility: hidden; font-family: Roboto, sans-serif; font-size: 12px; font-weight: 200;" fill="rgb(50, 49, 63)" stroke="none" stroke-width="1px">55</text></g><line x1="0" y1="0" x2="279.987" y2="0" fill="rgb(0, 0, 0)" stroke="rgb(204, 204, 204)" stroke-width="1px"></line></g></g></g></g></svg>