<svg viewBox="0 0 329.98699951171875 199.9865264892578" xmlns="http://www.w3.org/2000/svg"><g><g><g><g><g><line x1="50" y1="177.987" x2="45" y2="177.987" style="visibility: inherit;" fill="rgb(0, 0, 0)" stroke="rgb(204, 204, 204)" stroke-width="1px"></line><line x1="50" y1="160.1883" x2="45" y2="160.1883" style="visibility: inherit;" fill="rgb(0, 0, 0)" stroke="rgb(204, 204, 204)" stroke-width="1px"></line><line x1="50" y1="142.3896" x2="45" y2="142.3896" style="visibility: inherit;" fill="rgb(0, 0, 0)" stroke="rgb(204, 204, 204)" stroke-width="1px"></line><line x1="50" y1="124.59089999999999" x2="45" y2="124.59089999999999" style="visibility: inherit;" fill="rgb(0, 0, 0)" stroke="rgb(204, 204, 204)" stroke-width="1px"></line><line x1="50" y1="106.7922" x2="45" y2="106.7922" style="visibility: inherit;" fill="rgb(0, 0, 0)" stroke="rgb(204, 204, 204)" stroke-width="1px"></line><line x1="50" y1="88.9935" x2="45" y2="88.9935" style="visibility: inherit;" fill="rgb(0, 0, 0)" stroke="rgb(204, 204, 204)" stroke-width="1px"></line><line x1="50" y1="71.1948" x2="45" y2="71.1948" style="visibility: inherit;" fill="rgb(0, 0, 0)" stroke="rgb(204, 204, 204)" stroke-width="1px"></line><line x1="50" y1="53.396100000000004" x2="45" y2="53.396100000000004" style="visibility: inherit;" fill="rgb(0, 0, 0)" stroke="rgb(204, 204, 204)" stroke-width="1px"></line><line x1="50" y1="35.59739999999999" x2="45" y2="35.59739999999999" style="visibility: inherit;" fill="rgb(0, 0, 0)" stroke="rgb(204, 204, 204)" stroke-width="1px"></line><line x1="50" y1="17.798699999999997" x2="45" y2="17.798699999999997" style="visibility: inherit;" fill="rgb(0, 0, 0)" stroke="rgb(204, 204, 204)" stroke-width="1px"></line><line x1="50" y1="0" x2="45" y2="0" style="visibility: inherit;" fill="rgb(0, 0, 0)" stroke="rgb(204, 204, 204)" stroke-width="1px"></line></g><g transform="translate(40, 0)"><text x="0" y="177.987" dx="0em" dy="0.3em" style="text-anchor: end; visibility: hidden; font-family: Roboto, sans-serif; font-size: 12px; font-weight: 200;" fill="rgb(50, 49, 63)" stroke="none" stroke-width="1px">-0.5</text><text x="0" y="160.1883" dx="0em" dy="0.3em" style="text-anchor: end; visibility: inherit; font-family: Roboto, sans-serif; font-size: 12px; font-weight: 200;" fill="rgb(50, 49, 63)" stroke="none" stroke-width="1px">0</text><text x="0" y="142.3896" dx="0em" dy="0.3em" style="text-anchor: end; visibility: hidden; font-family: Roboto, sans-serif; font-size: 12px; font-weight: 200;" fill="rgb(50, 49, 63)" stroke="none" stroke-width="1px">0.5</text><text x="0" y="124.59089999999999" dx="0em" dy="0.3em" style="text-anchor: end; visibility: inherit; font-family: Roboto, sans-serif; font-size: 12px; font-weight: 200;" fill="rgb(50, 49, 63)" stroke="none" stroke-width="1px">1</text><text x="0" y="106.7922" dx="0em" dy="0.3em" style="text-anchor: end; visibility: hidden; font-family: Roboto, sans-serif; font-size: 12px; font-weight: 200;" fill="rgb(50, 49, 63)" stroke="none" stroke-width="1px">1.5</text><text x="0" y="88.9935" dx="0em" dy="0.3em" style="text-anchor: end; visibility: inherit; font-family: Roboto, sans-serif; font-size: 12px; font-weight: 200;" fill="rgb(50, 49, 63)" stroke="none" stroke-width="1px">2</text><text x="0" y="71.1948" dx="0em" dy="0.3em" style="text-anchor: end; visibility: hidden; font-family: Roboto, sans-serif; font-size: 12px; font-weight: 200;" fill="rgb(50, 49, 63)" stroke="none" stroke-width="1px">2.5</text><text x="0" y="53.396100000000004" dx="0em" dy="0.3em" style="text-anchor: end; visibility: inherit; font-family: Roboto, sans-serif; font-size: 12px; font-weight: 200;" fill="rgb(50, 49, 63)" stroke="none" stroke-width="1px">3</text><text x="0" y="35.59739999999999" dx="0em" dy="0.3em" style="text-anchor: end; visibility: hidden; font-family: Roboto, sans-serif; font-size: 12px; font-weight: 200;" fill="rgb(50, 49, 63)" stroke="none" stroke-width="1px">3.5</text><text x="0" y="17.798699999999997" dx="0em" dy="0.3em" style="text-anchor: end; visibility: inherit; font-family: Roboto, sans-serif; font-size: 12px; font-weight: 200;" fill="rgb(50, 49, 63)" stroke="none" stroke-width="1px">4</text><text x="0" y="0" dx="0em" dy="0.3em" style="text-anchor: end; visibility: hidden; font-family: Roboto, sans-serif; font-size: 12px; font-weight: 200;" fill="rgb(50, 49, 63)" stroke="none" stroke-width="1px">4.5</text></g><line x1="50" y1="0" x2="50" y2="177.987" fill="rgb(0, 0, 0)" stroke="rgb(204, 204, 204)" stroke-width="1px"></line></g></g><g transform="translate(50, 0)" clip-path="url(#clip_0)"><clipPath id="clip_0"><rect width="279" height="177"></rect></clipPath><g><g><g><line x1="0" y1="0" x2="0" y2="177.987" fill="rgb(0, 0, 0)" stroke="rgb(60, 60, 60)" stroke-width="1px" opacity="0.25"></line><line x1="23.332250000000002" y1="0" x2="23.332250000000002" y2="177.987" fill="rgb(0, 0, 0)" stroke="rgb(60, 60, 60)" stroke-width="1px" opacity="0.25"></line><line x1="46.664500000000004" y1="0" x2="46.664500000000004" y2="177.987" fill="rgb(0, 0, 0)" stroke="rgb(60, 60, 60)" stroke-width="1px" opacity="0.25"></line><line x1="69.99675" y1="0" x2="69.99675" y2="177.987" fill="rgb(0, 0, 0)" stroke="rgb(60, 60, 60)" stroke-width="1px" opacity="0.25"></line><line x1="93.32900000000001" y1="0" x2="93.32900000000001" y2="177.987" fill="rgb(0, 0, 0)" stroke="rgb(60, 60, 60)" stroke-width="1px" opacity="0.25"></line><line x1="116.66125000000001" y1="0" x2="116.66125000000001" y2="177.987" fill="rgb(0, 0, 0)" stroke="rgb(60, 60, 60)" stroke-width="1px" opacity="0.25"></line><line x1="139.9935" y1="0" x2="139.9935" y2="177.987" fill="rgb(0, 0, 0)" stroke="rgb(60, 60, 60)" stroke-width="1px" opacity="0.25"></line><line x1="163.32575000000003" y1="0" x2="163.32575000000003" y2="177.987" fill="rgb(0, 0, 0)" stroke="rgb(60, 60, 60)" stroke-width="1px" opacity="0.25"></line><line x1="186.65800000000002" y1="0" x2="186.65800000000002" y2="177.987" fill="rgb(0, 0, 0)" stroke="rgb(60, 60, 60)" stroke-width="1px" opacity="0.25"></line><line x1="209.99025" y1="0" x2="209.99025" y2="177.987" fill="rgb(0, 0, 0)" stroke="rgb(60, 60, 60)" stroke-width="1px" opacity="0.25"></line><line x1="233.32250000000002" y1="0" x2="233.32250000000002" y2="177.987" fill="rgb(0, 0, 0)" stroke="rgb(60, 60, 60)" stroke-width="1px" opacity="0.25"></line><line x1="256.65475000000004" y1="0" x2="256.65475000000004" y2="177.987" fill="rgb(0, 0, 0)" stroke="rgb(60, 60, 60)" stroke-width="1px" opacity="0.25"></line><line x1="279.987" y1="0" x2="279.987" y2="177.987" fill="rgb(0, 0, 0)" stroke="rgb(60, 60, 60)" stroke-width="1px" opacity="0.25"></line></g><g><line x1="0" y1="177.987" x2="279.987" y2="177.987" fill="rgb(0, 0, 0)" stroke="rgb(60, 60, 60)" stroke-width="1px" opacity="0.25"></line><line x1="0" y1="160.1883" x2="279.987" y2="160.1883" fill="rgb(0, 0, 0)" stroke="rgb(60, 60, 60)" stroke-width="1px" opacity="0.25"></line><line x1="0" y1="142.3896" x2="279.987" y2="142.3896" fill="rgb(0, 0, 0)" stroke="rgb(60, 60, 60)" stroke-width="1px" opacity="0.25"></line><line x1="0" y1="124.59089999999999" x2="279.987" y2="124.59089999999999" fill="rgb(0, 0, 0)" stroke="rgb(60, 60, 60)" stroke-width="1px" opacity="0.25"></line><line x1="0" y1="106.7922" x2="279.987" y2="106.7922" fill="rgb(0, 0, 0)" stroke="rgb(60, 60, 60)" stroke-width="1px" opacity="0.25"></line><line x1="0" y1="88.9935" x2="279.987" y2="88.9935" fill="rgb(0, 0, 0)" stroke="rgb(60, 60, 60)" stroke-width="1px" opacity="0.25"></line><line x1="0" y1="71.1948" x2="279.987" y2="71.1948" fill="rgb(0, 0, 0)" stroke="rgb(60, 60, 60)" stroke-width="1px" opacity="0.25"></line><line x1="0" y1="53.396100000000004" x2="279.987" y2="53.396100000000004" fill="rgb(0, 0, 0)" stroke="rgb(60, 60, 60)" stroke-width="1px" opacity="0.25"></line><line x1="0" y1="35.59739999999999" x2="279.987" y2="35.59739999999999" fill="rgb(0, 0, 0)" stroke="rgb(60, 60, 60)" stroke-width="1px" opacity="0.25"></line><line x1="0" y1="17.798699999999997" x2="279.987" y2="17.798699999999997" fill="rgb(0, 0, 0)" stroke="rgb(60, 60, 60)" stroke-width="1px" opacity="0.25"></line><line x1="0" y1="0" x2="279.987" y2="0" fill="rgb(0, 0, 0)" stroke="rgb(60, 60, 60)" stroke-width="1px" opacity="0.25"></line></g></g></g><g><g><line x1="0" y1="160.1883" x2="279.987" y2="160.1883" fill="rgb(0, 0, 0)" stroke="rgb(153, 153, 153)" stroke-width="1.5px"></line></g></g><g><g><line x1="23.332250000000002" y1="0" x2="23.332250000000002" y2="177.987" fill="rgb(0, 0, 0)" stroke="rgb(153, 153, 153)" stroke-width="1.5px"></line></g></g><g><g><g><g><g><path stroke="rgb(51, 187, 238)" stroke-width="2px" d="M23.332250000000002,91.47018315725326L27.998700000000003,86.77471378912925L32.665150000000004,83.23063584938048L37.3316,79.81795490584373L41.99805,77.42952890939712L46.664500000000004,72.52984338555336L51.33095,70.93932187185288L55.997400000000006,70.60427735438346L60.663850000000004,67.4420416996479L65.33030000000001,64.64293431515694L69.99675,62.80889297118186L74.6632,58.96697787938118L79.32965,56.82869163680076L83.9961,55.93562999596595L88.66255000000001,53.27447163462639L93.32900000000001,49.70993982839584L97.99545,47.993181464052206L102.6619,47.872707341766365L107.32835000000001,46.00778150811195L111.99480000000001,43.83592885808945L116.66125000000001,42.283709543323525L121.32770000000001,40.50722758626938L125.99415000000002,40.583203940105435L130.66060000000002,38.70787294449805L135.32705,35.057935636854175L139.9935,35.40176428370476L144.65995000000004,32.75761403374672L149.3264,31.909797024536136L153.99285000000003,30.806255761814114L158.6593,29.486098717260365L163.32575000000003,26.47858255877494L167.9922,24.19604987854957L172.65865000000002,24.214466845464703L177.32510000000002,24.560527594757076L181.99155000000002,23.035560298776634L186.65800000000002,20.997752614402764L191.32445,20.352174270915988L195.9909,19.39197132811547L200.65735,15.55816139917374L205.3238,16.533785369110102L209.99025,15.85354578466415L214.65670000000003,14.880332145881649L219.32315000000003,12.176840221881866L223.98960000000002,12.31901581163406L228.65605000000002,11.936197512245187L233.32250000000002,9.014061393928523L237.98895000000002,10.045241799545284L242.65540000000001,7.51794168806076L247.32185,6.756939035797111L251.98830000000004,4.921896216201786" style="fill: none;" fill="none"></path></g><g><path stroke="rgb(204, 51, 17)" stroke-width="2px" d="M23.332250000000002,88.91479080591202L27.998700000000003,103.57955108098984L32.665150000000004,108.43320691816807L37.3316,110.63954682397842L41.99805,112.81937308709621L46.664500000000004,113.79731403028964L51.33095,114.86802726166249L55.997400000000006,116.29061913671492L60.663850000000004,116.4614089218378L65.33030000000001,117.19741711900235L69.99675,117.94755206336974L74.6632,118.07585976190566L79.32965,118.70818128404618L83.9961,118.7290043385744L88.66255000000001,119.04462192642688L93.32900000000001,119.25902257997988L97.99545,119.9096464934349L102.6619,119.50387063851355L107.32835000000001,119.47103412008285L111.99480000000001,120.16763679771424L116.66125000000001,120.41409740173816L121.32770000000001,120.4307193509102L125.99415000000002,120.20199674727915L130.66060000000002,120.84321273086071L135.32705,120.79039762251377L139.9935,120.53537355322837L144.65995000000004,120.53146525218486L149.3264,120.9350684142351L153.99285000000003,121.12380413324833L158.6593,120.92275790247918L163.32575000000003,121.26039097981453L167.9922,120.73181129872799L172.65865000000002,120.83777251160144L177.32510000000002,121.2535503921032L181.99155000000002,121.04444143388272L186.65800000000002,121.58071889791489L191.32445,121.75032473516464L195.9909,121.1822376895666L200.65735,121.6312000588417L205.3238,122.30288042156697L209.99025,121.4032370490074L214.65670000000003,121.64642163956165L219.32315000000003,121.67626221821308L223.98960000000002,121.47281414337158L228.65605000000002,121.66023436474799L233.32250000000002,121.38109000976085L237.98895000000002,121.21253657062053L242.65540000000001,122.07516778063774L247.32185,121.21924136502741L251.98830000000004,121.91936193795203" style="fill: none;" fill="none"></path></g><g><path stroke="rgb(0, 119, 187)" stroke-width="2px" d="M23.332250000000002,107.84545530467034L27.998700000000003,112.39462436141967L32.665150000000004,114.22737142546177L37.3316,115.05865135631562L41.99805,115.63428341739177L46.664500000000004,115.85976819941997L51.33095,116.09574725775718L55.997400000000006,116.00237238678933L60.663850000000004,115.96466852710248L65.33030000000001,115.82479717998504L69.99675,115.67870904564857L74.6632,115.54566979916095L79.32965,115.42027316958904L83.9961,115.19960904986857L88.66255000000001,115.05350394136904L93.32900000000001,114.78754851107597L97.99545,114.45539384486675L102.6619,114.3455328180313L107.32835000000001,114.07406502828599L111.99480000000001,113.81253985455035L116.66125000000001,113.40926768867969L121.32770000000001,113.20322256689072L125.99415000000002,113.03849255797863L130.66060000000002,112.78973195486068L135.32705,112.49837468955518L139.9935,112.28182256083488L144.65995000000004,112.01312580320835L149.3264,111.77093420119284L153.99285000000003,111.50385847613812L158.6593,111.19930804259776L163.32575000000003,111.07242193021773L167.9922,110.74249087936877L172.65865000000002,110.52388487691879L177.32510000000002,110.3421212953806L181.99155000000002,110.08464445953369L186.65800000000002,109.73813813846111L191.32445,109.56978414573668L195.9909,109.34803792312144L200.65735,109.21310605745316L205.3238,108.87748441843986L209.99025,108.729516395545L214.65670000000003,108.42951079416275L219.32315000000003,108.21251733720302L223.98960000000002,108.08364100420475L228.65605000000002,107.81712542653084L233.32250000000002,107.67260315873622L237.98895000000002,107.43830029900073L242.65540000000001,107.17145372514724L247.32185,106.98001487066745L251.98830000000004,106.6755365773201" style="fill: none;" fill="none"></path></g><g><path stroke="rgb(255, 112, 67)" stroke-width="2px" d="M23.332250000000002,90.63600913159847L27.998700000000003,111.76322793116569L32.665150000000004,117.02499781422615L37.3316,120.11736357028484L41.99805,122.45874991736413L46.664500000000004,124.376193811512L51.33095,125.92894356887341L55.997400000000006,127.22642100981474L60.663850000000004,128.22728980375527L65.33030000000001,129.2910202888012L69.99675,130.08871047273874L74.6632,130.88031541922092L79.32965,131.51277697820663L83.9961,132.11616603941917L88.66255000000001,132.68323675700424L93.32900000000001,133.34241989217998L97.99545,133.81311767724753L102.6619,134.20122767196895L107.32835000000001,134.55659450615644L111.99480000000001,134.86780729869605L116.66125000000001,135.2728638734579L121.32770000000001,135.7479940368533L125.99415000000002,136.06457915199994L130.66060000000002,136.2746535157442L135.32705,136.59938835092782L139.9935,136.75247832752464L144.65995000000004,137.0950551298499L149.3264,137.38304938910008L153.99285000000003,137.66128562636374L158.6593,137.84610880079268L163.32575000000003,137.96892960112095L167.9922,138.1408248286128L172.65865000000002,138.28501397845744L177.32510000000002,138.53009543173314L181.99155000000002,138.70750938398837L186.65800000000002,138.814554821527L191.32445,138.94116510375736L195.9909,139.0875311900139L200.65735,139.27602502720356L205.3238,139.49411543945075L209.99025,139.5262751131296L214.65670000000003,139.69293593308927L219.32315000000003,139.869424793458L223.98960000000002,139.9757764120817L228.65605000000002,140.02548737035988L233.32250000000002,140.13009277195928L237.98895000000002,140.33624822580813L242.65540000000001,140.35891722056866L247.32185,140.56154629204275L251.98830000000004,140.70577363375426" style="fill: none;" fill="none"></path></g><g><path stroke="rgb(0, 153, 136)" stroke-width="2px" d="M23.332250000000002,66.22237170038224L27.998700000000003,85.95981816916466L32.665150000000004,94.38418865146636L37.3316,99.0974299683094L41.99805,102.15365348768233L46.664500000000004,104.33218122732639L51.33095,105.96784552767275L55.997400000000006,107.26162047929763L60.663850000000004,108.32432614924906L65.33030000000001,109.2069826281309L69.99675,109.94747624788285L74.6632,110.60401565716268L79.32965,111.16681525096894L83.9961,111.66953479464054L88.66255000000001,112.11283628053664L93.32900000000001,112.50207081356048L97.99545,112.86545369625091L102.6619,113.1796030189991L107.32835000000001,113.47411323509216L111.99480000000001,113.7437011362791L116.66125000000001,113.99344624085425L121.32770000000001,114.22009375305176L125.99415000000002,114.43887798421383L130.66060000000002,114.63254045405387L135.32705,114.81026418478488L139.9935,114.97519788365364L144.65995000000004,115.13398269195555L149.3264,115.28013447940349L153.99285000000003,115.4196790738821L158.6593,115.5466500570774L163.32575000000003,115.65148673164845L167.9922,115.78255697522164L172.65865000000002,115.87964918789864L177.32510000000002,115.98220708107948L181.99155000000002,116.0763033539772L186.65800000000002,116.1632662348509L191.32445,116.22993226025105L195.9909,116.31557115640639L200.65735,116.37479825484752L205.3238,116.45890098924636L209.99025,116.51372329237459L214.65670000000003,116.58035536944865L219.32315000000003,116.63415922279357L223.98960000000002,116.68587525408267L228.65605000000002,116.7395008787155L233.32250000000002,116.79284218611716L237.98895000000002,116.8309364515543L242.65540000000001,116.86980728495121L247.32185,116.91836187837124L251.98830000000004,116.93851445345878" style="fill: none;" fill="none"></path></g><g><path stroke="rgb(238, 51, 119)" stroke-width="2px" d="M23.332250000000002,37.65785121788978L27.998700000000003,76.7439085152626L32.665150000000004,90.09975288527012L37.3316,96.83275835115909L41.99805,101.02809249193668L46.664500000000004,103.99595700552463L51.33095,106.24419338929653L55.997400000000006,107.96920544042587L60.663850000000004,109.47852255806923L65.33030000000001,110.7709480637312L69.99675,111.91754429104327L74.6632,112.9915208052635L79.32965,113.73707696914673L83.9961,114.6165126005888L88.66255000000001,115.31943391041756L93.32900000000001,116.0273328935623L97.99545,116.69335237290858L102.6619,117.12036290581226L107.32835000000001,117.66247948193549L111.99480000000001,118.2802074673891L116.66125000000001,118.63858297197818L121.32770000000001,119.16325859556198L125.99415000000002,119.59907447555064L130.66060000000002,119.87886809227467L135.32705,120.38044187994002L139.9935,120.73517218301296L144.65995000000004,121.11713328716755L149.3264,121.561308942461L153.99285000000003,121.83669352033137L158.6593,122.19292179329395L163.32575000000003,122.40271820511816L167.9922,122.82962689304351L172.65865000000002,122.99935579297544L177.32510000000002,123.25723576519489L181.99155000000002,123.56001239869595L186.65800000000002,123.8356558325529L191.32445,124.07428286032676L195.9909,124.39301520709992L200.65735,124.58648247406484L205.3238,124.77614540673494L209.99025,124.93299728221892L214.65670000000003,125.26618737237453L219.32315000000003,125.44673730125426L223.98960000000002,125.6464595473051L228.65605000000002,125.90571867027282L233.32250000000002,126.08243031653164L237.98895000000002,126.16036294265984L242.65540000000001,126.48458218764067L247.32185,126.74339361705779L251.98830000000004,126.80226850161553" style="fill: none;" fill="none"></path></g></g></g></g></g></g><g transform="translate(50, 177)" clip-path="url(#clip_1)"><clipPath id="clip_1"><rect width="279" height="21"></rect></clipPath><g><g><line x1="0" y1="0" x2="0" y2="5" style="visibility: inherit;" fill="rgb(0, 0, 0)" stroke="rgb(204, 204, 204)" stroke-width="1px"></line><line x1="23.332250000000002" y1="0" x2="23.332250000000002" y2="5" style="visibility: inherit;" fill="rgb(0, 0, 0)" stroke="rgb(204, 204, 204)" stroke-width="1px"></line><line x1="46.664500000000004" y1="0" x2="46.664500000000004" y2="5" style="visibility: inherit;" fill="rgb(0, 0, 0)" stroke="rgb(204, 204, 204)" stroke-width="1px"></line><line x1="69.99675" y1="0" x2="69.99675" y2="5" style="visibility: inherit;" fill="rgb(0, 0, 0)" stroke="rgb(204, 204, 204)" stroke-width="1px"></line><line x1="93.32900000000001" y1="0" x2="93.32900000000001" y2="5" style="visibility: inherit;" fill="rgb(0, 0, 0)" stroke="rgb(204, 204, 204)" stroke-width="1px"></line><line x1="116.66125000000001" y1="0" x2="116.66125000000001" y2="5" style="visibility: inherit;" fill="rgb(0, 0, 0)" stroke="rgb(204, 204, 204)" stroke-width="1px"></line><line x1="139.9935" y1="0" x2="139.9935" y2="5" style="visibility: inherit;" fill="rgb(0, 0, 0)" stroke="rgb(204, 204, 204)" stroke-width="1px"></line><line x1="163.32575000000003" y1="0" x2="163.32575000000003" y2="5" style="visibility: inherit;" fill="rgb(0, 0, 0)" stroke="rgb(204, 204, 204)" stroke-width="1px"></line><line x1="186.65800000000002" y1="0" x2="186.65800000000002" y2="5" style="visibility: inherit;" fill="rgb(0, 0, 0)" stroke="rgb(204, 204, 204)" stroke-width="1px"></line><line x1="209.99025" y1="0" x2="209.99025" y2="5" style="visibility: inherit;" fill="rgb(0, 0, 0)" stroke="rgb(204, 204, 204)" stroke-width="1px"></line><line x1="233.32250000000002" y1="0" x2="233.32250000000002" y2="5" style="visibility: inherit;" fill="rgb(0, 0, 0)" stroke="rgb(204, 204, 204)" stroke-width="1px"></line><line x1="256.65475000000004" y1="0" x2="256.65475000000004" y2="5" style="visibility: inherit;" fill="rgb(0, 0, 0)" stroke="rgb(204, 204, 204)" stroke-width="1px"></line><line x1="279.987" y1="0" x2="279.987" y2="5" style="visibility: inherit;" fill="rgb(0, 0, 0)" stroke="rgb(204, 204, 204)" stroke-width="1px"></line></g><g transform="translate(0, 8)"><text x="0" y="0" dx="0em" dy="0.95em" style="text-anchor: middle; visibility: hidden; font-family: Roboto, sans-serif; font-size: 12px; font-weight: 200;" fill="rgb(50, 49, 63)" stroke="none" stroke-width="1px">-5</text><text x="23.332250000000002" y="0" dx="0em" dy="0.95em" style="text-anchor: middle; visibility: inherit; font-family: Roboto, sans-serif; font-size: 12px; font-weight: 200;" fill="rgb(50, 49, 63)" stroke="none" stroke-width="1px">0</text><text x="46.664500000000004" y="0" dx="0em" dy="0.95em" style="text-anchor: middle; visibility: inherit; font-family: Roboto, sans-serif; font-size: 12px; font-weight: 200;" fill="rgb(50, 49, 63)" stroke="none" stroke-width="1px">5</text><text x="69.99675" y="0" dx="0em" dy="0.95em" style="text-anchor: middle; visibility: inherit; font-family: Roboto, sans-serif; font-size: 12px; font-weight: 200;" fill="rgb(50, 49, 63)" stroke="none" stroke-width="1px">10</text><text x="93.32900000000001" y="0" dx="0em" dy="0.95em" style="text-anchor: middle; visibility: inherit; font-family: Roboto, sans-serif; font-size: 12px; font-weight: 200;" fill="rgb(50, 49, 63)" stroke="none" stroke-width="1px">15</text><text x="116.66125000000001" y="0" dx="0em" dy="0.95em" style="text-anchor: middle; visibility: inherit; font-family: Roboto, sans-serif; font-size: 12px; font-weight: 200;" fill="rgb(50, 49, 63)" stroke="none" stroke-width="1px">20</text><text x="139.9935" y="0" dx="0em" dy="0.95em" style="text-anchor: middle; visibility: inherit; font-family: Roboto, sans-serif; font-size: 12px; font-weight: 200;" fill="rgb(50, 49, 63)" stroke="none" stroke-width="1px">25</text><text x="163.32575000000003" y="0" dx="0em" dy="0.95em" style="text-anchor: middle; visibility: inherit; font-family: Roboto, sans-serif; font-size: 12px; font-weight: 200;" fill="rgb(50, 49, 63)" stroke="none" stroke-width="1px">30</text><text x="186.65800000000002" y="0" dx="0em" dy="0.95em" style="text-anchor: middle; visibility: inherit; font-family: Roboto, sans-serif; font-size: 12px; font-weight: 200;" fill="rgb(50, 49, 63)" stroke="none" stroke-width="1px">35</text><text x="209.99025" y="0" dx="0em" dy="0.95em" style="text-anchor: middle; visibility: inherit; font-family: Roboto, sans-serif; font-size: 12px; font-weight: 200;" fill="rgb(50, 49, 63)" stroke="none" stroke-width="1px">40</text><text x="233.32250000000002" y="0" dx="0em" dy="0.95em" style="text-anchor: middle; visibility: inherit; font-family: Roboto, sans-serif; font-size: 12px; font-weight: 200;" fill="rgb(50, 49, 63)" stroke="none" stroke-width="1px">45</text><text x="256.65475000000004" y="0" dx="0em" dy="0.95em" style="text-anchor: middle; visibility: inherit; font-family: Roboto, sans-serif; font-size: 12px; font-weight: 200;" fill="rgb(50, 49, 63)" stroke="none" stroke-width="1px">50</text><text x="279.987" y="0" dx="0em" dy="0.95em" style="text-anchor: middle; visibility: hidden; font-family: Roboto, sans-serif; font-size: 12px; font-weight: 200;" fill="rgb(50, 49, 63)" stroke="none" stroke-width="1px">55</text></g><line x1="0" y1="0" x2="279.987" y2="0" fill="rgb(0, 0, 0)" stroke="rgb(204, 204, 204)" stroke-width="1px"></line></g></g></g></g></svg>